<svg xmlns="http://www.w3.org/2000/svg" xml:space="preserve" fill-rule="evenodd" stroke-linejoin="round"
  stroke-miterlimit="2" clip-rule="evenodd" viewBox="0 0 1920 300" preserveAspectRatio="none">
  <style>
    :is(path, g) {
      display: none
    }

    :is(path, g):target,
    #image path {
      display: initial
    }
  </style>
  <path id="section2-bottom" fill-rule="nonzero"
    d="m354 132 4 2v1l-5-1 1-2Zm-4-32v1h1v-1h-1Zm-1 8-3 2c-3 2-2 4 0 6l4-5-1-3Zm0 22h1-1Zm-3 11h1-1Zm30-10 1-1h-2l1 1Zm-14 16 1 1v-1h-1Zm12-24-1 1 1 2 1-2-1-1Zm4 6h1v-1l-1 1Zm-19 15h1v-1l-1 1Zm-39-10h1v-1l-1 1Zm1-12v2-2Zm3 31h1l-1-1v1Zm-14-54-2 1c2 2 2 6 6 6l2-2-1-4-5-1Zm6 17 2 2h1l-1-3-2 1Zm-5-23v1l2-1h-2Zm30 9-1 2h2v-2h-1Zm-3 13h1-1Zm0 19c3 0 3-2 2-4l-2 4Zm4-14 1 1c2-1 4-3 3-5-3 0-4 2-4 4Zm-18-25h1-1Zm-3 7v1l1-1h-1Zm202 9 5 4h1l-2-4h-4Zm45 2-1 1 1 1 1-1-1-1Zm-120 3-2 7 3 1 3-7-4-1Zm29 3 1-1-1-1v2Zm26-9v-1 1Zm-56 3h-1l-1 1 1 1 1-2Zm201-25-1 1 1 1 1-1-1-1Zm-43 13h1l-1-1v1Zm-27 0c0-1 0 0 0 0Zm-264 50-1 2h2v-1l-1-1Zm333-43h1l1-1h-1l-1 1Zm-57-12 1 1-1-1Zm15 44v1l1-1h-1Zm-206 7v2l2-2-1-1-1 1Zm-8-31-1 1h2l2-1v-1l-3 1Zm9 3c3-5-1-8-3-11h-1v9l2 5v-1h1v1h-1l2 1h2l-1-1-1-3Zm-13 6-2 4c2 0 3-1 2-3v-1Zm15-18-5-1v2c2 0 4 2 5-1Zm-11 32-2 1 1 1 2-1-1-1Zm30-29v1-1Zm208-20v4l3 1-1-4-2-1Zm-197 41h-1c1 4 4 4 7 5l1-1c-1-4-5-3-7-4Zm4-20v-2h-3v3l2 2 1-3Zm-23-3v2l1 2 1-2v-3l-2 1Zm1 11h1v-1l-1 1Zm11-6v-1 1Zm-41 3v-1 1Zm39-10c1 2 2 1 3 0v-2l-3 2Zm-331 6-1 2h1v-2Zm16 22h-3 3Zm46-4 1 1v-2l-1 1Zm-43-4-1 1 1 1 1-1-1-1Zm-26 5-1 1 1-1Zm-3 0h1-1Zm12-4h-3v1h1l1 1 1-2Zm56 24 1 2 1-2-1-1-1 1Zm-8-19v-1 1Zm0 4v2l2 3v-1l-1-3-1-1Zm-1-2v1l1-2-1 1Zm-12-14v1h1l-1-1Zm0-3h1v-1l-1 1Zm-20 20v1l1-1h-1Zm542-54s1 1 0 0ZM49 125h-4v1l4 1h1l-1-2Zm-1-8h-1l-7-2-3 1c7 4 15 4 22 6h2l-1-2-12-3Zm-8-13-3-1 3 1Zm0 16 1 1v-1h-1Zm-20-1-5-2-2 1-7 2H0v3l7 1h7c-4-1-3-2 0-3h2c4-1 10 3 11 3 2-1-4-5-7-5Zm26-7h-1l-1 2h1l1-2Zm-14 5h-2l1 1h1v-1Zm42 8h1v-1l-1 1Zm-1-3h2v-1h-1l-1 1Zm-23-7v1l1-1h-1Zm15 4v-1l-1 1h1Zm-14-3c2 1 3 2 5 0l-1-3-3 2-1 1Zm2-4v-1 1Zm11 12 5 1c-1-2-3-3-5-1Zm139 12h1v1-1h-1Zm69 1v2l1-2v-1l-1 1Zm1-18v-1l-1 2 4 4-1-3-2-2Zm-11 48v1-1Zm17-71v-1 1Zm3 5c-1 3 0 6 1 8h1c1-3 0-6-2-8Zm-20 22v-1 1Zm3-7-2 3 2 1 2-3-2-1Zm-1-10-1 1h1v-1Zm8-5-2 2 2-2Zm24 8v1l2 2v-2l-2-1Zm-13 45 1 1v-2l-1 1Zm9-28 2 1 2-3-2-1-2 3Zm0-31h-1v1l1-1Zm4 8-1 2 2-2h-1Zm-3-3 2-1-2-1-2 2h2Zm-99 28v1l1-1h-1Zm119-10v1-1c1 0 0 0 0 0Zm-138 9-1 1 1-1Zm0-6v1l1-1h-1Zm-20 16h1-1Zm51-16 1-1v-2l-2 1 1 2Zm48-7c0 4 2 2 3 2l-1-4-2 2Zm-9-6v5l5-2 1-1c-1-3-4-2-6-2Zm-35 20c-1 0 0 0 0 0v-1 1Zm3-8v1l1 1v-2h-1Zm3 10 1 1v-3l-2-1 1 3Zm1312 19h2-2Zm-9 2c-1 0 0 0 0 0h1-1Zm1-7h-2v1l2-1Zm21 4 1 1h2l-2-1h-1Zm-15 2h1-1Zm55 9-1 2v3h3v-3l-2-2Zm42 0h1-1Zm-25 19 4 1 1-3-4-1-1 3Zm-43-3 1 1 1-1h-2c0-1 0 0 0 0Zm6-17-1 2v3l3-1-2-4Zm9 11v1h2v-1h-2Zm1-10v1-1Zm-132-2s-1 0 0 0c0-1 0-1 0 0Zm-5-11-1 2h2l-1-2Zm-53 20v-1h-1l1 1Zm-42 7c1 8 1 8 4 4-1-2-1-12-4-4Zm178-18h-1 1Zm-156 19-2 1 2 2v-3Zm14-4c3 1 3-2 4-4h-6l2 4Zm102-18 3 4h4l-5-5-2 1Zm37 1 1 1 1-1h-2Zm-75-3v2-2Zm16 2v1h1v-1h-1Zm13-8-4-1-2 2 3 4 7 1-1-2-3-4Zm-10 0-3 1v3l3-2v-2Zm178 5v-1 1Zm252-6 5-1h-1c-1-1-3 1-4 1Zm-97-12h1-1Zm66 11-1 1h1v-1Zm-282 8s1 2 0 0ZM231 89h-1 1Zm-1 0v-1 1Zm1297 53s2 0 0 0Zm393-74v1-1Zm-19 71v1l2 1c2-1 1-3 0-4l-2 2Zm-152 29 1 2 2 1 2-1-1-1-4-1Zm-7-7v-1 1Zm-44 20v1l1-1h-1Zm28-29 1-2-3-2c-1 2 0 3 2 4Zm121-6 1 3 4-1-1-1-4-1Zm-173 3 1 1h1l-1-1h-1Zm10-12-3 2 3-2Zm-43 22h1-1Zm142-25v4l6-3h-2l-4-1Zm63 5h-1l1 1v-1Zm-12-3 1-1h-1v1Zm-2 19v-2h-1l1 2Zm-22-11-1 2h1l1-1-2-1h1Zm17-4v1h1v-1h-1Zm-914-20-1-1v3h1v-2Zm-82-17v1l1-1h-1Zm11 22h1l-1-1v1ZM346 94v-2h-1v1h1v1Zm479 8 1 2c3-1 3-5 3-8-4 0-6 2-4 6Zm-238-8v1h1l-1-1Zm224 4v1h1l-1-1Zm12 7 1-1-3 1h2Zm38 37h1l-1-1v1Zm-10-17c1 2 1 5 4 4l5-5-2-1c-1 3-5 1-7 2Zm17 2v-1 1Zm909 20v1l1 1v-2h-1Zm-249-5h-1v1l1-1Zm-689-38 12 21c-2 2-4 2-5-1l-3-3-1 3c-3 0-5 2-7-1 1-2 1-5 4-4 1 1 1 0 2-1l-4-2c-4-1-3-5-4-7-1-3 3-4 4-7l2 2Zm1 8-1-1-1 1 1 2h1v-2Zm9 7 1 1v-1h-1Zm-80-23-3 2c1 2 3-1 3-1v-1Zm-90 27-1 2h1l3-2h-3Zm22-31v1h1l-1-1Zm-38 29v-1 1Zm38-39v1-1Zm83 30h2-2Zm-112-5h-1l-1 1-2 5h2l3-4-1-2Zm7-11-3 6 2 4 3-6-2-4Zm1241 22-3 6c-7 10-10 9-10 9-1-3-5 1-8 1l-10-1c-7-5-14-1-21-1l-2 3v3l-2-2c-3-1-3-7-8-6h-1c-3 1-5 0-10-2l-1-1c-7-1-14-5-20 2l-1 1-1-1 1-6c-7-2-14 5-21 2l-1 1h1v8l-3-2v-3c-2 2-6 3-7 2s-1-3-2-2l-2 4c-12-2-13 3-32 6-3 2-6-3-9-3l-4 1 3 3c3 1 1 2 1 4h-1 1c5.4 2.2 10.7 4.6 16 7v2l3-1-1-1 10 2c17 5-5 3-7 2l-25-6c-4-1-8-4-11-9-2-5-5-5-8-2-4 2-2 5 0 8v2c-7-1-7-10-10-4l-1 2-1-3c1-3 0-6-1-9h1l22-7 6-4c13-7 26-14 35-24l6-4c-4 0-6 1-6 4l-12 4c-13 8-26 16-40 22l-15 6-3-1-3-4-3-1 1 4-3 1c-5-2-9 0-12 4-4 1-7 2-9 4-8 1-14 5-21 8-4 2-7 4-9 8-2 0-4 1-5 3 1-5-1-8-5-9l-3-1h-4c-1-1 0-2 3-3l5-3-3-3-8 6-1 3-3 2h-1v-1c-1-2-2-3-4 0-3 2-4 3-7 3l-4 1h-4v1s0-1 0 0l5 6h-5c-1-2-3-3-6-2-4 1-7 0-9-3l-4-3c-1 0 0 0 0 0-3-1-6 5-8-1v-1c2 0 2 0 3-2 1-1 2-3 4-2s2 0 3-2l5-2c4-1 8-1 2-3l1-1 5-4 1-1h-1l-4 3c-7 4-13 8-21 11l-5 1-2 1-29-5-3 1c0 1 2 1 0 1h-2c0-1 0 0 0 0v3l-3-2-1 1h-2l-1-1c-1-1 1 0 1-1l2-1 1-2h-3l-36-4c-3-1-3 1-5 1l-1 1h-4l-1-1h-5v-1h-3l1 1-6-1s1 0 0 0-4 3-5 0l-9 1h-4c4-1 7-4 9-6l-3 1-7 3c-8 4-14 4-20 1l-6 1v-1 1l3 3c-1 3-5 6-9 6l-4-3c-1 2-3 4-5 2l-4-1 2 4 2 2-3 1-7-4-2 1v5l3 2h-1v1h-1l-1 2c-1 1-3 0-4-1-2-1 0-1 1-2l1-2c-3 2-5 1-8-1-1 0-3 0-3 3 0 1-16 6-29 7h-9c-3 1-8-2-10-2h-1c-5 1-9 6-13 6h-2c-20 1-36-2-44-2v-2l-3 2-2 1h-3c0-1-1-3-4-3 0 0 2 1 0 0-3 0-11 3-15 1-1 0 0 0 0 0-6-2-11-2-16-5l-3-1 2-2v-2h-4l-3 2-4-1-5-3-16-4 10 6 1 1h-1c-9 2-18 4-28 1-3-1-5 1-5 5v3c0 4-2 6-5 4l-4-3-10-10-6-3v6l-1 6-2-6c-4-5-9-6-13-2l-3 5c-4-2-8-8-13-5h-2c-1-1 0-5-2-2l-1 4-4-1c-1-4-4-3-5-2-2 1-5-2-5-1v-1h1-1c-2-2-4-3-6-2l-1 1h-1v-3c1-1 0-3-1-4l-11-6h-3c-3-7-8-8-13-11-2-1-6-3-8-2l-18 4c-5-1-10 3-15 1l4-7c4-3 8-7 17-2v-3c-1 0 0 0 0 0l4-3c5-4 10-4 18 1l2 1h2l-1-2-5-4-4-4 3-2h4c5 0 16-2 20-4h-20l-8 2c-7 5-14 9-22 12s-17 6-20 13l-3 2c-4 3-10 8-14 9-4 2-9-4-11-5h-1l-12-7 13-5v-2l-15 6-16-12c-6-7-11-13-14-20l-3-9h10l2-1-2-1-6-2c-5 0-7-3-9-7l-6-9-6-5-1-1h-1l-4-4c-6-3-9-7-11-12-2-4-4-9-10-11l-5-3 4 4 6 10c3 5 8 9 7 15 11 3 19 8 22 18l5 10c5 9 9 20 17 29l1 1c-6-5-12-9-14-5-2-2-4 7-6 4-2 1-5 1-3 5l2 5v3l-2-1-3-5c-4-10-5-10-13-6l-2-4h1-1c-1-3-4-4-7-4h-1l-7 2c-1 5-3 14-4 13v-2l4-11c-6 2-11 5-16 5v2l-1 6-2-1h-5l2-6-10-2v3c-2 0-3-1-3-2h-5c-5-1-8-3-11-9l-8-10-5-6h-1l-3-3-13-11-4-2h-1l1 1c3 3 7 6 7 11v1c-4 1-10 0-13 2-4 2-7 7-11 10l-2 1 1-2 1-1 5-7-7 3-3-1c-1-6-5-3-8-4 0-5-3-6-6-6-4 2-6 0-7-4l-2-1c-7-2-13 3-19 6l-2 2c-5 0-5 5-6 10h-1l-5-2c-1-6-3-10-9-11l-2-1-1-5-2 3-4-1-14 2-8-2c-4-2-8-2-12-1v-2l-1-3-2 2c-2 2-5 3-9 2l-35-6-25-4c3 4 8 3 12 4 6 1 11 2 14 6l-5-1 1 5c-1 2-3 2-5 1-3-4-8-5-12-4-3 1-5 1-6 4 0 2-1 0-2-1l-2 1c-1-1-1-1-1 1l-18 5 2 2h-2v-2l-12 2h1c4 0 8 1 11 3l-5 1h5l5 3-6 3c0-2 0-5-3-5s-6 3-6 6l1 1c2 3 2 3 1 4l-1 1c-2-2-2-4-6-5-2-1-1-2 1-3 3-2 3-3 0-5l-6-4v-1 1c-1 2-2 2-4 2h-16l-2 2 4-2 2 2v2c-4-1-6-1-6 5 0 2-3 2-4 0-2-3-3-3-6 0-3 4-3 0-4-2l1-2h-1v2c-5 0-10-1-14 1l5 5c1 2-5-2-9-5l-4-2-9-7-2-2h-1c-2 0-4 2-6 0l-7-1c-2-1-2-1-2-3v-1l-1 1c-1 2-2 3-4 2l-19-5-13-2c2 2 4 2 7 3 3 0 7 1 7 7l7-1c2 0 6-1 8 4h2c2-3 3-2 5 1 0 1 1 1 1-1l2-1 17 4c2 1.2 4 2.5 6 4-11-4-20 1-28 6-3 1-4 6-5 9 0 3 3 3 5 3l1 1h-4l-9-1c-1-1-2-2 1-5v-3l1-4-3 1-18-1-20-6-1 2-1-1h-3l-6-1 1 2-2-2-3 2v-1l-1 1h1l-1 3-2 2-2-2-1-5c-1-3-1-4 3-3v-1l-9-2-1-1-1 2h-2v1c0 2 2 2 3 2 2 0 3 1 1 3-3-2-5 1-7 2h-1 1l4 1 1 1-1 2v1l-2 5-3-4v-1l-1 1h1l-3 2c-5 0-4-5-5-7l-2-2-1 2c0 3 3 5 1 7l-1-2-2-3v1l-1 1-5 2-3-2c2 0 3 0 2-3h1l1-1v-1l-1 1v1h-1l-2 3-1-1 1 1-5 2c-3 1-5-1-4-4 1-2 0-4-1-5l-3-3-1-5c-2 1-5 2-6 4-2 3-3 3-4 0l-3-4v-1h2c4 2 4 2 5-3l1-1h-2l1 1-4-1-1-1h-2c-2 1-5 2-6 6 0 3-1 3-2 3-1 2-1-6-5-4h-3l-1-3v-1l3-6c1-3 3-6 2-9 1-1 2-3 1-4-1 1-2 3-1 4l-7 15-1 3v1l-7 7-2-7c2 0 5 1 6-1v-3h-10l-7 2v1h-3l-3 1v1l-1 1-1-1h1-13l1 2-4-1-2 1h-1l-4 4 1-3-13 3-2 2v1h-1l-2 1-4 3-1-3-7 2c-2 0-3 4-5 4-2 1-4-2-6-3h-4c-5 1-6 2-5 8l-1 7-3-8c-2-6-3-6-9-5-7 1-15-5-22-4l-3 2v-2l-1-1-1 1 1 2c-5-2-10-4-15-3-3 1-3 1-2 4 0 2 0 3-2 1l-3-1-4 3v-1h-1v1c-1 1-2 1-4-1l-5-2h-3c-8-6-16-12-26-16l-5-3c0 2 2 3 4 3l6 7 12 9-2 1c-18 0-26 5-39 0l-16-4-6 1h-2v1l-4-1v-1l-24-5-8 1-4-1-3 1-2 3-1-1c0-6-1-6-6-7-3-3-4 0-5 2l1 2c1-2 6 1 7 0 0 5 3 5 3 3v1-1 5l-1 2 6 1h-1 5l-2 1 2 1-1 1c-7-2-5-1-9-1l-9-5c-5 1-15 2-15-2l3-3c2-3 7-5 6-9l-8 6-1 1V54l8 10 4 3c8 2 16 6 24 4l-10-3c-8-2-15-5-19-13-1-3-3-6-6-8l-1-2V0h1920v68h-9v2h1l8-1v17l-2-1c-14-2-28-6-41-6l-22-1h-6c-7 3-16 4-17 9l9-3c7-3 14-4 28-2l15 1c12 0 24 3 36 7v28Zm-23-43v1-1Zm13-23v1h1l-1-1Zm-8 15c1 3 5 2 9 1 0-1 0-3-4-2l-5 1Zm0 13h-1v1l1-1Zm-6-13h-6c2 2 4 2 6 0Zm-8-6 4 2 2-3-3-1-3 2Zm-21-40h6v-1l-6 1ZM34 45h-1l1 1v-1Zm5 22h-1v1l1-1Zm22-30 1 1 1-1h-2Zm-5 38 2 1h3l-2-1h-3Zm3 6h1-1ZM45 51h2-2Zm2 5v1l1-1h-1Zm2 31-3-2-2 3 2 2 3-3Zm2-6 1 4 3-3 1-3h-1l-4 2Zm1 11h-1 1Zm4-1 2-2h-3l1 2Zm3 3-1-3h-2l3 3Zm4-3v-2h-5l1 2h4Zm0-24 5 1c-1-2-3-1-5-1Zm6 8-4-2v2l1 1 3-1Zm3-6h-3l2 1 1-1Zm7 3-1-1h-1l2 1Zm31-1 1 1-1-1Zm-3 12c-1-2-3-3-6-3 1 3 3 4 6 3Zm7 6-4-4c-1 3 1 3 4 4Zm4-10-4-3h-1l-1 2 4 3h2v-2Zm7-12-1-1-1 1h2Zm5 16v-1h-1l1 1Zm25 1-1-2-2 1 2 2 1-1Zm4 2v-1 1Zm7 2 1 1v-1h-1Zm-5-23v1h3l-3-1Zm3 28-1-2-2 1 1 1h2Zm2-9-1-1v1h1Zm3 17-1-2-2-2 1 2 2 2Zm1 1-1-1 1 1Zm2-10-1-1-1 2h2v-1Zm1-5h-1l1 1v-1Zm8-2-1-1h-2l2 2 1-1Zm11-21h-1v1h1v-1Zm12 17-2 1 2-1Zm16 22h-2l-1 1h1l2-1Zm3-1v-1h-2v1h2Zm10-29v-4l-2 1c-1 2 1 3 2 3Zm3 20c-2-2 0-6-6-6v1l-2 1 5 5 2 1 1-2Zm0-14v-1h-1l1 1Zm3-6-1-2-3-1 2 2 2 1Zm5-13v1-1Zm0 23v-1h-1l1 1Zm1-3-1-1v2l1-1Zm1-37h-1v1l1 1v-2Zm6 18 1-2-1-2-2 1c-3 3-1 3 2 3Zm1 3 1-1-1-1v2Zm3 23-1-2-1 1 2 1Zm16-20h-1 1Zm3 22h-1l1 1v-1Zm1 6v-1l-1 1h1Zm4-44-1-1h-1l1 1h1Zm5 11h-4l2 1 2-1Zm14 23v-1l-2 1 1 1 1-1Zm1-41v-1h-1v1h1Zm31-4-2-2h-1l2 3 1-1Zm21 15 1-1-7-5h-1l1 4 6 2Zm2 29-1-1-2 1 1 1 2-1Zm0-25-5-1v4l3 2 1-2c3 0 3-2 1-3Zm20-3h1-1Zm-12 21 2 1 2-1-2-1-2 1Zm-3 6v-1 1Zm7 23-1-1v1h1Zm13-14-4 1c-4 3-7 1-9-2h2l-3-1v1l-2 3-1-4-4-1v1c-1 5 2 5 5 4v2c-1 2-2 3 0 4 2 2 3 1 5 0-1-1-3-3 1-3l6 1 3-1 1-5Zm2-15c1-1-1-2-1-3l-2 1c-1 1-2 2-1 3l2 1 2-2Zm14-14h1l1-1-2 1Zm-3 6 1-1-1 1Zm-3-26h1-1Zm-1 23 2 1 1-1-2-1-1 1Zm-1 38-1-1v1h1Zm6-11-9-1 1 3c1 2 1 2 3 0 1-1 4 1 5-2Zm-1-24c-4 3-4 5 1 6l3 1c1-4-2-5-4-7Zm11 9c-1-2-3-3-6-2 1 2 3 3 6 2Zm5-21h-3l-2 3 3-1 2-2Zm5-9h-1 1Zm48 47 1-1h-1v1Zm-8 1 1 1-1-1Zm-16-17h-1v1l1-1Zm23-1c-2-1-5-2-4 1h4v-1Zm8-28h-1v1h1v-1Zm9 37h-1v1l1-1Zm11-49h-1l1 1v-1Zm14 22v-3l-3 3h3Zm18-16-2-2-1 2 2 2 1-2Zm4 18h1l-1-1v1Zm3 24-3-1-1 1 1 1 3-1Zm2-15-1-1h-2l1 1h2Zm23 13-1-1-3 1h4Zm8 6-1-1-1 2h1l1-1Zm42-59 2 1 1-1h-3Zm3 19 1 1 1-1h-2Zm-4-20 1 1h-1v-1Zm-22 18 3 2 4-1-6-2-1 1Zm-11 37h-1v1l1-1Zm11-2h-1l-4 2 5-2v1-1Zm16-7-3-2-2 1 2 2 3-1Zm13-8-11-2-22-5 1 2 7 3h10l5 2c2 0 6 0 8 2l2-2Zm19-31-1-1v1h1Zm5 20h-2l1 1 1-1Zm56-9-7-3-2 2 3 4 6-3Zm-4 10v-1 1Zm-5-22 3 2 2-1-1-1h-4Zm-13-6h2l-1-1-1 1Zm-25 9h-2v1h1l1-1Zm11 6h-1l1 1v-1Zm10-9 2 1v-1l-1-1-1 1Zm4 7-3-3h-1l2 4 2-1Zm1 8v-2l-2-1v2l2 1Zm2 0h-2v3l2-3Zm2-2h-1v2l1-2Zm4-10-1-1-1 1v1l2-1Zm1 32v1h-1 1v-1Zm0-37c0-2 0-3-4-2l-1 2c1 2 3 1 5 0Zm3 35-2 1v1h1l1-2Zm5-6c7-3 0-3-1-5l-5 1 1 4h5Zm5 14-1-2h-3l1 2h3Zm2-17v-1 1Zm5-35-2-2-1 1 1 1h2Zm8 45-1-1h-1l1 2 1-1Zm17-20-1-1-2 1c-1 1 0 1 1 2l2-2Zm4-13 2 2 2-2-3-2-1 2Zm0 15h1-1Zm13 9c-3-4-6-7-12-8l-2 3c4 1 8 2 9 5l1 2h3l1-2Zm15-12v-1h-1l1 1Zm2 1-2-1v1h2Zm5 24v-1h-1l1 1Zm1-33h-2l1 1 1-1Zm13 30h-1v1h1v-1Zm1-21-1-1v1h1Zm3-6-3-1 1 2 2-1Zm8-6c-1 0-1-2-3-2h-4l3 2h4Zm2 37-1-1h-2l1 1h2Zm6-37v-1h-1l1 1Zm9 0-1-1v1h1Zm7-10h-1v1h1v-1Zm6 24v-1l-1-1v1l1 1Zm5 1-2-1h-2l2 1h2Zm17 39-2-1h-2l3 2 1-1Zm6 2-2-2-1 1 2 2 1-1Zm4-19v-1l-1 1h1Zm3 23v1-1Zm8-55c-3-4-7-6-13-6 3 3 7 5 13 6Zm2 66h-1 1Zm3-44v-1h-1l-1 2 2-1Zm1-17-4-3c1 2 2 3 4 3Zm7 7c0-3-3-5-6-6 0 3 3 5 6 6Zm4 13-1-1-1 1 1 1v1h1v-1h-1l1-1Zm2-23v-1h-1v1h1Zm47 46 1 2h2l-1-1-2-1Zm-30-20 5 2 1-1-6-1Zm-15 9-1-1v1h1Zm3-17-3-2c-1 2 1 2 3 2Zm42-11-2-2h-2l1 1 2 1h1Zm48-10v1h1l-1-1Zm-23-5c3 2 5 2 7 0h-7Zm-10 12h2l-1-1-1 1Zm-8-4h-2 2Zm4-4-2-2-1 1 2 2 1-1Zm12 24c0-5-4-7-8-9l-3 1c-2 3-1 4 3 5l8 3Zm9-4-4-1c0 2 0 5-4 5l1 4c4 0 6-1 7-3v-5Zm0-12-5 2h-1c4 3-3 6 2 9l5-4c1-2-1-7-1-7Zm10-7h5l-1-2-4 2Zm7 5h-5l-1 1 5 1 1-2Zm14 18 6-9c-3-1-6-1-6 1v8Zm5 53-5 4c4 0 6-1 5-4Zm6-4c-4 0-6 1-6 4l6-4Zm3-66-1 1 1-1Zm3 34-1 1 1-1Zm2-35 1-3-4 2-1 2 4-1Zm2 28h-2l1 1 1-1Zm6 2h-1v1l1-1Zm5 16v1l1-1v-1l-1 1Zm-4-10h1l1-1-1-1-1 2Zm9 18-4-4-4 1 6 5 2-2Zm6-46v-1l-1 1h1Zm42 33h-2l1 1 1-1Zm6 43-2-2-1 1 2 2 1-1Zm15-1-3-1v2h1l2-1Zm4-39c-4-2-6-2-8 1 4 2 7 1 8-1Zm16-12 2 1v-2l-2-1v2Zm-9 13c-3-3-5-2-6-1l6 1Zm0-10 4 1v-3l-4 1v1Zm5 9c-3-2-4-1-4 1l4-1Zm8-1c-4-1-6-1-8 1 4 2 7 2 8-1Zm131 38h1v-1h-1v1Zm-6-31 1 1 2-1-2-1-1 1Zm-15 23 1 1v-2l-1 1Zm-4-4h2l-1-1-1 1Zm-38-2h2l-1-1h-1v1Zm-45 38-2 1 2 1v-2Zm13-23c-5-5-11-8-21-8 6 3 12 7 21 8Zm12 5c-2-3-6-5-12-5 3 3 6 5 12 5Zm18 6c-4-4-10-6-17-6 4 4 10 5 17 6Zm6 3-1-2-2 1 3 1Zm0-9-4-2-1 1 3 2 2-1Zm0 10 3 5h3c0-3-2-5-6-5Zm8-25 5-3-2-2-6 4 3 1Zm16 16-13-3-1 1c2 6 6 7 11 4l3-2Zm2-20h-4c1 2 3 2 4 0Zm27 37-25-13h-2l1 2c8 4 16 9 26 11Zm0-21-2-1-2 1 2 1 2-1Zm5 24-4-2c0 2 2 2 4 2Zm4 2-3 1-1 2 2-1 2-2Zm1-17v-1 1Zm1 16h-1 1Zm0-9-1 1h1v-1Zm17-5-2 1v2l3-1-1-2Zm5-26 4 3 2-1-5-3-1 1Zm2 29-1-1-1 1 1 1 1-1Zm7 10-1-2-3-2-2 1 2 2 4 1Zm1 1h-1 1Zm6-36 1 1v-1h-1Zm4 42h-1l1 1v-1Zm1-36 4-1-8-3c-1 4 0 4 4 4Zm6 17h-1l-2 1 2 1 1-2Zm27-31v1h2l-1-1h-1Zm-19 3-1 1h1v-1Zm2 28h-1v1h1v-1Zm7-26h-2l-2 2h2l2-2Zm12 41-2-2-6 3 2 1 6-2Zm9-44h-1 1Zm14 10h-1v1h1v-1Zm8-12h-1v-1l1 1Zm1 12h-1v1l1-1Zm-1-12 1 3v1l2-1c3-2 0-3-3-3Zm20 3h-3l-6 2h7l2-2Zm7 25c0-2-2-3-5-3l3 6 2 1v-4Zm19 3-1-1-2 1h3Zm6-4h-3 3Zm5-3-1-1c-3-2-6-1-10 1h-1l-3 3h3c3-2 6-3 9-2l3-1Zm39-19-1-1-5 1-1 2h4l3-2Zm2 13h-2l1 1 1-1Zm4 5v-1l-1 1v2l1-2Zm4-24-3-1v2h2l1-1Zm7 8v3c3-1 3-2 0-3Zm2 16v-2l-4-1 1 2 3 1Zm25-5-1-1-3-1 2 2h2Zm1 1h-1 1Zm4-17-1-1h-1l1 1h1Zm6 25-4-3-2 1 3 3 3-1Zm9-18-4 2-1 1h3l2-3Zm7 1-1-1v1h1Zm30-19v1l1-1h-1Zm-23 25v1l1-1h-1Zm-1-7h1v-1l-1 1Zm5 11v-2h-5l-1 1-3 6 6-4v-1 1l3-1Zm1-17v-1l-1 1h1Zm5 3v-1l-1 1h1Zm3 6-2-1-1 3v1l3-3Zm1-16h-1 1Zm1 19v-1l-1 1h1Zm0-25-2 1v1h2v-2Zm3 36h-2v1l1 1 1-2Zm0-33h-1 1Zm3 8-1-1-1 2 2 1v-2Zm4 17h-1l-2 2 2-1 1-1Zm9-4h-2l-1 1h3v-1Zm13 6-3 2 1 2 3-3-1-1Zm23 14h-1 1Zm2 1h-2 2Zm5-27-2-1-2 2 2 1 2-2Zm16-25h-3v1l1 1 2-2Zm5 27h-1 1Zm10 2h1-1Zm2 22-1-2-3 1 1 2 3-1Zm3-32-1-1-1 1h2Zm18-46h2-2Zm6 55v-3l-3-3-4 2-1 4h8Zm3-58h-1v1l1-1Zm16 27-2-1-3 4 2 1 3-4Zm7-32-2 1v1l2-1v-1Zm10 37 3 1v-2l-2-1-1 2Zm7 18c-1-3-4 0-6 0l-6 2 8 2c2 0 4-2 4-4Zm13-5-2-1-3 1h5Zm1-23-1-1h-1l1 2 1-1Zm32-25-1-1v1h1Zm8 93 1-1h-1v1Zm-28-19-2-1 1 2-1 1h1-1l-2 2c1 0 0 0 0 0h-1 1c1 1 3 0 2-2h1v-1l1-1Zm0 0v1-1Zm39-68v-1h-1l1 1Zm5 24c-4 0-5 1-6 3l6-3Zm9-7c-4 1-6 2-6 5 4-1 6-3 6-5Zm17 4h1v-1l-1 1Zm3 28h-2l-6 1 1 1h2s6-2 5-2Zm8-15h2l-1-1-1 1Zm2 13-3 1h1l2-1Zm8 6h-2 2Zm7-31v-1h-2l2 1Zm10 1h-1v1l1-1Zm9 18h-1v1h1v-1Zm2-20v-1h-2l2 1Zm6 15v-1l-1 1h1Zm5-1-1-1h-1l1 1h1Zm25 14 2-1h-1l-1 1Zm-4-9-2-1v1h2Zm1 9v-1l-1 1h1Zm11 9-1-2c-1 2-6-1-7 0 0-4-2-4-3-4v1c0 6 1 6 6 7 3 3 4 0 5-2Zm3-17h-1 1Zm0-7h-1v1l1-1Zm8 13h-1l1 1v-1Zm1-24h-2 2ZM765 109l-3 1 2 2 3-1-2-2Zm-15 9h1-1Zm-12-15h-3v4l3 2 2-4-2-2Zm18 4 1 1-1-1Zm159 28-2 1 4 2v-2l-2-1Zm246 31v1h1v-2l-1 1Zm21 0 2 2v-2h-2Zm-113-18c0 2 3 1 3 0h-3Zm66 16v1h1l-1-1Zm-37-4 2-1-4-1 2 2Zm96 8v2l1 1 1-3h-2Zm100 5 1 6 2-1 2-6h-5v1Zm33 14 1 3 2-1v-3l-3 1Zm-75-17h2-2Zm-189-12-4-1 2 3h2v-2Zm182 7v1-1Zm-22 7h1-1Zm-168-20 1 1v-2l-1 1Zm-134-22v1-1c1 0 0 0 0 0Zm-42-1 2-1h-2v1Zm459 42v2-2ZM648 80l3 3c2 1 2-1 3-2l-6-1Zm231 45-1 2h1v-2Zm-4 11 1-1-1-2v3Zm3-9 1 2-1 2h-4c-3-4 0-5 2-7h1l1 3Zm-1 1h-1v1l1-1Zm174 6v1-1Zm-5 25v1l-1-1h1Zm-7-21-2 4 2 3 3-2v-3l-3-2Zm-170-16h-1 1c-1-3-3-2-5-2l-4 4 3 3 1 5 3-4 1-1-2-2 2 1 3-2-2-2Zm55 10v-1h-2l2 1Zm81 38 1 2v-3l-1 1Zm28-33-2 3 2 1 2-3-2-1Zm-24 18-1 2 5 1v-1c-1-3-2-5-4-2Z" />
  <path id="section-bottom"
    d="M1543 65h-1c1 0 0 0 0 0h1Zm0 0 4 1s2 1 0 1l-4-2Zm-181-46h-1 1Zm0 0v-1h2v1h-2Zm-88 22 1 2h-1c0 2 0 4-3 4l2-2c-1-1-1-3 1-4Zm182-9 1 4h1v1l-4-1 1-2h-1l-1 1 3-3Zm0-1h3-3v1-1Zm128-17 2 1h-3l1-1ZM73 13v1h-1l1-1Zm0 0h-1 1Zm-16-1v1-1Zm59-1h1v2l-1-1h-2l2-1Zm0 0h-1 1Zm1574 2h1-1Zm0 0 1 1h-1v-1ZM241 0c-1 1-2 3-1 4h1l1 1c-2 1 0 3 0 5h-4l2 1-1 1h-4l1-1h-1c-2 1-1-1-4 1l-1-1h-2 1l-2-2-1 2h-1l-3-2c-2-1-1 1-2 1h-2V9c-1 1-1-1-2 1l-2-2v2l-2-1V8c-1 0-2-1-2 1h-3V6l-1 2-1-2c0 2 2 2 1 3s-1-1-2-1l1 1-1 2-1-3h-1v2c-3-1 0-3 0-5l-1-2c-1-1-2 0-2 1V1l-2 2 3 3-1 1c1 0 2 0 1 1h-1V7l-1 3V9v1c1 2 0 2-1 1v-1l1 1c0-1-1-2-3-2l-1-2v3l-2-1h-1V8v2l-1-2-1-1c1 1-2 5-3 3v2l-1-3 1 1 1-1V7l-3 1h-1V7c2 1 1-1 0 0v1l-3-1 1 2c1-2 2 1 4-1l-4 4h-2l2-1h-4l1 2h-2v-1c2 1 1-1 0 0l-2 1v-1c-2 1-1-2-3-2h-2v1c1 0 3-1 2 1h-7l-1-1-7 1v-1c-2 0 0 3-4 0l-1 1-1-3v2h-2l1-2h-2 1v1h-1v1c-1-3-4-1-3-3h-1l-4-2v2c-2 1-2-2-3-2l1 1c0 2-1 3-2 2h-4V8h2-3 1c-1 1 0 2 1 3l-2 1-1-1s-4 2-4 1h-1 1-2v1-1h-3 1l-1 1v-1h-1l-1 1v1h-1v-2h1-1c3-3 3-2 1-5v1h-1v2h-2V9h2c-2-1-4 1-4-2-2 0-1 2 0 2l-1 1-1-2-1 1V7c-1 0-2 1-1 3l-1 2c-1-1 0-4-2-4v2c-1-1-2-1-2-3h-1c1 3 3 3 4 5l-2-1h-2v1l-5-1 1 1h-4 1l-1 1v-1h-9v1h-1v-1h-1s-1 0 0 0v1h-2l-2 1c0-1 2 0 1-1l-3-1h-2l-1 1v-1h-1l2-1h-7l1 1v1h-3v-1h1l1-1h-3c0-2 3 1 3-3-2 4-3-1-4 2l2 2h-2l-1 1v-1l1-1-1 1-3-2h-2c-2 0 0 0 0 0l-2-3v1l-1 2c-1-2-2-3-2-1l-3-1-1 1 2 1h1l-1 1 1 1-2 1h-2v-1l1-1 1 1-2-3h-2l-1-2v2h-1V7v1h-3V7l-2 1 1 1V8v1h1l-1 1 1 1V9h3v1l1-1c1 2 2 0 3 1v2h-2v1h-1v1-1h-1l1-1h-3c2 1 1 0 0 2v-1h-3l1 1-1-1h-4c1 1 0 1-1 1l1-1c-1 0-4 1-2-1h-9c-2 0-5 2-5 0-4 2-6 1-9 1 1 2-5 0-5 0-9 5-5-9-6-13h241ZM47 13v-1 1ZM1859 0c-1 1-2 3-1 4h1l1 1c-2 1 0 3 0 5h-4l2 1-1 1h-4l1-1h-1c-2 1-1-1-4 1l-1-1h-2 1l-2-2-1 2h-1l-3-2c-2-1-1 1-2 1h-2V9c-1 1-1-1-2 1l-2-2v2l-2-1V8c-1 0-2-1-2 1h-3V6l-1 2-1-2c0 2 2 2 1 3s-1-1-2-1l1 1-1 2-1-3h-1v2c-3-1 0-3 0-5l-1-2c-1-1-2 0-2 1V1l-2 2 3 3-1 1c1 0 2 0 1 1h-1V7l-1 3V9v1c1 2 0 2-1 1v-1l1 1c0-1-1-2-3-2l-1-2v3l-2-1h-1V8v2l-1-2-1-1c1 1-2 5-3 3v2l-1-3 1 1 1-1V7l-3 1h-1V7c2 1 1-1 0 0v1l-3-1 1 2c1-2 2 1 4-1l-4 4h-2l2-1h-4l1 2h-2v-1c2 1 1-1 0 0l-2 1v-1c-2 1-1-2-3-2h-2v1c1 0 3-1 2 1h-8v-1l-7 1v-1c-2 0 0 3-4 0l-1 1-1-3v2h-2l1-2h-2 1v1h-1v1c-1-3-4-1-3-3h-1l-4-2v2c-2 1-2-2-3-2l1 1c0 2-1 3-2 2h-4V8h2-3 1c-1 1 0 2 1 3l-2 1-1-1-4 1h-1 1-2v1-1h-3 1l-1 1v-1h-1l-1 1v1h-1v-2h1-1c3-3 3-2 1-5v1h-1v2h-2V9h2c-2-1-4 1-4-2-2 0-1 2 0 2l-1 1-1-2-1 1V7c-1 0-2 1-1 3l-1 2c-1-1 0-4-2-4v2c-1-1-2-1-2-3h-1c1 3 3 3 4 5l-2-1h-2v1l-5-1 1 1h-4 1l-1 1v-1h-9v1h-1v-1h-1s-1 0 0 0v1h-2l-2 1c0-1 2 0 1-1l-3-1h-3v1l-1-1 2-1h-7l1 1v1h-3v-1h1l1-1h-3c0-2 3 1 3-3-2 4-3-1-4 2l2 2h-2l-1 1v-1l1-1-1 1-3-2h-2c-2 0 0 0 0 0l-2-3v1l-1 2c-1-2-2-3-2-1l-3-1-1 1 2 1h1l-1 1 1 1-2 1h-2v-1l1-1 1 1-2-3h-2l-1-2v2h-1V7v1h-3V7l-2 1 1 1V8v1h1l-1 1 1 1V9h3v1l1-1c1 2 2 0 3 1v2h-2v1h-1v1-1h-1l1-1h-3c2 1 1 0 0 2v-1h-3l1 1-1-1h-4c1 1 0 1-1 1l1-1c-1 0-4 1-2-1h-9c-2 0-5 2-5 0-4 2-6 1-9 1 1 2-5 0-5 0l-4 1-1 2s-3-1-2 1l-1-4 2 1c0-2-2-1-3-1v-1l-3 1h-1l2 2c-1 1-2 1 0 1v1h-1l2 2-1-1c-1 0-2-3-4-2l-2-2 1-1h-3l-2 1 1 1 1 2h1c0 1 1-1 1 1l-3-1v1-2h-2v-1l-1 2-2 1 1-1c-1-1 1-2 2-2v1h1c-1-2 0-2 1-3h-3c-1-2-2-1-2 1l-2-1-1-1c-1 1 0 5-2 3h1v-1l-1 1-1-1 1 2c-2 0-3 0-3-2l1-2-1 2v-3c-2 0-2 1-2 2l-2-1v1l-1 1-1-1h-1l-1 1c-1 1-2-1-3 1v-1h-4c-1-1 1 0 1-1h-3l2-2h-1l-1 3h-1v-3l-1 2h-1v-2l-2 1v1l-1-2v2l-2-1 1 2 1-1h1l1 3c-2 1-3 0-1-2l-1 1h-2v-1l-1 1h-1l1-3v-1l-1 1c-6 15-12 35-19 50l-1 3-1-1 1 1c-3 0 0-2-4-1v-1h-3c0-2-2-1-3-3 0 3-5 2-5-1-2 2-9-1-12-2l3-1 1-1h-3l-2-1c0-1 1-1-1-2 0 2-2 2-4 2v-1h-2c-2 2-4-3-7-1l-1-1 1-1h-3l1 1h-1c-1 0-5-1-7-3v1l-4-3 1-2h-1l-1 3-2-1h1-1l1-3c-1 0-2 0-1-2l-1 1h-2l1 1c-3 2-8 1-7-3-2 1-1 2-1 3l-3-2v-2h-2v1c-1 0-3 0-2-2h-3 3v-1h-3l-2-4c1 1 3 0 2 2 2-1 0-1 1-2 2 0 2-1 1-2v1l-1-2h-3v-1h2c-2-2-2 1-4 2l-1-3v2h-1v1c-2-2 0-3-2-4l1-1c2 2 3 1 1-1 5-1 2-3 0-2l1 1-2 1-1-1 1-1c-2 1 1 2-2 2l1 2-1 2h1l-1 1v-2l-2-3-2-1h1v-1h1l-2-1-2 4v-4l-2 2 1 2h2l-1 1v1h1v-1l1 1h-1v3l2-1-2 1 2 1c1 2-1 0-2 2l-1-2-1-1h2l-1-1-1-2-1 2h-1v-2c-3-3-4 3-6-1h3l-1-1h3l-2-2-1 1v-1c-1 1-1 0-3-1h-2c-2 0-1-1 1-2-2-1-1-2 1-2l-1-1c1-1 3-1 2 1h1v1c-3-1-2 2 0 0l1-3v3l4-1-1-1c-2 0-2-2-3-3 0 2-1 1-2 2v-2l-1 1h-2v-1h-1v2-2l-1 1v1h-2l1-2c-2 2-3 0-1 0v-1c0-2-3-4-4 0h-1l-1-2c1 1 0 3-1 2l1-2h-1v1l-1 2v-3h-3v1h1v1l1 1h1v1l-1-1c0 1 1 2 2 1l1 1h1l-1 1c-1-1-4 0-4-3l-1 1c0-1 0-3-1-2 0 1-2-1-1 1h1l-1 3c0-3-3-1-4-3 2-3-1-1-1-3v-1l-1 2c0 1 0 3 2 1v1h-1l-4-2v2h-2l-2-4v3l-1-3-2 1v5l-2-1-1 1-2-2v1h-2l2-2c0 1 2 2 2 0l-1-1-3-1 2-1h-3v2h1c0 2-3-1-5-1l-1 3v-1c0-2-2-2-3-1 0-2-3-1-4-1l2 1 1 1h-1v1l-1 2-1-1 1-1h-2l-1-4-1 2c-1-3-3-2-3-5l-2 2c3 1 2 6 0 8h-1l1-1c0-3-3-1-4 0v-1h-1l-1-1 1-1-3-1c-2 1-1 2-4 1 3-2 7-4 0-4v2l-1 1h-1l2 1-1 2-1 1 1-1c-3-2 0-4-4-1l-1-1c-2 0-3 2-4-1l-1 2h-1l1 3c-2-1-2-3-3-2h-1l-2-2c-1 2 1 3 1 4l-1-2c-2-1-5 1-7-1v2h-2v2h-2l-1-1v1h-5v-2c1 0 1 2 2 1l-1-4c-1 2-3 7-5 3-1 1 0 4-2 2v1-1h-1c-1-1-1 0-1 1l-2-3-1 1h-2l-1-1-2 2-2-1c0 1 0 2 2 2l-3-1v1h-2v-3h1l-1-1c0 2-2 5-2 2l-4 2v-1l-1 1-2 1 1 1 1-1h1v4l-1-1-2-1 2 2-1 1-1-1v2h-1 3c0 2-3 1-4 1 0 2 3 1 3 4-2 0-2-2-3-2v3l-2-1 1-1c-2 1-1 4 0 2h2l-1 1c1 1 3 1 3-1 2 1 1 3-1 4l2 2-1 1v-1c-2-1-3-2-3 1l3 1v5l-3 2v1l-1-1h1c0-1-1-2-1 0v-1h-2l2 2-2-1h-1l1 1-2-1h-1c-1-2 1-1 2-1l-1-1c-2 0-2 0-3 2-2-2-2-2-4-1v1c1-1 2 0 2 1l-2-1c-2-1-6 1-5-2h-2l3-1-3-1 2-2-2 1v-2l-3 1 1-1-1-1c0-1 0-2 2-1l-1-1c2-2 2 2 3 1-1-3-2-1-2-5h-2l1 3h-1c-3 0-1 3-1 4-2 0-4-1-4 1-2 0-2-1-3-3-2 1-2-2-3-3v-1l2 2v-1l-2-1c4 0 2-4 0-3 1 2 0 3-2 3l2 3v-1c1 2 0 4-2 3l1 1c1 0 2 3 2 1 2 1 0 3-1 2h-1l1 1c-2 0-1-2-1-4l-1 1h-2v1l-1 1h-2v-2l-3 2h-2l1-1c-1-1-2 2-4 0v1c-1-1-2-3-2-1-1 0-2-3-4 0l-1-1c0-2-3-1-4 0v-1l-9-1h-1l-2 2v-1l-2 1-1-1c1 3-7-1-8 0-2 2-7 0-10 0-2 0-12 1-8-3l1 1c1-2-3-2-3-1h-1v-1l-2 2h2l-2 2-1-3v1h-1c1-1 0-2-1-2l-1 1 2 2-10 1v-2l-1-2v3l-1 1v-1h-1v1c-2 1-5-3-6 0v-1l-1 1c-1-1-3-2-4-1l2 1c-3 1-4-2-5-4 0 3 0 1 1 2 0 2-1 1-1 0v2l-1-1-1 1c-1-2-2 0-3-2l-6 1c0-2-2 0-3-1h-1v-1l-5 2-1-2 1-1h-2v-1c1 1-1 2-2 3 1-3 0-3-1-1l-3-1h-2c1 3 2 1 3 2-1 1-4 1-4-2l-3 3c-1-2-5-1-4-3l-2 1c3 1 0 3-1 0l2-1-1-1-1 1-1-1-1 2v-1l-2-1v1h-1l2 1v1l-3-1c0-2-2-2-3 0 4 3-3 0-1-3-2 1-2 0-2-1l-1 1h-1l-2 2v-1s-2 2-3 1l2-2c1 3 3-3 0-2 1 1 0 2-2 1v2c-1-1 1-2 1-3v-3l-1 1h-2c-1 1 0 2-3 3v-1h-1l1 1-2 2h-1c-1 1-2 1-3-1l2-2h1v-1l-2 2c-1-2-4-1-3-3h-2l-1-1-3 1v1l-6 2-1-1c1 2-1 2 1 3 0 2-1 1-3 2l-1-1-9 1-1-3-1 2c-1-1-4 2-7-1h1-4 1-4l-6 1v-1c-1 2-3 0-4 0h-3c-4 2-6-1-9 0l1-1c-3 2-5 0-8 1l-1 1c0-3 0 0-2 0l1-1c-2 0-6 2-8 0h-8c-1-3-7 1-10-1l-4-3c-1 0 0 0 0 0l-2 1h-1v2h-1l-2-3v3h1-2s1-1 0 0v-1c-1 2-3 1-4 0 1-1 2 1 3 1 0-2-2-4-4-4l1 2-6 1c-3 4-8 0-11 0l-7-1c-1-1-4-5-2-6l-1-1-1 2h-1v1h2v5l-1-2-2-1 1-1c-2 2-2 0-3-1-2 0 1 2 0 3l-2-1v1l1-1-1 1h2l-2 1v-1l-1 1-2-1 1 1h-8l-2 1v-2h1l-2-1c-1 3-2 1-4 3l-1-1h-4 1-9l1-2h-1c-1 0-1 2-3 2 1-1-1-3-1-3v2c-3 0-7 2-11 1l1-1-11 1v-1l-2 1h-2c0-2 0-1-1 0l-2-1-2-3c-3-1-3 1-4 3-2-1-3 1-5 1l1-1-2-2 1-2c-2 1-6-1-6-2l2 1v-1c-4 0-4-6-8-8v1-1l-4-1v1c-4 0-1-2-4-2 1 2-1 2-2 1l-1 1h-3v-1h-1c-1 1-1-1 0 0v-2c-2 0-3 1-4 3-1 0-2 0-1-1l-2 2c-1-2-4-1-6-1l-1-2v2l-5-1h-1c-1 1-1-1-2-1l-1 1h-3v-2h-2l-3 2-2-1 1-2c-3 1-2-1-4-1 0 4-5 1-3 0h-1c-2 3-1 1 0 4-1 1-3 0-3-1l-2 2c-2 0-4-4-4-5l1-4-1 1h1c-1 2-3 1-2-1-2 1 1 2-1 2l1 2-1 1c-3 0-3-2-5-2v-1c-2 0-1-1 1-1h-3V9h-2l-1 3h2l-1 3h-3c1-2 2-1 2-4h-3V8c-2 0-1 2-2 3l2 1c0 1-2-1-2 3-3 1-3-2-5-2l1 1-1 2 1-1c4 3-3 3-5 2h-4c-2-1-2-2-5-1 0-2-2-2-2 0l-3-1 1-1-2-1h-2l-3-1c0 1 4 5 1 5h-1v-5h-1v1h-2l-1 2V9l-6 7h1c-1 1-2 2-3 0h1l-1-3h-1l1 2c-1 0-1-5-3-6l-1 1c0 2 1 2 3 3v2l-1 2c-3 0-7 1-6-3v-1l-1-1h-1v-1h1V8c-2 0-2 1-3 2 3 1-2 6-4 4l-2-2-1 1h1c-1 2 0 2-2 3 0-2-1-2-2-2h-2v-1l-1-2c4 0 0 3 7 1v-2c3 2 2 3 6 1-2-2-5 2-4-1l-3-3c-1 2-2 2-3 0l1-1-2 1h-2l-1 2V5l-1 2-4-1-2 2 1 2-2-1 1-1c-2 1-2 2-3 1v1-1h1c-3-6-4 3-2 2v1c-1 1-2-2-3 1-2-1-4 0-4-2V9v1l1-1-1-2h-3l2 1c0 3 0 5 2 7-2 4-6 2-3-2 1-1-1-3-2-1v-1h-2l-1 1c1 1-2 2-2 1l2-1-2 1h-2 1l-1 1-2-2c-1 0-2 0-2 2-2 0-2 1-2 2h-1 1l-2-1h-1l-5-1 2 1h-2v1l-1-2-1-1h-1v3c-2 0-4 0-4-2l2 1c-1-1-4-1-1-2l-2-3c0 2-2 3 0 4v1l-1-1h-1l1 1h-2l1 1c-3-2-13 3-12 0l-1 1v-1h1l-1-2-1 1v2l-1 1v-1l-2 1c0-2 0-2-2-2l-2 2h1-1c0-1 0-3-2-4l3-1h-1v2c1-1 0-2 2-1-1-2-2-1-3-2 1 1-1 2-1 2h-2l1 1 2 1-2-1-1 2-1-1-1 1c1 2-3 2-4 3 0-2 1-1 2-2v1h1l-1-3h-2l-1 3-2-1v-3h-2l-1 2-1-1c0 2-3 2-2 4h2l-11 2 1-1-1-1h3l-4-2 1 1-2 1c1 1 0 2-1 2l-9 1v-1h2l-2-2-1 1c0 1 1 2-1 2v1h-1l-1-1 1 1h-8l2-3h-2l-2 3c1 2-11 1-12 2l2-1h-1l-3-3c0 2 3 2 0 3h1c-1 2-6 2-9 3h-11c1 2-3 0-4 0h1v-1h-2l-1-2c0 1 0 2 2 3-1 2-3 0-5 2 0-2 0-2-2-2h-1v1l-2-1 1 2c-2 0-3 1-4-1h2l-1-1h2v-1l-2 1c-3-3-4-1-6 1h-1l1-1v-2c-1 1-2 0-2-1h-2l1 1h1l-1 3c-2 0-1-1-1-2l-2 2c1 1 1 2 3 2l-3 1 1-2h-1v1l-1-1v1c2 2-2 3-2-1l-2 2v-3c-2 0-3 1-3 3l-1-1h1c-1-2-4-4 0-4 0-2-3-2-2-5l3 2v-1h-1 1v-1 1l1 2c2-1 0-2 0-3h-6l1 1-1-1 1-2-4 2 1 1v5l1-2 3-2v2l-1 1 1-1v2c-2 0-2 4-4 0-2 1 0 1-1 2 0 1-2 0-1-1-2 0 0 3 1 4h-1v1l-1-2v2c-3-2-2-6-5 0h2l-2 2v-1h-3v-1h-1 1l-2-2c-2 0-3 1-4-1l-2 2-1-1c0 2 1 2 2 3l2-1-2 1h-3l-1 1c-2-1-2-2-2-4v1-2 3l-1 1c-2-1-3-4-5-1l-1-2c-1 1 0 4-2 2h-1l1 1v3l-1-2v1l-1-1v2c-3 1-3 0-4-2h-2v-1l-1 4c-5-2 0-3-8-3-1 3-2-1-3 2v1-1h-1v2l-2-3v2l-3-1v2c-1 0-2 0 0 0 0-2-1-2-2-1l-5-1h-1l1 2-1-1h-1l-1 3-1-1-1 2v-3h-1v2l-1-2-3 2 1-2h-1v1c-1 0-1-1-2 1l-4-2v1h2c1 3-4 4-4 2h2-1v-2h-2l-1 2h-1l1-1c-1-2-2 1-3 1v-1l-3-1 1 1v1l1 1c-2-2-2 1-4-1l-1 1c0 1-2 0-1-1h-1c-2 0 0 2 0 3h-2v-1 1h-4l-3 1v-3 3h-2l1 1s-6 1-7-1h-1v1-1l-1 1v-1 1l-2-1v2l-2-2 1 2h-2v-1c-4 3-1 0-3 0v1h-2l-1 1c-6 1-2-3-5-2v-2c-2 1 0 2 1 4v1h-1v-1h-1l-1 1h-1v-1c-1 0-3 3-3 0-3 0-5 4-6 1h-1v1h1l-5-1v2h-2v-1l-3-1 1 2v1h-2l-1-1v1h-2 1c-3-1-6 1-6-1l-1 2c-2 0-5-1-4 1h-1l1-1h-6v1h-1c-6-1-15 5-14-4l-1-10-1-1c-1-4 0-3 2-5h-4l1-4 1 1 2-2-3-2h2c-1-2-3-1-4-1l3-2v1c1-2 1-3 4-2l-1-1h-2v-2 1l-1 2c-1 0-2 0-1 1l-2-1 1-2c-3 0 2-5-2-4v-2l1 1c-1-2-3-2-2-5l2 2-1-1h1l-1-1-2 1 2-2-1-1v1l-1-1c-1 1-2 2-2 0h-3l1 1c-3 1-11 1-11-1-1 1-3 2-4 0l-6 1h-1l-3-1 1 1h-6l1-1c-5 1-13 2-17 0l-1 1h-13v-1h-1v1l-3-2 1 1h-1l-5 1 2-4c1-1 1-4-1-4V0v1l-1-1h1618Zm-194 13v-1 1Zm194-13h61v11s-3 2-3 0c-1 1-3 2-4 0l-6 1h-1l-3-1 1 1h-6l1-1c-5 1-13 2-17 0l-1 1h-13v-1h-1v1l-3-2 1 1h-1l-5 1 2-4c1-1 1-4-1-4V0v1l-1-1Zm-472 15 1-1-1 1Zm-311 22h1-1ZM622 20l1-1c1-1 3 0 3 1h-1l-1 1 1-1h-3ZM366 52v-2 2Zm329-41 1-1-1 1Zm402 22h1-1Zm-573-2-1-1 1 1Zm958 11h1-1Zm-23-19v1-1Zm216-11v1-1Zm59-1h1v2l-2-1h-1l2-1Zm0 0h-1 1Zm-292 18 1 1h1c-3 2 2 1 3 0v2c2-1 1 2 3 1v1l-3-1-5-1-2-1 2-2ZM54 12l2-1-1 1v1c1 0 1-1 1 1h-2v-2Zm4 1v-1h1v1l1 1h1-1c-1 1-2 0-2-1Zm53-1h1-1v1-1Zm28 0v-2h3v1h2l-1 1v2l-4-2Zm5 0 1-1h1l2 2-3 1 1-1h-2v-1Zm-91-1h1l-1 1v-1Zm1-2h1-1Zm1 2v1-1Zm11-1h1-1Zm1212 33v3h-3c1-1 1-3 3-3Zm-14 0c0 1 0 3-2 3l1-1c0-1-1-1 1-2Zm7 2h-1 1Zm-1-1h2v1l-2-1Zm-170-8-1 1v-1h1Zm-7-2-1 3-1-1 2-2Zm360 0c0 1-2 2-2 0h2Zm0-5c2 1 2 2 1 4l-1-4Zm-918 0c0 2 2 2 2 3h-2v-3Zm-1 0-1 2c-2 0-1-2 1-2Zm895-8h-1l4 2-1 1 2 2h-1v1l-1-1c-4 1-2 0-2-2-2 0 0-2 0-2h-2l2-1Zm-819 0v1l-1-1h1Zm816-2v3l-1-1-1 1 1-2h-1l1-1 1 1v-1Zm5-1v1h-1l1 2c-4 0-2-2 0-3Zm-9 1-1 1v-1h1Zm-79-2 1 3c-3-1-3 1-5-1 1-2 3 0 4-2Zm74 1v1h-1 1v1c-3 0-3-3 0-2Zm-63 0c0 2 1 0 1 1h-2l1-1Zm3-1 1 2-2-1 1-1Zm52-1c1 2-1 3-3 2 1-1 2 0 3-2Zm-45 1 1 2-1-2Zm9 0 1 1h-2l1-1Zm15 0-2 1 2-1Zm-5 0v1l-2-1h2Zm-661-2h1l1 2c-2 0-2 0-2-2Zm-4-1-1 3c0-1 0 0 0 0v-1l1-2Zm-9 0h2c-1 2 2 2 2 3-2 0-5 1-4-3Zm680 2h1v1h-1v-1Zm-10-1c1 1 2 1 0 2v-2Zm-674-1c2 3-2 2-3 2v1h-4l1-2 6-1Zm-20 0 2 2c0 2-2 0-3 0h1v-2Zm-21 2v1-1Zm758 0 1-1v1l-1 1v-1Zm-16-1v1h-1l1-1Zm182-1v2l-1-1 1-1Zm-157 0v2c-1-1-2-1 0-2Zm-743 1c1-1 1 0 1 1l-1-1ZM74 14v1-1Zm-12 0v1-1Zm1509 0 2 1-2-1ZM76 14h1l-1 1v-1Zm612-1c0 1 1 1-1 1l1-1Zm-582 1h1-1Zm-31 0h-1 1Zm-17-1v1h-1l1-1Zm638 0h1c0 2-3 0-1 0ZM82 14h1-1Zm31-1c0 1 1 1-1 1l1-1Zm-8 0v1h-1l1-1Zm-80 0v1-1Zm175-1 1 2-1-2Zm-83 1-2 1 2-1Zm590-1-2 2c0-2 0-2 2-2Zm-593 1v1-1Zm90 0h-2c0-2 0-1 2 0ZM26 13h1-1Zm663-1h1c-1 0-1 2-2 1l1-1Zm-578 1h1-1Zm-48 0s1 0 0 0Zm182-1v1l-1-1h1Zm1427 0 2-1-1 1v1c1 0 1-1 1 1h-2v-2Zm4 1v-1h1v1l1 1h1-1c-1 1-2 0-2-1Zm53-1h1-1v1-1Zm28 0v-2h3v1h2l-1 1v2l-4-2Zm5 0 1-1h1v1l2 1-3 1 1-1h-2v-1Zm-89-1v1-1Zm-1-2h1-1Zm-1 2h1l-1 1v-1Zm13-1h1-1Zm8 4v1-1Zm-12 0v1-1Zm14 0h1l-1 1v-1Zm30 0h1-1Zm-31 0h-1 1Zm-17-1v1h-1l1-1Zm24 1h1-1Zm31-1c0 1 1 1-1 1l1-1Zm-8 0v1h-1l1-1Zm-80 0v1-1Zm175-1 1 2-1-2Zm-83 1-2 1 2-1Zm-3 0v1-1Zm90 0h-2c0-2 0-1 2 0Zm-178 0h1-1Zm85 0h1-1Zm-48 0s1 0 0 0Zm182-1v1l-1-1h1Z" />
  <path id="button" fill="#ff0209" fill-rule="nonzero"
    d="M1354.9 223.2V222h-.6v2.2l-1-2.2c-1.2 0-1.2.6-1.2 1.7v3.8h-2.7l.5-1.7.6 1c0-1 1.6-2.1 0-3.1v.5l-1.1-1h-.6l-1-1.2h-.6v-1l.6 1c0-.5 1-1.6 2-1.6l1.2 1v-7c0-1 0-2 .6-2.8v-.5 1h1v-6c0-1 0-1.6-1-1.6l1-5.4a7.8 7.8 0 0 1 2.3 5.4l.5-2.2c.6-1-1-1.6-1-2.7h-1.7v-3.8l-1.7 1-1-1v-.7h-2.2c-1.1 1.2.5 1.8-1.1 2.9 0-1.7-1.7-2.8 0-4.5v-1l-.6.5v-5.5l-.5-.6c1-1 1.6-2 1-3.8-1 .6-1.6 1.1-1.6 2.2l-.5 2.7h-.6v-1l-1-1.7h.5v-6c1 0 1.6-.5 1-1-1-1.2 0-1.7 0-2.8 1.2.5 1.7 1 1.2 1.6-1.1 1.1.5 2.7 0 4.4v.5h1c0-2.2 0-3.8 1.7-5.4l.5-1h-1v-2.3h1.6c-1.1-.6-1.6-1-1.6-2.7.5-1 .5-3.3-1.1-4.4l1-1.7.6-2.7c1 1.5 1.4 2.6 1 3.3-1 2.7 0 5.5 1 7.6h1.8c0-2-1-3.8 0-6v-10.3c.6-1.7-1-3.9 0-5.5.6 0 0-.6 0-1l-.5-1.7h2.2c-1.7-1-2.8-1.7-2.8-2.8 1.8 0 2.8-.7 2.8-2.2v-1.6l-.6-3.3-1-2.2h1.6c.5-1.6-1.7-3.2 0-5.4v2.7l.5-4.4c0-2.1 1-4.3-1-6.5v-.6l1-5v-1l-.5-7.6V105h1c-.5-1.6 0-3.8-1-5.5-.6 0 0-1.6 0-2.2l.5-1-1-3.3v-1.1l.5-3.3c0-.5 0-1.6 1-1.6v-1.1c-1.6 0-1-.6-2.1-1.1h2.2V83c-.6.6-.6 0-.6 0l-1-7 1-1.7v-.5l1-4.4h-1c1-1.1 1.7-3.3 1.7-3.8-.6.5-1.1 1.6-3.3 1.6l3.3-5-1.1-1h-1.7v-1.7l2.8-.6-.6-2.2-2.2 1.1c-2.2-1.6 1-3.3 0-5-1.1-.6-1.3-1.7-.5-3.2l.5.6c1-.6 1 0 1 0l1.8.5-.6-2.2V46c0-1.6-1-3.3 0-4.4 0-1.6 0-2.7-1.6-3.8h-2.2l-.6 1-1.6-3.2.5-2.7v-5l1.7-.5v2.2l1.6.5.6 2.8h1v-6.6c0-1 0-2.2-1-2.7v5h-.6v-7.7l-1-1.7v-1.6l-.6-1.7h-.6l-.5-1v-1h-.6V13l-3.2-2.7c1.6 0 2.7 1.6 3.8 2.7v-1.6l-2.2-2.2h-.5l-1.1-.6c-2.8-1-3.3-1.6-4-2.7h-1l-1-.5-1.1-1.1c-1-.5-1.8-.9-2.8-1.1h-3.2l-1.7-.6h-4.4 4.4l.6.6h.5l1 .5h-2.6l-1.7-.5h-3.3 1.7l1 .5h1.2c3.5.6 7 1.5 10.4 2.8l-1.7 1h-.5l-3.3-1h2.2l1 .5h-.5c-.5-.4-1-.8-1.6-1h-1.7l-1-.6h-1.1l-.6-.6h-2.2 1l.7.6h-3.3.5-3.8l-1 .5h-2.3 3.3l-2.2-.5h-.5l-.6-1.1h2.2l-1.6-.6h-20.8l-2.7-.5h-1.1 2.7-15.3l-9.3-.6c3.3-1 6.6-1 9.9-1h-9.3v1h-7.1l2.2.6-2.2 1h-1.1 1l-.5 1.2c1.7 0 3.3-.6 4.4 0-2.7 0-5 1-7.6.5h-4 2.3-18.6l3.3.6 5.5.5h-1.7l-2.7 1-.5-.5h-10.5l-2.2-.5h-5l2.3-.5h10.4-1.1V6c-3.3 0-6.6 0-10-1h-2.6 1.6l-5 .5V4.4l-5.3 1h-11l-4.3-.5h6.5c4.4 0 9.3 0 13.7-1h1l-1.6-1.2h-29.4c-3.8 0-7.6 1.1-10.9 0h-1.6l-3.9.6-.5-1.1c-1.7.5-1.7 1.6-3.8 1.6-.7-1-2.4-1.6-5-1.6h-8.2l-5.4.5h.5l.6-.5c-3.3 0-6.6 1-11 0h5-8.2c-3.9 0-8.2-1.1-12 0h-35v-.6l-9.8.6H1067l-3.8-1.1h-1.6l-2.8 1c0-.5 0-1-1-1h-2.2l-13 .5h-4l-7.6-1-1 .5-6.7-.6c1.7 0 3.3 0 3.3 1.7l-2.7-.6-6.6-1-1.6.5v1h-3.3l-1.6-1.6h-3.3l2.2 1.1c-3.9 1.7-6.6 0-9.9 0-1.4.7-3.5 1-6.5.6h1.6c-1.6-.6.6-.6.6-1.1l.5-.6h-17.5c-3.2 0-5.4 0-7 1.1v1.1h2.1c-4 1-8 1.3-12 1.1h-8.2l-.5-1h2.7l1-.6 5-.6v-.4h-13 3.7l3.3.5h-5l-7 .6H932l-1.5-1.2H925c-1.6-1.1-3.3-1.1-6.6 0h-2.2 4.4l-5 .5 2.8.6h7.7v2.2h-2.7l2-.6H919h1.6-2.2l.6 1.1h-2.2l-1.1.6H914h2c-1.5-.6-2.6-.6-2.6-1.7h1H903l-6-.5h-.5 2.2v-.6h-24c2.7-1 6-1 9.8-1l-4-.6-5.3.5-.6 1.1h-7l2 .6-1.5.5h-1.7 1v1.7h4c-2.8 0-5 1-7.7.5h-3.3 1.7-18l3.2.6h5.5v.5h-1.7l-3.2 1v-.5h-11c0-.5-1.6-1-2.2-.5h-5c1.2-.5 2.3-1 2.9-.5h9.8V6h-1.1c-3.3 0-6.6 0-9.3-1h-2.6 1-4.8v-.6c-1.1.5-2.2 1-5 .5l-8.2.6h-3.8l-3.8-.6 5.5-.5 14.2-.6h1l-1.6-1h-29.5c-3.8 0-7.6 1-11 0H778l-.6-.6-3.8 1.6c-.4-1-1.9-1.6-4.4-1.6h-8.8l-5.4.5h1v-.5c-3.2-.6-6.5 1-11 0h5-8.1c-4 0-8.2-1.1-12 0h-34V1.1h-10.3c-.6.5-2.7 0-4.4 0h-1.6l-5.5.5h-8.7l-3.3-.5h-1.6c0 .5-1.7 0-2.8 1l-.5-1h-2.8l-13.2.5h-2.7l-.5-.5h-9.3c-1.7 0-5.5-1.1-7-.6 1.5 0 3.2 0 3.7 1.7l-3.3-.6-6-1H614v1h-3.3L609.2 0l-3.3.5 2.2 1.1c-3.8 1.7-6.5 0-9.8 0-1.5.7-3.5.7-6 0h1.6c-1.6 0 0 0 0-.5l.6-.6H577l-7 .6v1.6h2.1c-4 .8-8 1-12 .6h-7.7l-1-.6h2.6l1.7-1h4.3v-.6h-6.5c-2.2.5-5 0-6 1h6.5-12l-3.3.6h-8.2l4.4-.5c-1.8-.5-3.7-.5-5.5 0l-3.8-.6h-2c-1-1-3.3-1-6 0h-2.8 4.4-4.4c0 1.1 1.6 1.1 2.7 1.1h7.7v1.1H522h2.7c-2.2 0-4.3-1-7 0h1.6-2.2l1 .6-2.7.5h-2.8 2.2c-1 0-2.7 0-2.7-1h1.6l-2.7-.6h-16 2.8v-.6h-24.6c2.7-1 6.5-1 9.8-1l-3.8-.6-5.5.5-.5.6h-7l2.1 1-1.7.6h-1 .5v1.7h3.8c-2.7 0-4.4 1-7 0H459l1.6.5H442l4 .6h5.3v.5h-1.6l-3.3.5h-11c.7-1-1-1-1.5-.5h-5.3l2.7-1c2.6 1 5.4 0 8.1 0h1.6-1 .5c-3.3 0-6.6 0-9.7-1.2H428h1-4.3v-.5l-5.4.5-8.2.6h-3.5l-4.4-.6c3.9-1 4.4-1 6-.5l14.3-.6h.5l-1-1h-46l-1-.6c-1.2 0-1.7 1-4 1 0-1-.5-1-4.3-1H359l-5 .5 1.2-1c-4 0-6.6 1-11 0h4.4-64c-1 .5-3.2 0-4.3 0h-7.6l-2.8.5h-6c-1 0-2.7 0-3.3-1.1H259c.5 1-1.6 1-2.2 1.6l-1-1.6h-1.2l-14.2.5h-13l-7.2-1 3.8 1.6h-2.7l-6.6-1.1h-2.1v1h-2.8c-1 0-1-1-1.6-1.6l-3.3.6 1.7 1c-3.3 1.2-6 0-9.3 0-2.2 1.2-2.8 1.2-6.6 0h1.7c-1.7 0 0 0 0-.5l1-.5H176l-7.1.5v1.1l1.6.6c-3.8.7-7.6.8-11.5.5h-8.2l-1-.5h3.2l1.1-1.1h5V1.1h-6.5c-2.2.5-5.5 0-6.6 1h7.1-15.8v.6h-8.2l4.3-.5c-1.8-.4-3.6-.4-5.4 0-2.2 0-3.3 0-3.8-1.1h-11l5 .5h-5.6c1 1.1 2.2 1.1 3.3 1.1h7.6v1.1l-3.3-.5h2.8c-2.2-.6-4.4-1.1-7 0h1.5-2.2l1.1.5-2.7.6h-2 2.1c-1.7 0-3.3 0-3.3-1.1l1.6-.6H94.7l-1-.5h2.6-24.7l10-1.7h-9.2v1.1h-7.8l2.2 1.1-1.6.6h-1 1l-.6.9 4.4.6c-2.8 0-5.5 1.1-7.7 0h-3.2 1.5l-3.8.6H52c-1.8-.2-3.6-.2-5.4 0h-11 6l7.7 1h-2.2l-3.8.6h-7.6.5-5.5l-2.2 1c0-.5 0-1-1-.5h-2.9l-1 1.1h-2.8l-1 .6.5-.6h.5v-.4c4.4-.6 6.6-2.2 11-2.2H34h-1.6v-.5H29l-9.8 1.6-3.3 1h2.2-.6l-1 .6-1.2 1.1h-1V12l-1.7-.5v.5l-.5.6-1 2.2-1.2 1v.6l-1 1v2.3l.4 1.6V23l-1 1.7V28c-.7-1-1.2-2.2-1.7-3.3v-3.4l.5-1.6v-1l1.1-1.8.6-2.7v-.5h.5L10 12l.5-1h-1l-1.2.5v.5l-1 .6v.5C6 14.1 6 14.7 6 15.7l-.5.6v1H5v2l-.6.5v1L4 22v12c-.6 1.6 1.6 3.8 0 5.4v1.1l.5 2.2h-2c1.5.6 2.5 1.1 3 2.3-1.8 0-2.7.8-2.7 2.2v4.4l1 2.1H2.4c-.5 1.7 2.2 3.3 0 5.5V57l-.6 4.3c0 1.6-1 4.5 1 6v1l-1 4.6v1.5l.5 8.2v2.8h-1c1 2.2 0 3.9 1 5.5v2.7l-.5.6 1 3.2v4.4c-.5 1 0 1.7-1.6 1.7v1c1.7 0 1.1.6 2.2 1.7H1.2v1h.6l1 7.7-1 1v.7l-1.2 4.3 1 .6c-1 .5-1.6 2.7-1.6 3.8.6-1 1.1-2.2 3.3-2.2L0 128l1.1 1h2.2v1.7l-2.7 1 .5 1.7 2.2-1c2.2 2.1-.5 3.2 0 5.4 1.2.7 1.4 1.8.6 3.3l-.6-1c-1 1-.5 0-1 0H1.1v4.2c0 1.1 1.1 2.8 0 4 0 1.5 0 2.6 1.7 3.7H5l.5-1 1.6 3.2-.5 3.2v4l-1.6.4v-1.5H3.4v-3H1.8v3.3c.5 1.1-1 2.8 1 3.3v-2.2l.6-1.6c0 1 1.1 2.2.6 2.7v6h1l-.5 2.2v2.2h-.9l-.6-2.7c-1.7 1-1.7 2.1-1 3.2 1 1.1 0 1.7 0 1.7v1C-.5 177.8-.5 179 .5 180v2.2h1v-2.8l.6 2.7c1.7 0 1.7-.5 1.7-1.6l-.6-3.8h3.3l-1 1.6v-1c-.5 1-1.6 2.1 0 3.2v-.6L6 181l1.1-.5 1.1 1v2.3-2.2c-.5.5-1 1.6-2.2 1.6l-1-1v7c0 1-.4 2-1 2.8v.5-1 2.7l-.7 3.9c0 1 0 1.6 1.1 1.6 0 2.2-1.6 3.3-1.6 5.5l-1.7-5.5-1 2.2c0 1 1.6 1.6 1.6 2.7h1v3.9c1.2 0 1.7-.6 1.7-1.1l1.6 1v.6h3c.5-1-1-2.2 1-2.7 0 1.6 1.7 2.7 0 4.3v1.7l.6-.6v5.5l-1 3.3c1 0 2.1-.6 2.1-1.7l.6-2.7h.5v.5l1.1 1.7h-.5v6c-1 0-1.7.5-1 1 1 1.2 0 1.7 0 2.8-1.2-.5-1.8-1-1.2-1.6 1-1.1-.6-2.7-.6-4.4v-.5H9c0 2.2 0 3.8-1 5.4l-.7 1H9v2.3H7.2c1.1.6 1.7 1 1.1 2.7 0 1 0 3.3 1.1 4.4l-.5 1.6-1 2.2c-.8-1.5-1-2.5-.7-3.2.6-2.2 0-5-1-7.1H3.3c0 2 1.7 3.8.6 5.4v11c-1 1.6 1 3.8-.6 5.4v1l1.1 1.7h-2c1 1.1 2.7 1.1 2.7 2.8-1.8 0-2.8.7-2.8 2.2v4.9l1.7 2.2H1.8v2.1l.5 1.1.6 2.8v2.7l-.6-4.4-.5 5.5v2.2l1 2.2.6 1.6.6 1.1 5.4 3.8h1.2v.6h1l2.2 1.6 2.2 1.1 5.4 2.2h2.2l1.1.5h3l1.5.6h29v.5H68c1-.5 3.3 0 4.4 0H74l6-.5h8.2l3.8.5h1.6c-.6-.5 1 0 2.1-1l1.1 1h2.8l13-.5h2.8l.6.5h9.3c1.6 0 5.4 1.1 6.5.6-1 0-3.3 0-3.3-1h2.8l6.5 1h2.2v-1h2.7c1.1 0 1.1 1 1.7 1.5l3.3-.5-1.7-1c3.3-1.2 6 0 9.3 0 2.2-1.2 2.7-1.2 6.6 0h-1.7c1.7 0 0 0 0 .4l-1 .6h17.4l7.1-.6v-1.6h-1.6c3.8-.7 7.6-.9 11.4-.6h8.2l1.1.6h-3.2l-1.1 1h-5v1.2h6.6c2.2-.6 5.5 0 6.6-1H200h12.6l3.2-.7h8.2l-4.3.6h5.4l3.9.5h1.6c1.6 1.1 3.8 1.1 6.5 0h2.8-5 5.5c-1-1-2.2-1-3.3-1h-7.6V293h3.3-2.8c2.2 0 4.4 1.1 7 0h-1.5 2.2l-1.1-.5 2.7-.6h2.2-2.2c1.7 0 3.3 0 2.8 1.1H241l2.2.6h16.3-2.7v.5h24.7c-3.3 1.1-6.6 1.1-9.8 1.1l3.8.6 5.5-.6v-.5h7.6l-2.7-1 2.2-.7h1-1l.5-1.6c-1.6 0-3.3.5-4.4 0 2.8 0 5.5-1 7.7 0h3.8l-2.7-.5h18.5c-1-.6-2.2-.8-3.3-.6h-5.5v-.5h1.6l2.8-.6h11c0 1.1 1.5 1.1 2 .6h5l-2.2 1c-3.3-1-5.4 0-8.2 0h-2.2 1c3.4 0 6.7 0 10 1.1h2.7-1.6 4.9v.6l5.4-.6 7-1h4l4.3.5c-2.9.7-4.9.9-6 .5l-14.2.6h-1l1.6 1h45.9l.5.6c1.7 0 1.7-1 4.4-1 0 .7 1.4 1 4.4 1h8.7l4.4-.5-.6 1c3.3 0 6.6-1 11 0h-5 65c1-.5 2.7 0 4.3 0h7.1l3.3-.5h5.5c1.6 0 3.2 0 3.2 1.1h1.7c0-1 1.6-1 2.7-1.6 0 .5 0 1 1.1 1.6h1.6c-1-.5 0-.5.6-.5h26.2l6.6 1c-1.7-.5-3.3-.5-3.3-1.6h2.7l6.6 1.1h1.6v-1h3.3c1 0 1 1 1.6 1.6l3.3-.6-2.2-1c3.8-1.2 6.6 0 10 0 1.3-.8 3.5-.8 6.4 0h-1.6c1.6 0-.6 0-.6.5l-.5.5H578l7-.5v-1l-2-.7c4-.7 8-.9 12-.5h8.1l.5.5H601l-1 1.1h-5v1.1h6.6c2.1-.5 5.4 0 6.5-1h-7H617v-.6h7.6l1.6 1h5.5c1.6 1.2 3.3 1.2 6.6 0l1 .6h1.1l-4.3-.5h5c-.7-1-1.7-1-2.8-1h-7.7v-.7l2.7.6h-2c2 .5 4.2 1 6.4 0H636h2.2l-.6-.6 2.2-.5h2.7-2.2c1.7 0 2.8 0 2.8 1l-1 .6H659l.5.6h-2.2 24c-2.7 1-6 1.6-9.8 1.6h9.8v-1h7.1l-2.2-1.2 1.7-.5h1.6-1v-1.2l-3.9-.6c2.7 0 5-1 7.7 0h3.2-1.6l7.6-.5h5.5l6 .5c-1-.8-2.5-1.2-3.8-1h-5.5v-.6h2.2l2.7-.5h11c0 1 1.6 1 2.2 1h4.9-2.8l-8.2.6H714h1v.5l9.4.6 2.7.5-1-.5h4.8v1c1-1 2.2-1 5-1h15.8c-2.5.7-4.4.9-5.5.5-5.4 0-9.8 0-14.2 1.1h-1l1.6.6h45.8l.5 1c1-1 1.7-1.6 3.8-1.6.4.8 1.9 1.1 4.4 1.1h14.3-1 10.9-5l8.2.6H896l2.8-.6.5 1.1h2.7l13.2-1 2.7.5h1.6l7.7.5h7.5c-1.6 0-3.2 0-3.7-1h3.3l6 1.6 2.1-.6v-1h3.3l1.6 1.6h3.3c-.6-1-1.7-1-2.2-1.7 3.8-1 6.5.6 9.8 0h6-1.6c1.6.6 0 .6 0 .6l-.6 1h10c2.1 0 5.3-1 7.5-.5l7.1-.5v-1l-2.2-.7c4-.5 8-.5 12 0h8.8-2.7l-1.7 1.1h-4.3v1.1h6.5c2.2 0 5 .6 6-.5h-6c1.7 0 2.7-1 5-.6h10.3v-.5h8.2l-4.4.5c1.7 1 3.7 1.2 5.5.6h6c1.1 1.6 3.3 1.6 6 .5h2.8-4.4l4.4-.5c0-1-1.7-1-2.8-1h-7.6v-1.2h3.3-2.8c2.2.5 4.4 1 7.1.5h-1.6l2.2-.5-1-.6h2.6l1.1-1v.5h1.6-2c1 0 2.6 0 2.6 1l-1 .6h11l5.3.6h1-2.7 15.3l9.3.5-9.8 1.1h9.3l.5-1h7.1l-2.2-1.2h1.7v-.5h1-.5v-1h-3.8c2.7 0 4.4-1.7 7.1-.7h3.8-1.6 9.8l1.1-.5h1.1l6.6.5a5.4 5.4 0 0 0-3.9-1h-5.4l.5-.6h17.5l5.5.6-2.8.5h-9.8 1.1l-.5.5c3.2 0 6.5 0 9.8 1.1h2.7l-1-.5h4.3v1l5.5-1h15.3l-6 1h-13.7l-1 .6 1 1.1c4 0 7.1-1 11 0h19c3.9 0 7.7-1 11 0h1.6l3.3-.5 1 1c1.2-.5 1.7-1.6 3.9-1.6 0 1.7.5 1.7 4.4 1.7h8.7l5-1v.4l-1.2.6c3.9 0 6.6-1 11 0h-4.4 54v.5l10-.5h20.7l3.3.5h1.6c-.6-1 1.6-.5 2.2-1l1 1h2.8l11-.5h9.8l.5-.6h7.7l10.9-3.3v-1l4.9-1.7 3.3-2.7c-1.7 1-3.8 2.2-5.5 1.6h.6l1-.5 1.7-1 1-1.2h1.2v-1h1V283l1.2-.5v-2.8h-1.7v-1l.6-.6v-1l1-.7h.6l1.7-.5-1.1-3.3-2.2 1.7c-.4-.9-.6-1.8-.6-2.8V269h.6v-1l.5-1.7c-1.5-.7-1.8-1.8-1-3.3l1 1c.6-1 0 0 1 0h1.2v-2.1c-1-1.1 0-1.6 0-2.7-.5-1.1-1-2.8-.5-3.9 0-1.6 0-2.7-1.1-3.8h-2.2l-1.1 1-1.1-3.7v-7.1h1.6v1l1.7 1.2.5 2.2h1.7v-3.3c-1.1-1.1 1-2.8-1.7-3.3v3.3l-1-2.2v-6h-.6v-2.1c.5-.6 0-1.1 0-2.2h1v2.7c1.7-1 1.7-2.1 1.2-3.2-.6-1.1 0-1.7.5-2.2v-.6c2.2-1 2.2-2.2.6-3.8Zm-9.3-48.2h-.6.6Zm0-1.7v-1l-.6 2.1-1-4.4-1.2 1.1c0-1-.5-2.2 1-3.3v1.1c1.8 0 2.3.6 2.3 1.1v3.3h-.5Zm-11-53.6v.6-.6Zm-.5 61.2c-2.7-1-1-2-1-3.2l1 3.2Zm-52.4 109.5-5 .6v-1h4.4v.4h.6Zm-8.8-1.6h-3.3 3.3Zm-38.2-3.9h-1.7 1.7Zm-5.5 5.5c-1.6.6-3.3.6-4.4 0h5-.6Zm-67.7.6h4.3-4.3Zm-150.3 1.6h-2.2 2.2Zm-131-1.6-5 .5v-1h4.4v.5h.6Zm-8.8-1.7h-3.2 3.2Zm-38.2-3.8h-1.6 1.6Zm-5.5 5.5c-1.4.5-3 .5-4.3 0h4.9-.6Zm-68.3 0h5.5-5.5Zm-149.6 1.4h-2.3 2.3ZM478.5 291l-4.3.5v-1h4.3v.5Zm-8.2-1.7h-3.8 3.8Zm-38-3.8h-2.7 2.7Zm-5.5 5.5h-5 5Zm-68.4 0h5-5Zm-150.1 1.5h-2.7 2.7Zm-131-1.6-4.5.5v-1h4.4v.5h.1Zm-8.3-1.7h-3.8H69Zm-39.4-4.7H28h1.6Zm-6.5-58-1-2.6c2.6.5 1 2 1 2.7v-.1Zm-8.2 5.5c-.6-1-.6-1.6 0-2.1v2.1Zm-2.7 29.5v1.1h-.6v-1h.6v-.1Zm0-13c2.1 0 1 0 0 1v-1Zm-1.1-2.8h.5v2.7h-.5v-2.7Zm.1-3.8v-1.1 1.1Zm0 21.8 2.6 2.8h-.6l-2-.6v-2.2Zm-1.8-80.9v-1c0 .4.6 1 0 1ZM4 106.2l1-.6V104c0-1.6-1-2.7 0-4.4-1-2.2 0-3.8 0-5.4h3.3v1l-1-1c-1.7 1-1.2 2.7-1.2 3.8 1.1 1 .6 2.2 0 3.3l.6 2.7v2.7l-1 2-1.7-2.1v-.5.1Zm0 1.6v-1.6 1.6ZM5.6 59v1.6V59Zm0-7v-2.8c1.6 1.6 1.6 2.2 0 2.7v.1Zm0 3.2v-1.7h.5v1.7h-.5ZM6.1 81v1-1Zm0 8.7c1.1 0 1.7 1 2.2 1.6v1H5.6c0-1 0-2.1 1-2.6h-.5Zm6.6-54v-1.3c1.6 0 0 .6 0 1.1v.2Zm0-12.2.5-1V24h-.5v-.5Zm1.1 29-.6.5-1.6-1v-1.7l2.2 2.1v.1Zm-1.6-5v1.1h-.6v-1h.6v-.1Zm-.6-13h-.5v-2.3h.5v2.3Zm-.5 21.8V53l2.7 1.6c-2.2 1.1-1.6 3.3-1.6 5l.5 3.8c0 1-1 2.3 0 2.8h-1l-1.2-1.6v-6.7l.6-2.2v.6Zm.5 26.2c-.5 1 2.7 1 .6 2.2-.6 0 1 1.6 0 2.2 1 1 0 1.6 0 2.7 1 .5 1 1 0 1.6l-1-1c0-1.1 0-2.8-1.2-4 1.6-2.6 0-5.3.5-8.6l1.7-1.1.5.5v1.3l.5 3.9h-1.6v1-.7Zm.6 10.4c-1-1.1 0-1.1 0-1.7v1.7Zm0 .5v2.2h-.6l-1-2.2h1.6ZM10.5 77v.6L9 76.5l1.6.5h-.1Zm-.5-5.4 1 .5h1.7c0 1.7-1 2.2-2.2 2.2-1-.5-1-1.6-.5-2.7Zm.5-3.3.6-2.2c.5.6 1 1.6 0 2.2h-.6Zm0 2.2 1.1-1.1 1.1.5c-.2.5-.6.9-1 1l-1.7.7c-1.7 0-1.7-.6-1.7-1.7l1.7-1.6v1.6h.5v.6ZM9 68.3H7.2c0-.6 0-1.6 1.1-2.8H9l-.6 2.8H9ZM5.6 84.8c0 1 0 1.6-1 2.2v-2.2h1Zm0-4.8v-1.7V80Zm0 30.5c0 1 2.2 2.7 1 4.3H5.2v-4.3h.4Zm8.7-20.8v1.6-1.6Zm130-84.2h2.3-2.3Zm131.3 1.6 4.4-.5v1h-4.4v-1 .5Zm8.2 1.6h3.8-3.8Zm38.2 4h2.2-2.2Zm5.5-5.6c1.6-.5 3.3-.5 4.4 0h-4.4Zm68.3 0h-5.5 5.5Zm150.1-1.6h2.2-2.2Zm131.2 1.6 4.3-.5v1l-4.3-.5Zm8.1 1.6h3.9-3.9Zm38.3 4h2.2-2.2ZM729 7c1.6-.5 3.2-.5 4.3 0H729Zm68.2 0h-5.4 5.4Zm150.2-1.6h2.2-2.2Zm131 1.6 4.4-.5v1h-4.4v-1V7Zm8.2 1.6h3.3-3.3Zm38.3 4h1.6-1.6Zm5.4-5.6c1.7-.5 3.3-.5 4.4 0h-4.4Zm68.3 0h-5.5 5.5Zm148.6 16.4.6-.6v1.7V23l-.6.6v-.2Zm5.5 61.3h-1.7V87c0 1.6 1 2.7 0 4.3v.6c1 1.6 0 3.8 0 5.4h-3.2l.5-1 1 .5c1.7-1 0-2.2.6-3.3-1-1 0-2.7 0-3.8l-.5-2.2c0-1 1-1.6 0-2.7l1-2.7 1.7 2.7h.6v-.1Zm-.6-1.7v1.7V83Zm-1.6 48.1v-1.6 1.6Zm0 7.7v2.7c-1.1-1.5-1.1-2.4 0-2.7Zm0-3.3v1h-.6v-1h.6Zm-.6-26.2v-.6.6Zm0-8.2-2.1-1.7v-1h2.7l-.6 2.7Zm-4.3 19-1.1 1.2-1.1-.6c0-.5 0-1 1-1.6h1.7c1.7 0 1.7.5 1.7 1.6l-1.7 1.7v-1.7l-.5-.5v-.1Zm-.6 4.5c-.5-.6-1-1.7 0-2.2 1 .5.6 1.6 0 2.2Zm-.5-16.4c.5-1.1-2.8-1.1-.6-2.2 0-.6-1-1.6 0-2.2-1-1 0-2.2 0-2.7-1-.6-1-1.1 0-2.2l1 1c0 1.7 0 3.4 1.2 4.5-1.6 2.7 0 5.4-.5 8.7v.5l-1.7.6h-.5v-1.7l-.6-3.2 1.7-.6v-1 .5Zm0-11c.5 1-.6 1.7-1.1 1.7l.5-1.1.6-.6Zm-.6 0V94h.6l1 2.7h-1.6v.5Zm2.2 15.9 1 .5v.6l-1.5-.6v-.5h.5Zm-.5 3.3c1 0 1 1.6.5 2.2h-1l-1.7-.6c0-1 1-2.2 2.2-1.6Zm1.6 5.4h1.6c0 1 0 2.2-1 3.3l-1.1-.5.5-2.8Zm3.3-16.4c0-.5 0-1.6 1-1.6v2.2h-1v-.6Zm0 5.5v1.6-1.6Zm0-30.6c0-1.6-2.2-2.7-1.1-4.4h1.6v4.4h-.5Zm-6.6 50.8-1-4.3c0-.6 1.6-1.7 0-2.8l1.6.6 1 1v6.6l-.5 2.7v2.2l-2.7-1c2.7-1.7 1.6-3.3 1.6-5.5v.5Zm1 24.6v2.7h-.4v-2.7h.5-.1Zm0 7.1v1.1-1.1Zm-1-20.2v-1h.6v1h-.6Zm0 13.7c-2.2 0-1.1-1 0-1.7v1.7Zm2.2-19.2-1-2.2h2.7l-1.7 2.2Zm1.7-3.2c-1.1-.6 0-1.7 0-2.2.5.5.5 1.6 0 2.2Zm0 13.6 1 1.1v.6h-.5l-.5-1.7Zm2.7 14.8c-2.2-1.7-.6-2.8 0-3.9-1.8-.6-2.4-1.5-1.7-2.7 0 .6 0 1.6 1 2.2l1.2 1.6-.5 2.8Zm0-16.4-1.1-.6v-2c1 0 1.4.6 1 2.1v.6l.1-.1Zm0-24.6.5 2.2c-1-.6-1-1.1 0-2.2h-.5Zm.5-14.2c1.7 1 1.7 1.6 1 2.7l-1-2.7Zm2.8 11c-2.2-1.2-.6-2.3 0-3.4v3.4Zm-1.1-6.1h.5v.5a1 1 0 0 1-1 0l.5-.5Zm-1.7-38.2v.5h-1.6v-2.2l1.6 1.7Zm-1-2.2.5-.6h-.6v.6h.1Zm3.8.5v1l-.6-1h.6Zm.5-30.7h-2.2c.7-1 1.4-1 2.2 0Zm-.5 2.2-1.1-1h.5l1 1h-.4Zm0 2.2v2.7c-1.1-1-.6-2.2-2.2-2.2h2.7l-.5-.5Zm-2.8-7.1V42l-.5-1-1.1-.7 1.6-1.6Zm-.5 7.1v-1 1Zm.5 14.7v1.7h-1.6c0-1-1.1-1-1.1-1.7h2.7Zm-2.7-42 1-1.7c1 1.1 1 1.7.6 2.8v.5h-.5v-.5l-.6-.6v-.5h-.5Zm2.2 7c-1.1-1-1.7-2-.6-3.7v-2.2c1.7 1.6 1 3.8 0 6h.6v-.1Zm-3.3-12.5h.6l1 1.1 1 1.6h.7l-1.1 1.1-1.6-1.6v-1l-.6-.6-.5-1h.5v.4Zm-15.3-6.5h.6l-.6.5h-1l1-.5Zm-8.7 0h3.2-2.7s-.5 0 0 0h-.5Zm-40 0c1.7 0 2.8-1.1 5 0l2.2-.6v-.5l-.6-1.1h11.5l-1.6.5h14.8-1.7 6.5-20.7l-2.2 1.1h13.7-6.6l-1 .6h-19.3Zm-1.5-1.7h-2.8 2.8Zm-.6 1.7h-5l-.5-.6h5.5v.6Zm-21.8 0 3.8.5c-1.1 1.1-2.2 1.1-3.3.5h-1.1v-1h.6Zm-19.2 6c-1.6 1.6-3.8.5-5.4 0h5.4Zm-11-6a1 1 0 0 1 1 0h-1.4.5-.1Zm-4.4 2.1h4-4Zm-4.9-2h5.6-1.1 3.8l-8.7.4 2.7.5h-6l1.6-.5 2.2-.5-.1.1Zm-8.6 1h2.2-2.2Zm-5.5-1h2.7-2.7Zm-8.7-2.9h8.2c-2.8 1.1-4.4 0-6.6 0a7.2 7.2 0 0 1-5.5 1.1c1.7 0 2.8 0 3.9-1v-.1Zm-3.3 3.8c0 .6-1.1 0-2.2 0h2.2ZM1177.8 5h2.8-2.8Zm-3.2-1-1.1.5h-3.3l4.4-.6V4Zm-7.7 2.7h2.2-2.2Zm0-2.8-5.4-.5h5.4v.5Zm-6 2.8h3.3l-5 1c0-.5.6-1 1.7-1Zm-6-3.3h2.7-2.7Zm0 1.6 3.3.6-4.4.5 1.1-1V5Zm-2.7 0h-4.4 4.4Zm-4.9-1.6h-2.8 2.8ZM1137 6h21.8l-2.2 1.6c-2.7-1-6.5-1-9.8-1l-7.6.5h-5.5l1-.5 2.3-.6Zm-2.7-.5h-4.4V3.8l5.4 1.1-1 .6Zm-1.7-2.2h-3.8 3.8Zm-5.5 1.6 2.8.6h-2.8l-.5.5h2.2c0 .7-.6 1.1-1.7 1.1h-2.7l-.5-1.6 3.2-.6Zm-4.3 1.1v1.2c-2.2 0-4.4 0-3.3-1 0-.6 2.2-.6 4.4 0h-1V6h-.1Zm-.6-4.4c-2.2 1.1-3.8 0-5.4 0h5.4Zm-7.6 3.3h.5l-1.6 1.1h-1l2.1-1v-.1Zm-2.8-3.3s.6 0 0 0v.6h-1 1v-.6Zm0 1.7h-2.7 2.7Zm-4.9-1.1-4.9.5h5.5l-.6-.5Zm-.5 1h-2.2 2.2Zm-7 0-4-.5h4v.6-.1Zm-2.9 2.8h17.5l1.7.6-1 .5h-8.9l-1-.5h-1.7c-1.6 0-1.6 1-3.8 0-.6 0-2.8 1-3.9 0h-5.4c-1 .3-2.2.3-3.3 0h9.3l.5-.6Zm-10.9-2.7h5c-1.2 1-2.3 1-3.9 1.6h-1V3.3h-.1Zm1.1 3.8h-2.7c1.6-1 2.2 0 2.7 0Zm-27.3-5h-3.3 3.3Zm0 0 1 1.2h23.6v1.6h-3.3l2.2-1H1055l4.5-1.7v-.1h-.1ZM1043 3.3h8.2c-2.7 0-5.5 1-8.2.5v-.5Zm-3.8 0h1l-1 .5h-2.8l2.8-.5Zm-.6-1.7h-2.2 2.2Zm-4.9 1.7h1.1-1.1Zm-18.6 0h3.3l-1 .5-3.4.6 1.1-1.1Zm-23.5-1.7c-1.6 0-3.8 0-4.3 1.1v-1h4.3v-.1Zm-5.4 1.7H984h2.2Zm-3.8-1.7h-2.2 2.2Zm-3.9 0-.5 1.1c-1.4-.3-1.3-.7.5-1v-.1Zm1.1 1.1-1.6.6-2.2.5-2.2-.5h6v-.6Zm-28.4.6c-1.6.5-3.3 1-4.9 0H944h7.2Zm-7 0c-2.3 1-2.8 1-3.4 0h3.4Zm-4.5-.6 1.1.6h-6.5l5.4-.6Zm-18 1.7v.5-.5Zm-6 2.2h2.3-2.3Zm-34 0h7.9V6l-1.1-1H900l-1.1.5H909h-.5 4.4-15.3l-2.8 1h12-4.3l-1.1.7h-19.7v-.6Zm-1.4-1.1h-2.7 2.7Zm0 1.6h-5.5l-.5-.5h5.4l.6.5Zm-22 0v1.1h-1l1-1v-.1Zm-19.5 6c-1.1 1.7-4 .6-5.5 0h5.5Zm-11.5-6h1.6-1.6Zm-3.8 2.2h3.8-3.8Zm-5-2.2h5.5-1 3.7l-8.7.5 2.7.6h-5.4l1-.6 2.3-.4h-.1v-.1Zm-8.6 1.1h2.2-2.2Zm-5-1h2.3-2.3Zm-9.3-2.8h8.2c-2.7 1-4.4 0-6.6 0-2.1 1.6-2.7 1.6-5.4 1 1.6 0 2.7 0 3.8-1Zm-2.7 3.8H790h2.9Zm-16.4-2.7h3.3-3.3ZM773 4.4l-1 .5h-2.8l3.8-.5Zm-7.6 3.2h2-2Zm0-2.7-5.5-.5h5.5v.5Zm-6 2.7h3.2l-5 1.1 1.7-1 .1-.1Zm-6.1-3.2h2.8-2.8ZM754 6l2.7.6-4.4.5 1-1h.7V6Zm-3.3 0h-3.8 3.8Zm-4.9-1.6h-2.7 2.7Zm-9.9 2.7h21.4L755 8.7c-2.8-1-6.6-1-10-1l-7 .5h-5.4l.5-.6 2.8-.5Zm-2.7-.5h-5.4V5l6 1.1-.6.6v-.1ZM731 4.4h-3.8 3.8ZM725.6 6l3.3.6h-3.4l-.6.5h2.2c0 .7-.5 1.1-1.6 1.1h-2.2c-1.1-.6-1.1-1-1.1-1.6l3.3-.6h.1Zm-3.8 1.6-1.1.6c-1.7 0-3.3 0-2.8-1 .6-.6 2.2-.6 4.4 0h-.5v.4Zm-1.1-4.9c-1.7 1.1-4 0-5.5 0h5.5ZM712.9 6h.7l-1.7 1.2h-1l2-1V6Zm-2.7-3.3h.6l-.5.6h-1.1 1v-.6Zm.1 1.7h-2.8 2.8Zm-5-1.1-4.9.5h5.5l-.5-.5h-.1Zm-.5 1h-1.6 1.6Zm-7 0-4-.5h4v.6-.1Zm-2.9 3h18l1 .4-1 .6h-8.7l-1.1-.6H702c-1.7 0-2.2 1.1-3.8 0-1.1 0-3.3 1.1-4.4 0h-5.5c-.9.3-1.8.3-2.7 0h1.6l7.7-.5v.1Zm-11-2.8h5.5l-3.8 1.6H684V4.4h-.1v.1Zm1.3 3.8h-2.7c2.2-1 2.2 0 2.7 0Zm-27.5-5h-3.2 3.2Zm0 0 1.1 1.2h23.7v1.6h-3.3l2.2-1h-27.9l4.3-1.7v-.1h-.1Zm-16.2 1.2h8.8c-3.3 0-5.5 1-8.8.5v-.5Zm-3.8 0h1.7l-1.7.5H635l2.7-.5Zm-.5-1.7H635h2.2Zm-5 1.7h1.1-1.1Zm-18.6 0h3.4l-1 .5-3.4.6 1-1.1Zm-23.4-1.7c-1 0-3.3 0-4.4 1.1v-1h4.4v-.1Zm-5.5 1.6h-2.2 2.2Zm-5.6-1.7h2.1-2.1Zm-2.2 0-.6 1.1c-1.4-.3-1.2-.7.6-1v-.1Zm1.6 1.1-2.2.6-1.6.5-2.7-.5h6.5v-.6Zm-29 .6c-1.6.5-3.2 1-4.9 0h-2 7-.1Zm-7 0c-1.4.7-2.5.7-3.3 0h3.3Zm-3.9-.6v.6h-5.4l5.4-.6Zm-18.5 1.7h.5V6h-1l.5-.5Zm-6.1 1h2.2-2.2Zm-33.9 0h5.5s2.2.6 2.2 0V6l-1-1h12l-1.7.5h11-1.2 4.4H496l-2.7 1h12.5-3.8l-1.5.7h-20.2v-.5l-.2-.2Zm-1.6-1h-2.7 2.7Zm0 1.6h-5.4l-.6-.5h5.5l.5.5Zm-21.8-.5v1.6h-1l1-1.6ZM437 13.1c-1 1.7-3.8.6-5.4 0h5.4Zm-11-6h1.3-1.3Zm-4.2 2.2h3.8-3.8Zm-5-2.2h5.6-1.1 4.3l-9.3.5 2.8.6h-5.5s1.7 0 1-.6l2.3-.5h-.1Zm-8.4 1.1h2-2Zm-5-1h2.2-2.2ZM394 4.3h8.2c-2.7 1-4.3 0-6.5 0a6.9 6.9 0 0 1-5.5 1c1.7 0 2.8 0 3.8-1Zm-2.8 3.8h-2.7 2.7Zm-16.4-2.7h3.3-3.3Zm-3.3-1.1-1 .5h-2.8l4.4-.5h-.6ZM364 7.6h2.2-2.2Zm0-2.7-5.5-.5h5.5v.5Zm-6 2.7h3.3l-4.4 1.1h-.5l1.6-1v-.1Zm-6-3.2h2.7-2.7Zm.5 1.6 2.8.6-4.4.5 1-1h.6V6Zm-3.3 0h-3.8 3.8Zm-4.3-1.6h-3.3 3.3Zm-10.4 2.7h21.3l-2.2 1.6c-2.7-1-6.5-1-9.3-1l-7.6.5h-5.5l1-.6 2.4-.4h-.1v-.1Zm-3.3-1h-5V4.3l5.6 1-.6.6v.2Zm-1.6-2.4h-3.8 3.8Zm-6 1.7 3.2.5H324l-1 .6h2c0 .7-.5 1-1.5 1h-2.2l-1-1.5 3.3-.5v-.1Zm-3.3 1-1.1 1.1c-2.2 0-3.8 0-3.3-1 .6-.6 2.8-.6 4.4 0v-.1Zm-1.7-4.2c-1.7 1-4 0-5.5 0h5.5Zm-7.7 3.3h1l-1.5 1h-1.1l1.6-1Zm-2.1-3.3-.5.5h-.6 1v-.5h.1Zm-.5 1.6h-2.8 2.8Zm-4.4-1-5.5.5h5.5v-.6.1Zm-1 1h-1.7 1.7Zm-6.6 0-4.4-.5h4.4v.5Zm-2.8 2.8h18l1 .5-1 .5h-8.7l-1-.5h-1.2c-1.6 0-1.6 1.1-3.8 0-1 0-3.3 1.1-4.4 0h-8.2 1.7l8.2-.5h-.6Zm-11.6-2.8h5l-3.3 1.7h-1.7V3.8Zm1.8 3.8h-3.3c2.2-1 2.2 0 3.3 0Zm-27.3-4.9h-4 4Zm0 0 1 1.1h23v1.7h-2.7l1.6-1.1H252l5-1.7h-.6ZM240 3.8h9.3c-3.3 0-5.5 1.1-8.8.6l.6-.6H240Zm-3.3 0-.5.6h-3.3l3.3-.6h.5ZM235 2.2h-2.2 2.2Zm-5 1.6h1-1Zm-18 0h2.7l-1 .6-3.3.5 1.6-1v-.1Zm-24-1.6c-1.1 0-3.3 0-4.4 1v-1h4.4Zm-5.5 1.6h-2.2 2.2Zm-5.4-1.6h2.1-2.1Zm-1.7 0-1 1c-2.3-.5-2.3-1 1-1Zm1.1 1-2.2.6-1.6.6-2.2-.6h5.5l.5-.5v-.1Zm-29 .6c-1.6.6-2.7 1.1-4.9 0h-2 7-.1Zm-10.3 0h3.8c-1.8.7-3 .7-3.8 0Zm-.6-.5.6.5h-6l5.4-.5ZM118 4.9h.6v.6h-.6v-.6ZM112 6h2.2-2.2ZM78.8 6H86v-.5l-.5-1.1h11l-1.2.5h11-1.2 4.4-15.3L91.4 6h12-3.8l-1.7.6H79.4l-.6-.6Zm-1.6-1h-2.8 2.8Zm-.6 1.5h-4.3l-1-.6h5.3v.6Zm-21.8 0v1h-1.2l1-.5v-.5h.2ZM35.1 13l-.5.6h-2.8l-.5.5h-1l4.8-1V13Zm-13 57v1-1Zm-2.8-56.8-2.2 2.2V15l.5-1h.6l1-.7h.1v-.1ZM16 11h2.2H16Zm-5 7.1v-1l1.2-1.7V15l.5-.6h.5v-1 1l2.8-2.2h1L13.2 16v2.2-1l1.1-.6v2.2l-1 .5v.6h-.7l-.5-1-1-.7-.1-.1Zm0 7.7h.6v1.4h-1l.5-1.6v.2H11Zm-1 27.3 1 2.7-2.7-.5 1.7-1.7v-.5ZM8.3 57c1.1.6 0 1.1 0 2.2-.5-1-.5-1.6 0-2.2Zm0-13.6-1-1v-.7h.5l.5 1.7ZM5.6 30.1v-1.7h.5v.6h.6v1l-1 1.7c1.7 1 2.3 2.1 1.5 3.3 0-1 0-1.7-1-2.2l-1-1.7v-1h.4Zm0 14.7h1V47c-1 0-1.3-.7-1-2.2Zm0 24-.5-1.5c1 0 1.6.5 0 1.6h.5v-.1Zm-.5 14.3c-1.7-.5-1.7-1.6-1-2.1l1 2v.1ZM3 72.3C5.1 74 3 75 3 75.6v-3.3Zm0 6.6v-1.1h1-.5l-.5 1v.1Zm2 37.7h1.6v1.6L5 116.6Zm1.1 2.7-.5.5v-.5h.5Zm-3.8-.5V117l.6 1-.6.7v.1Zm0 30 1.7.6c-.7.7-1.4.7-2.2 0l.5-.6Zm0-1.6 1.1 1H3l-1-1h.4-.1Zm0-2.2v-2.8c1.1.6.6 1.7 2.2 2.2H1.8l.5.6Zm3.3 6.3-.5-3.2.5 1 1 1.1-1 1.1Zm0-6v.6-.6Zm0 18c1 1.1 1.6 1.7.5 2.8v1c-1.6-1-1-2 0-3.7h-.5v-.1Zm0 9.3-1-3.2h1c1.6 1 1 1 0 3.2Zm0-3.7v-1.6h.5c1.1 1 1.1 1.6 0 1.6h-.5ZM7.8 130l-2.7-.5v-1.1l1-.6s1.1 0 .6.6l1 1.6h.1Zm0 34.4 1 1.1h-.5v-.5l-.5-.6Zm0 14.8h1-1Zm0 22v1.6c-1 0-1-1.1 0-1.6Zm2.7.5v2.2l-1 .5c-.4-.7 0-1.6 1-2.7Zm0-11.6v10.5c-1-1-1.6-1.6 0-2.7 0 0 0-1.1-1-1.1H6v-6l1.7.4-1-5.4H7l1.1-1.7-.5 8.2 2.2 1.1c-1.7-2.2-1-4.4 0-6.6.5 1.1 0 1.7-.6 2.2l1.3 1.3v-.2Zm2.7 23h-1.6V211c1.6.5 1.6 1 1.6 2.2v-.1Zm0 24.7v1h-1l1-1Zm-2.7-8.8h.6-.6Zm0 2.2v.5l.6-2.1 1 4.9 1.1-1.7c0 1 .6 2.2-1 3.3v-1c-1.7 0-2.2 0-2.2-1.2v-2.5h.5v-.2Zm-5.4 46.4v-2h.5v2h-.5Zm1-10.3v1-1Zm-1-2.2 1-2.8c1.1 2.2.6 2.2-1 2.8Zm0-7.1 1.6.5v1.7c-1 0-1.4-.7-1-2.2H5h.1Zm1-11.5-1-1.6.5-2.8c2.2 1 .5 2.2 0 3.3 2.7 1 2.7 1.6 1.6 3.3 0-1.1 0-1.7-1-2.2h-.1Zm1.1 8.2h.6l.5 1.6-1-.5v-1.1h-.1ZM9 271.1v3.3c-1-1-1-2.2 0-3.3Zm1-1.7-1.6-.5v-.5H9l1-1.7v1.7h.6v1H10Zm.6 8.3V269l.6-.5v-2.2l2.1 1v.6h-.5v1.1l-1 1.6v4l.5 1v1.6h.5v1l.5.6v.6h1.1v2.2l2.2 1h-2.2l-1.6-1v-.6l-.5-.5v-.6l-1-2.2h-.7Zm3.8 10.9h-.5l-2.2-1-.5-.7h1.5l2.2 2.2h-.6v-.5h.1Zm.6-.6-.6-.5h-.5v-.6h-.6l-.5-1-1-.6v-1h1.5c0 1 1.7 2.1 2.8 3.2h-1v.5H15Zm1-2.2-1.6-1.6v-1l2.8 3.2-1-.6H16Zm2.8 2.8h-.5l-.6-1c-.5 0-1 0-1-1.2l1.6 1h.5l1.1.6H21h-1v-.5l-.6-.6H22l1 .6.6 1c.6 0 0 .6 0 1.2h-2.2l-2.7-1 .1-.1Zm9 5.4h-2.4l-2.8-.5h-1 4.3l1.7.5 2.1.6h-2v-.6h.1Zm2-3.6h-5.5v-.5l1-.6 1.7-.5h1.7l1.1.5c0 .6.6.6 0 1.1Zm5.4 1.6-.5-.5 2.7-.5h1l-1.6.5h-1.6v.5Zm2.2 3.3s-1 0-.6-.5h3-2.3v.5h-.1Zm1-1.6h4.5-4.5Zm15 .5h-7.7 7.7Zm-6.2-.5h3.3-3.3Zm9.3 0 3.8.5H56l.5-.5Zm2.2-2.7h-22c-1 0-1.6-.6-1.6-1h13.7l1.6.4h2.2c1.6 0 1.6-1 3.8 0 .6 0 2.7-1 3.8 0H69h-2.2l-8.2.6h.1Zm11 2.7-4.4-.6 3.2-1h1.7v1.6h-.6.1Zm-1.2-3.8h3.3c-2.2 1-2.2 0-3.3 0Zm27.2 5h4-4Zm.1 0s0-1.2-1-1.2h-23V292h2.6l-1.6.6c2.2 1 5 .5 7.1 1 1.6-1 4.4-.5 6.6-.5h14.2l-5 1.7h.1v.1Zm16.4-1.2H104c2.8 0 5.5-1 8.8-.6l-.6.6Zm3.3 0 .6-.6h3.2l-3.2.6h-.6Zm1.7 1.6h2.1-2.1Zm5-1.6H121h1.2Zm18 0h-2.8l1-.6 3.3-.5-1.6 1v.1h.1Zm23.9 1.6c1.1 0 3.3 0 4.4-1v1H164h.1Zm5.5-1.6h2.2-2.2Zm5.5 1.6h-2.2 2.2Zm1.6 0 1.1-1c1.5.4 1.1.7-1 1h-.1Zm-1-1 2.1-.6 1.6-.6 2.8.6h-6.6v.5l.1.1Zm28.9-.6c1.6-.6 2.7-1 4.9 0h2.2a17 17 0 0 1-7.1 0Zm7 0h-.5c1.9-.7 3.1-.7 3.8 0H211h.6Zm3.9.5-.6-.5h6.6l-5.5.5h-.5Zm18.6-1.6h-.6v-.6h.6v.6Zm6.5-1h-2.2 2.2Zm32.8 0h-7.1v.4l.6 1.1h-11l1-.5h-11 1.3-4.4H258l2.7-1h-12 3.8l1.7-.6h19.7l-.6.5.1.1Zm1.6 1h3.3-3.3Zm.6-1.6h5l1 .5c-1.8.5-3.7.5-5.5 0l-.5-.5Zm21.8 0-3.2-.6c0-1 1.6-1 3.2-.5h1l-1 1v.1Zm19.7-6c1-1.7 3.8-.6 5.5 0H317h.1Zm11 6c-.4.3-.8.3-1.2 0h1.2Zm4.4-2.2h-3.8 3.8Zm4.3 2.2h-5.5 1-3.7l8.7-.6-2.7-.5h6l-1.6.5-2.2.6Zm9.3-1h-2.2 2.2Zm4.9 1h-2.3 2.3Zm9.3 2.7H352c2.7-1 4.4 0 6.5 0a6.7 6.7 0 0 1 5.5-1c-1.6 0-3.3 0-3.8 1h.1Zm2.7-3.8c0-.6 1.6 0 2.2 0H363Zm16.4 2.7H376h3.4Zm3.3 1 .5-.5h3.3l-4.4.6h.6v-.1Zm7.6-3.2H388h2.3Zm0 2.7 5.5.6h-5.5v-.6Zm6-2.7h-3.8l5.5-1-1.7 1Zm5.5 3.3h-2.2 2.2Zm0-1.7-2.7-.5 4.3-.5-1.6 1Zm2.7 0h4.4-4.4Zm4.9 1.7h3.3-3.3Zm10.4-2.7H398l2.7-1.7c2.7 1.1 6 1.1 9.3 1.1l7.6-.5h5.5l-1 .5-2.3.6Zm2.8.5h4.9v1H422l.6-1Zm2 2.2h4-4Zm5.6-1.7-3.3-.5h2.8l1-.5h-2c0-.7.3-1 1-1h2.8l1 1.5-3.7.5h.5-.1Zm3.3-1 1-1c2.2 0 3.8 0 3.3 1-.6.5-2.8.5-4.3 0Zm1 4.3c2.2-1 3.8 0 5.4 0h-5.4Zm8.2-3.3h-1l1.5-1h1.1l-1.6 1Zm2.2 3.3.5-.5h.6-1v.5h-.1Zm0-1.6h2.7-2.7Zm5.4 1 4.4-.5h-5l.6.6v-.1Zm0-1h2.2-2.2Zm7.1 0 4.4.5h-5l.6-.5Zm2.8-2.7h-17.6l-1-.6 1-.5h8.2l1 .5h1.7c1.6 0 1.6-1 3.8 0 1.1 0 3.3-1 4.4 0h8.2-1.6l-8.2.6h.1Zm11 2.7-4.5-.6 3.3-1h1.6v1.6h-.5.1Zm-1.2-3.8h2.7c-1.6 1-1.6 0-2.7 0Zm27.3 5h3.3-3.3Zm0 0s0-1.2-1-1.2h-23V292h2.7l-1.6.6c2.1 1 4.3.5 6.5 1 2.2-1 5-.5 6.6-.5h14.1l-4.4 1.7h.1v.1Zm16.4-1.2h-8.2c2.7 0 5.5-1 8.7-.6l-.5.6Zm3.3 0 .5-.6h3.3l-3.3.6h-.5Zm1.6 1.6h2.2-2.2Zm3.8-1.6h1.1-1.1Zm19.2 0h-2.8l1.1-.6 3.3-.5-1.6 1v.1Zm24 1.6c1 0 3.3 0 3.8-1l.6 1h-4.4Zm5.5-1.6h2.1-2.1Zm3.2 1.6h2.2-2.2Zm4 0 1-1c2.1.5 1.6.5-1 1Zm-1.2-1 1.6-.6 2.2-.6 2.2.6h-6v.6Zm29-.6c1.6-.6 2.7-1 4.3 0h2.7c-2.3.5-4.7.5-7 0Zm10.3 0h-3.8c1.8-.7 3-.7 3.8 0Zm.6.5-.6-.5h6l-5.4.5Zm18.5-1.6h-.5v-.6h.5v.6Zm6-1h-2 2Zm33.4 0h-7.1v.4l.5 1.1h-11l1.2-.5h-11 1.1-4.3 15.3l2.2-1h-11.5 3.8l1.6-.6h6.6c4.2-.2 8.4-.2 12.6 0v.6Zm1.6 1h3.3-3.3Zm.6-1.6h4.9l1 .5c-1.8.4-3.6.4-5.4 0l-.5-.5Zm21.8 0-3.8-.6c1-1 2.2-1 3.3-.5h1.6l-1 .5v.6h-.1Zm19.7-6c1-1.7 3.8-.6 5.4 0h-5.4Zm10.9 6a1 1 0 0 1-1 0h1Zm4.4-2.2h-4 4Zm4.3 2.2h-5.4 1-3.8l8.8-.6-2.7-.5h6l-1.7.5-2.2.6Zm9.3-1h-2.2 2.2Zm5 1h-3 3Zm8.7 2.7H753c2.7-1 5 0 7 0a6.7 6.7 0 0 1 5.6-1c-1.7 0-3.3 0-4.4 1Zm3.3-3.8c0-.6 1 0 2.2 0h-2.2Zm15.8 2.7h-2.7 2.7Zm3.3 1 1-.5h3.4l-4.4.6v-.1Zm7.6-3.2h-1.6 1.6Zm0 2.7 5.5.6H791v-.6h.2Zm6.6-2.7H794l4.9-1h.5l-1.6 1Zm5.5 3.3H801h2.3Zm0-1.7-2.8-.5 3.8-.5-1 1Zm2.7 0h4.4-4.4Zm4.9 1.7h3.3-3.3Zm10.4-2.7H800c.5-1 1-1 2.2-1.7 2.7 1.1 6 1.1 9.3 1.1l7.6-.5h5.5l-1.1.5-2.2.6Zm2.7.5h5v1h-5.5l.5-1Zm2.2 2.2h3.3-3.3Zm5.5-1.7-3.3-.5h2.7l1-.5H830c-.5-1 0-1 1-1h2.9l1 1.5-3.8.5h.6Zm3.2-1 1-1c2.3 0 4 0 3.4 1-1 .5-2.7.5-4.4 0Zm1 4.3c2.3-1 4 0 5.6 0h-5.6Zm8.3-3.3h-1l1.6-1h1l-1.6 1Zm2.2 3.3v-.5h1-1v.5Zm0-1.6h2.7-2.7Zm5 1 4.9-.5h-5v.6l.1-.1Zm1-1h1.7-1.7Zm6.6 0 4.4.5H859v-.5Zm3.3-2.7h-17.5l-1.7-.6 1.7-.5h8.2l1 .5h1.7c1.6 0 1.6-1 3.8 0 1 0 2.8-1 4.4 0h8.2-1.6l-8.2.6Zm10.3 2.7-5-.6 3.9-1h1.7v1.6h-.6Zm-1.1-3.8h2.8c-1.7 1-2.2 0-2.8 0Zm27.4 5h3.2-3.2Zm0 0-1.1-1.2h-23V292h2.8l-1.7.6c1.7 1 4.4.5 6.6 1 2.2-1 4.9-.5 6.5-.5h14l-4.3 1.7.2.1Zm16.4-1.2H907c2.7 0 5.4-1 8.7-.6l-1 .6h.6Zm3.8 0H918l1-.6h2.8l-2.7.6Zm1 1.6h2.3-2.3Zm3.9-1.6h.5-.5Zm19.1 0h-3.4l1.7-.6 2.7-.5-1 1v.1Zm23.4 1.6c1.7 0 3.8 0 4.4-1l.5 1h-4.9Zm6-1.6h1.7-1.7Zm3.3 1.6h2.2-2.2Zm3.8 0 1.1-1c1.2.4.8.7-1 1h-.1Zm-1-1 1.6-.6 2.2-.6 2.1.6h-6v.5h.1v.1Zm29-.6c1.5-.6 2.6-1 4.3 0h2.1c-2 .4-4.3.4-6.5 0h.1Zm9.7 0h-3.3c2.2-1 2.8-1 3.3 0Zm1.1.5-1-.5h6.5l-5.5.5Zm18.6-1.6h-1v-.6h1v.6Zm5.5-1h-2.2 2.2Zm33.8 0h-4.9c-.5 0-2.2-.6-2.2 0v2.1h-10.9l1.6-.6H1049h1.1-5 16l2.1-1h-12 4.4l1-.6h19.7v.1Zm1.7 1h2.7-2.7Zm.5-1.6h5l1 .5c-2 .6-4 .6-6 0v-.5Zm22 0-4-.6c1.1-1 2.2-1 3.3-.5h1.1v.5l-.5.6h.1Zm19-6c1.6-1.7 4-.6 5.5 0h-5.6.1Zm11.4 6h-1 1Zm4-2.2h-3.9 3.9Zm4.8 2.2h-5.5 1.1-3.8l8.7-.6-2.7-.5h6l-1.6.5-2.2.6Zm8.7-1h-2 2Zm5.5 1h-2.7 2.7Zm8.7 2.7h-8c2.6-1 4.8 0 6.9 0a6.7 6.7 0 0 1 5.5-1c-2.2 0-3.3 0-4.4 1Zm3.3-3.8c0-.6 1.1 0 2.2 0h-2.2Zm15.9 2.7h-2.8 2.8Zm3.2 1 1.1-.5h3.3l-4.4.6v-.1Zm7.7-3.2h-1.6 1.6Zm0 2.7 5.5.6h-5.5v-.6Zm6-2.7h-3.3l5-1c0 .5-.6 1-1.7 1Zm6 3.3h-2.7 2.7Zm0-1.7-3.3-.5 4.4-.5-1 1h-.1Zm2.7 0h4.4-4.4Zm5 1.7h2.7-2.7Zm10.3-2.7h-21.8l2.2-1.7c3.3 1.1 6.5 1.1 9.8 1.1l7.7-.5h5.4l-1 .5-2.3.6Zm2.7.5h4.4v1h-5.4l1-1Zm1.7 2.2h3.8-3.8Zm5.5-1.7-2.8-.5h2.8l1-.5h-2.7c0-1 .6-1 1.7-1h2.7l.6 1.5-3.3.5Zm3.8-1.6 1-.5c1.7 0 3.4 0 2.8 1-.5.6-2.2.6-4.3 0h.5v-.5Zm1 5c2.3-1.2 3.9 0 5.6 0h-5.6Zm7.7-3.4h-.5l1.6-1h1l-2.1 1Zm2.8 3.3h-.6l1-.5h-.4v.5Zm0-1.6h2.7-2.7Zm4.9 1 5-.5h-5.6l.6.6v-.1Zm.5-1h2.2-2.2Zm7 0 4 .5h-4v-.5Zm2.9-2.7h-17.5l-1.6-.6 1-.5h8.8l1 .5h1.7c1.7 0 1.7-1 3.8 0 .6 0 2.8-1 3.9 0h8.2-1.7l-7.6.6Zm10.9 2.7-5-.6 4-1h1v1.6Zm-1.1-3.8h2.7c-1.6 1-2.1 0-2.7 0Zm27.3 5h3.3-3.3Zm3.9-1.2h-2.2l-2.2 1-1.1-1H1286c-3.3 1-6.5 0-10.4 0V292h2.8l-2.2 1.1h29l-1.1.6h.1Zm20.2 0h-13.1l6-.6h7v.6h.1Zm7-1.7-2.1 1.1h-1.1l1-1h3.4l.5-.6-1.6.5h-.1Zm2.8 1.7h-2.2 2.7l.6-.6h.5l-1.6.6Zm2.7-2.2h-1v-.5h1.6-.6v.5Zm4.4-117v-1.7 1.7Zm.5-73.2V99v2.3Zm1 36.6 2.3.5v2.2l-2.2-2.7h-.1Zm0 27.3h1.2l-1 1v-1h-.2Zm1.2 28c-1 0-1-1.2-1-1.8l1-.5h.6v2.2h-.6v.1Zm6.6 42v1.7h-.6c-.7-.7-.7-1.3 0-1.7h.6Zm-2.2-32.2v-1.6c1 0 1 1 0 1.6Zm-2.7 0v-2.7h1c.6.5.6 1-1 2.7Zm1 20.2v-1.6 1.6Zm0-5.5c-1-1.6 0-1.6 0-2.7l-1-.5v-11c1 .6 1.6 1.7.5 2.2 0 .6-1 1.7.6 1.7h3.2v5.4l-1.6-.5.5 3.8v1.6l-1 2.2.5-8.2-2.2-1.6c1.7 2.2 1 4.4 0 6.5l.6 1h-.1v.1Zm0 7.7v-.6h1.7-1l-.6.6h-.1Zm1.2 14.2v-.6.6Zm6.5 15.8h-2.2c.7-1 1.4-1 2.2 0Zm0 1.7h-1v-.6l1 .6Zm0 2.7-.5 2.2c-1.1 0-.6-1.6-2.2-2.2h2.7Zm-3.3-7v3.2l-.5-1.1-1.1-1.1 1.6-1Zm-.5 6.5v-1.1 1.1Zm-1.1 18.5 1.6 1.1v.6h-.5v.5l-1.7 1.1v-3.8l.6.5Zm1-37.1c-1-1.1-1.6-1.7-.5-2.7v-1.1c1.7 1 1 2 0 3.8h.6-.1Zm0-5.5c-1-1-1-1.6 0-3.3l1.2 2.8h-1.1v.5h-.1Z" />
</svg>