<svg xmlns="http://www.w3.org/2000/svg" style="display:none">
  <defs>
    <symbol id="section-bottom" viewBox="0 0 1921 67" preserveAspectRatio="none">
      <path fill-rule="evenodd" d="M1543 65h-1c1 0 0 0 0 0zm0 0 4 1s2 1 0 1zm-181-46h-1zm0 0v-1h2v1zm-88 22 1 2h-1c0 2 0 4-3 4l2-2c-1-1-1-3 1-4m182-9 1 4h1v1l-4-1 1-2h-1l-1 1zm0-1h3zv1zm128-17 2 1h-3zM73 13v1h-1zm0 0h-1zm-16-1a4 4 0 0 1 0 1zm59-1h1v2l-1-1h-2zm0 0h-1zm1574 2h1zm0 0 1 1h-1zM241 0c-1 1-2 3-1 4h1l1 1c-2 1 0 3 0 5h-4l2 1-1 1h-4l1-1h-1c-2 1-1-1-4 1l-1-1h-2 1l-2-2-1 2h-1l-3-2c-2-1-1 1-2 1h-2V9c-1 1-1-1-2 1l-2-2v2l-2-1V8c-1 0-2-1-2 1q-1.5 0 0 0h-3V6l-1 2-1-2c0 2 2 2 1 3s-1-1-2-1l1 1-1 2-1-3h-1v2c-3-1 0-3 0-5l-1-2c-1-1-2 0-2 1V1l-2 2 3 3-1 1c1 0 2 0 1 1h-1V7l-1 3V9v1c1 2 0 2-1 1v-1l1 1c0-1-1-2-3-2l-1-2v3l-2-1h-1V8v2l-1-2-1-1c1 1-2 5-3 3v2l-1-3 1 1 1-1V7l-3 1h-1V7c2 1 1-1 0 0v1l-3-1 1 2c1-2 2 1 4-1l-4 4h-2l2-1h-4l1 2h-2v-1c2 1 1-1 0 0l-2 1v-1c-2 1-1-2-3-2h-2v1c1 0 3-1 2 1h-7l-1-1-7 1v-1c-2 0 0 3-4 0l-1 1-1-3v2h-2l1-2h-2 1v1h-1v1c-1-3-4-1-3-3h-1l-4-2v2c-2 1-2-2-3-2l1 1c0 2-1 3-2 2h-4V8h2-3 1c-1 1 0 2 1 3l-2 1-1-1-4 1q0 1.5 0 0h-1 1-2v1-1h-3 1l-1 1v-1h-1l-1 1v1h-1v-2h1-1c3-3 3-2 1-5v1h-1v2h-2V9h2c-2-1-4 1-4-2-2 0-1 2 0 2l-1 1-1-2-1 1V7c-1 0-2 1-1 3l-1 2c-1-1 0-4-2-4v2c-1-1-2-1-2-3h-1c1 3 3 3 4 5l-2-1h-2v1l-5-1 1 1h-4 1l-1 1v-1h-9v1h-1v-1h-1s-1 0 0 0v1h-2l-2 1c0-1 2 0 1-1l-3-1h-2l-1 1v-1h-1l2-1h-7l1 1v1h-3v-1h1l1-1h-3c0-2 3 1 3-3-2 4-3-1-4 2l2 2h-2l-1 1v-1l1-1-1 1-3-2h-2c-2 0 0 0 0 0l-2-3v1l-1 2c-1-2-2-3-2-1l-3-1-1 1 2 1h1l-1 1 1 1-2 1h-2v-1l1-1 1 1-2-3h-2l-1-2v2h-1V7v1h-3V7l-2 1 1 1V8v1h1l-1 1 1 1V9h3v1l1-1c1 2 2 0 3 1v2h-2v1h-1v1-1h-1l1-1h-3c2 1 1 0 0 2v-1h-3l1 1-1-1h-4c1 1 0 1-1 1l1-1c-1 0-4 1-2-1h-9c-2 0-5 2-5 0-4 2-6 1-9 1 1 2-5 0-5 0-9 5-5-9-6-13zM47 13v-1zM1859 0c-1 1-2 3-1 4h1l1 1c-2 1 0 3 0 5h-4l2 1-1 1h-4l1-1h-1c-2 1-1-1-4 1l-1-1h-2 1l-2-2-1 2h-1l-3-2c-2-1-1 1-2 1h-2V9c-1 1-1-1-2 1l-2-2v2l-2-1V8c-1 0-2-1-2 1q-1.5 0 0 0h-3V6l-1 2-1-2c0 2 2 2 1 3s-1-1-2-1l1 1-1 2-1-3h-1v2c-3-1 0-3 0-5l-1-2c-1-1-2 0-2 1V1l-2 2 3 3-1 1c1 0 2 0 1 1h-1V7l-1 3V9v1c1 2 0 2-1 1v-1l1 1c0-1-1-2-3-2l-1-2v3l-2-1h-1V8v2l-1-2-1-1c1 1-2 5-3 3v2l-1-3 1 1 1-1V7l-3 1h-1V7c2 1 1-1 0 0v1l-3-1 1 2c1-2 2 1 4-1l-4 4h-2l2-1h-4l1 2h-2v-1c2 1 1-1 0 0l-2 1v-1c-2 1-1-2-3-2h-2v1c1 0 3-1 2 1h-8v-1l-7 1v-1c-2 0 0 3-4 0l-1 1-1-3v2h-2l1-2h-2 1v1h-1v1c-1-3-4-1-3-3h-1l-4-2v2c-2 1-2-2-3-2l1 1c0 2-1 3-2 2h-4V8h2-3 1c-1 1 0 2 1 3l-2 1-1-1-4 1h-1 1-2v1-1h-3 1l-1 1v-1h-1l-1 1v1h-1v-2h1-1c3-3 3-2 1-5v1h-1v2h-2V9h2c-2-1-4 1-4-2-2 0-1 2 0 2l-1 1-1-2-1 1V7c-1 0-2 1-1 3l-1 2c-1-1 0-4-2-4v2c-1-1-2-1-2-3h-1c1 3 3 3 4 5l-2-1h-2v1l-5-1 1 1h-4 1l-1 1v-1h-9v1h-1v-1h-1s-1 0 0 0v1h-2l-2 1c0-1 2 0 1-1l-3-1h-3v1l-1-1 2-1h-7l1 1v1h-3v-1h1l1-1h-3c0-2 3 1 3-3-2 4-3-1-4 2l2 2h-2l-1 1v-1l1-1-1 1-3-2h-2c-2 0 0 0 0 0l-2-3v1l-1 2c-1-2-2-3-2-1l-3-1-1 1 2 1h1l-1 1 1 1-2 1h-2v-1l1-1 1 1-2-3h-2l-1-2v2h-1V7v1h-3V7l-2 1 1 1V8v1h1l-1 1 1 1V9h3v1l1-1c1 2 2 0 3 1v2h-2v1h-1v1-1h-1l1-1h-3c2 1 1 0 0 2v-1h-3l1 1-1-1h-4c1 1 0 1-1 1l1-1c-1 0-4 1-2-1h-9c-2 0-5 2-5 0-4 2-6 1-9 1 1 2-5 0-5 0l-4 1-1 2s-3-1-2 1l-1-4 2 1c0-2-2-1-3-1v-1l-3 1h-1l2 2c-1 1-2 1 0 1v1h-1l1 1 1 1-1-1c-1 0-2-3-4-2l-2-2 1-1h-3l-2 1 1 1 1 2h1c0 1 1-1 1 1l-3-1v1-2h-2v-1l-1 2-2 1 1-1c-1-1 1-2 2-2v1h1c-1-2 0-2 1-3h-3c-1-2-2-1-2 1l-2-1-1-1c-1 1 0 5-2 3h1v-1l-1 1-1-1 1 2c-2 0-3 0-3-2l1-2-1 2v-3c-2 0-2 1-2 2l-2-1v1l-1 1-1-1h-1l-1 1c-1 1-2-1-3 1v-1h-4c-1-1 1 0 1-1h-3l1-1 1-1h-1l-1 3h-1v-3l-1 2h-1v-2l-2 1v1l-1-2v2l-2-1 1 2 1-1h1l1 3c-2 1-3 0-1-2l-1 1h-2v-1l-1 1h-1l1-3v-1l-1 1c-6 15-12 35-19 50l-1 3-1-1 1 1c-3 0 0-2-4-1v-1h-3c0-2-2-1-3-3 0 3-5 2-5-1-2 2-9-1-12-2l3-1 1-1h-3l-2-1c0-1 1-1-1-2 0 2-2 2-4 2v-1h-2c-2 2-4-3-7-1l-1-1 1-1h-3l1 1h-1c-1 0-5-1-7-3v1l-4-3 1-2h-1l-1 3-2-1h1-1l1-3c-1 0-2 0-1-2l-1 1h-2l1 1c-3 2-8 1-7-3-2 1-1 2-1 3l-3-2v-2h-2v1c-1 0-3 0-2-2h-3 3v-1h-3l-2-4c1 1 3 0 2 2 2-1 0-1 1-2 2 0 2-1 1-2v1l-1-2h-3v-1h2c-2-2-2 1-4 2l-1-3v2h-1v1c-2-2 0-3-2-4l1-1c2 2 3 1 1-1 5-1 2-3 0-2l1 1-2 1-1-1 1-1c-2 1 1 2-2 2l1 2-1 2h1l-1 1v-2l-2-3-2-1h1v-1h1l-2-1-2 4v-4l-2 2 1 2h2l-1 1v1h1v-1l1 1h-1v3l2-1-2 1 2 1c1 2-1 0-2 2l-1-2-1-1h2l-1-1-1-2-1 2h-1v-2c-3-3-4 3-6-1h3l-1-1h3l-1-1-1-1-1 1v-1c-1 1-1 0-3-1h-2c-2 0-1-1 1-2-2-1-1-2 1-2l-1-1c1-1 3-1 2 1h1v1c-3-1-2 2 0 0l1-3v3l4-1-1-1c-2 0-2-2-3-3 0 2-1 1-2 2v-2l-1 1h-2v-1h-1v2-2l-1 1v1h-2l1-2c-2 2-3 0-1 0v-1c0-2-3-4-4 0h-1l-1-2c1 1 0 3-1 2l1-2h-1v1l-1 2v-3h-3v1h1v1l1 1h1v1l-1-1c0 1 1 2 2 1l1 1h1l-1 1c-1-1-4 0-4-3l-1 1c0-1 0-3-1-2 0 1-2-1-1 1h1l-1 3c0-3-3-1-4-3 2-3-1-1-1-3v-1l-1 2c0 1 0 3 2 1v1h-1l-4-2v2h-2l-2-4v3l-1-3-2 1v5l-2-1-1 1-2-2v1h-2l2-2c0 1 2 2 2 0l-1-1-3-1 2-1h-3v2h1c0 2-3-1-5-1l-1 3v-1c0-2-2-2-3-1 0-2-3-1-4-1l2 1 1 1h-1v1l-1 2-1-1 1-1h-2l-1-4-1 2c-1-3-3-2-3-5l-2 2c3 1 2 6 0 8h-1l1-1c0-3-3-1-4 0v-1h-1l-1-1 1-1-3-1c-2 1-1 2-4 1 3-2 7-4 0-4v2l-1 1h-1l2 1-1 2-1 1 1-1c-3-2 0-4-4-1l-1-1c-2 0-3 2-4-1l-1 2h-1l1 3c-2-1-2-3-3-2h-1l-2-2c-1 2 1 3 1 4l-1-2c-2-1-5 1-7-1v2h-2v2h-2l-1-1v1h-5v-2c1 0 1 2 2 1l-1-4c-1 2-3 7-5 3-1 1 0 4-2 2v1-1h-1c-1-1-1 0-1 1l-2-3-1 1h-2l-1-1-2 2-2-1c0 1 0 2 2 2l-3-1v1h-2v-3h1l-1-1c0 2-2 5-2 2l-4 2v-1l-1 1-2 1 1 1 1-1h1v4l-1-1-2-1 2 2-1 1-1-1v2h-1 3c0 2-3 1-4 1 0 2 3 1 3 4-2 0-2-2-3-2v3l-2-1 1-1c-2 1-1 4 0 2h2l-1 1c1 1 3 1 3-1 2 1 1 3-1 4l2 2-1 1v-1c-2-1-3-2-3 1l3 1v5l-3 2v1l-1-1h1c0-1-1-2-1 0v-1h-2l2 2-2-1h-1l1 1-2-1h-1c-1-2 1-1 2-1l-1-1c-2 0-2 0-3 2-2-2-2-2-4-1v1c1-1 2 0 2 1l-2-1c-2-1-6 1-5-2h-2l3-1-3-1 2-2-2 1v-2l-3 1 1-1-1-1c0-1 0-2 2-1l-1-1c2-2 2 2 3 1-1-3-2-1-2-5h-2l1 3h-1c-3 0-1 3-1 4-2 0-4-1-4 1-2 0-2-1-3-3-2 1-2-2-3-3v-1l2 2v-1l-2-1c4 0 2-4 0-3 1 2 0 3-2 3l2 3v-1c1 2 0 4-2 3l1 1c1 0 2 3 2 1 2 1 0 3-1 2h-1l1 1c-2 0-1-2-1-4l-1 1h-2v1l-1 1h-2v-2l-3 2h-2l1-1c-1-1-2 2-4 0v1c-1-1-2-3-2-1-1 0-2-3-4 0l-1-1c0-2-3-1-4 0v-1l-9-1h-1l-1 1-1 1v-1l-2 1-1-1c1 3-7-1-8 0-2 2-7 0-10 0-2 0-12 1-8-3l1 1c1-2-3-2-3-1h-1v-1l-2 2h2l-2 2-1-3v1h-1c1-1 0-2-1-2l-1 1 2 2-10 1v-2l-1-2v3l-1 1v-1h-1v1c-2 1-5-3-6 0v-1l-1 1c-1-1-3-2-4-1l2 1c-3 1-4-2-5-4 0 3 0 1 1 2 0 2-1 1-1 0v2l-1-1-1 1c-1-2-2 0-3-2l-6 1c0-2-2 0-3-1h-1v-1l-5 2-1-2 1-1h-2v-1c1 1-1 2-2 3 1-3 0-3-1-1l-3-1h-2c1 3 2 1 3 2-1 1-4 1-4-2l-3 3c-1-2-5-1-4-3l-2 1c3 1 0 3-1 0l2-1-1-1-1 1-1-1-1 2v-1l-2-1v1h-1l2 1v1l-3-1c0-2-2-2-3 0 4 3-3 0-1-3-2 1-2 0-2-1l-1 1h-1l-2 2v-1s-2 2-3 1l2-2c1 3 3-3 0-2 1 1 0 2-2 1v2c-1-1 1-2 1-3v-3l-1 1h-2c-1 1 0 2-3 3v-1h-1l1 1-2 2h-1c-1 1-2 1-3-1l2-2h1v-1l-2 2c-1-2-4-1-3-3h-2l-1-1-3 1v1l-3 1-3 1-1-1c1 2-1 2 1 3 0 2-1 1-3 2l-1-1-9 1-1-3-1 2c-1-1-4 2-7-1h1-4 1-4l-6 1v-1c-1 2-3 0-4 0h-3c-4 2-6-1-9 0l1-1c-3 2-5 0-8 1l-1 1c0-3 0 0-2 0l1-1c-2 0-6 2-8 0h-8c-1-3-7 1-10-1l-4-3c-1 0 0 0 0 0l-2 1h-1v2h-1l-2-3v3h1-2s1-1 0 0v-1c-1 2-3 1-4 0 1-1 2 1 3 1 0-2-2-4-4-4l1 2-6 1c-3 4-8 0-11 0l-7-1c-1-1-4-5-2-6l-1-1-1 2h-1v1h2v5l-1-2-2-1 1-1c-2 2-2 0-3-1-2 0 1 2 0 3l-2-1v1l1-1-1 1h2l-2 1v-1l-1 1-2-1 1 1h-8l-2 1v-2h1l-2-1c-1 3-2 1-4 3l-1-1h-4 1-9l1-2h-1c-1 0-1 2-3 2 1-1-1-3-1-3v2c-3 0-7 2-11 1l1-1-11 1v-1l-2 1h-2c0-2 0-1-1 0l-2-1-2-3c-3-1-3 1-4 3-2-1-3 1-5 1l1-1-2-2 1-2c-2 1-6-1-6-2l2 1v-1c-4 0-4-6-8-8v1-1l-4-1v1c-4 0-1-2-4-2 1 2-1 2-2 1l-1 1h-3v-1h-1c-1 1-1-1 0 0v-2c-2 0-3 1-4 3-1 0-2 0-1-1l-1 1-1 1c-1-2-4-1-6-1l-1-2v2l-5-1h-1c-1 1-1-1-2-1l-1 1h-3v-2h-2l-3 2-2-1 1-2c-3 1-2-1-4-1 0 4-5 1-3 0h-1c-2 3-1 1 0 4-1 1-3 0-3-1l-2 2c-2 0-4-4-4-5l1-4-1 1h1c-1 2-3 1-2-1-2 1 1 2-1 2l1 2-1 1c-3 0-3-2-5-2v-1c-2 0-1-1 1-1h-3V9h-2l-1 3h2l-1 3h-3c1-2 2-1 2-4h-3V8c-2 0-1 2-2 3l2 1c0 1-2-1-2 3-3 1-3-2-5-2l1 1-1 2 1-1c4 3-3 3-5 2h-4c-2-1-2-2-5-1 0-2-2-2-2 0l-3-1 1-1-2-1h-2l-3-1c0 1 4 5 1 5h-1v-5h-1v1h-2l-1 2V9l-6 7h1c-1 1-2 2-3 0h1l-1-3h-1l1 2c-1 0-1-5-3-6l-1 1c0 2 1 2 3 3v2l-1 2c-3 0-7 1-6-3v-1l-1-1h-1v-1h1V8c-2 0-2 1-3 2 3 1-2 6-4 4l-2-2-1 1h1c-1 2 0 2-2 3 0-2-1-2-2-2h-2v-1l-1-2c4 0 0 3 7 1v-2c3 2 2 3 6 1-2-2-5 2-4-1l-1-1-2-2q-1.5 3-3 0l1-1-2 1h-2l-1 2V5l-1 2-4-1-2 2 1 2-2-1 1-1c-2 1-2 2-3 1v1-1h1c-3-6-4 3-2 2v1c-1 1-2-2-3 1-2-1-4 0-4-2V9v1l1-1-1-2h-3l2 1c0 3 0 5 2 7-2 4-6 2-3-2 1-1-1-3-2-1v-1h-2l-1 1c1 1-2 2-2 1l2-1-2 1h-2 1l-1 1-2-2c-1 0-2 0-2 2-2 0-2 1-2 2h-1 1l-2-1h-1l-5-1 2 1h-2v1l-1-2-1-1h-1v3c-2 0-4 0-4-2l2 1c-1-1-4-1-1-2l-2-3c0 2-2 3 0 4v1l-1-1h-1l1 1h-2l1 1c-3-2-13 3-12 0l-1 1v-1h1l-1-2-1 1v2l-1 1v-1l-2 1c0-2 0-2-2-2l-2 2h1-1c0-1 0-3-2-4l3-1h-1v2c1-1 0-2 2-1-1-2-2-1-3-2 1 1-1 2-1 2h-2l1 1 2 1-2-1-1 2-1-1-1 1c1 2-3 2-4 3 0-2 1-1 2-2v1h1l-1-3h-2l-1 3-2-1v-3h-2l-1 2-1-1c0 2-3 2-2 4h2l-11 2 1-1-1-1h3l-4-2 1 1-2 1c1 1 0 2-1 2l-9 1v-1h2l-2-2-1 1c0 1 1 2-1 2v1h-1l-1-1 1 1h-8l2-3h-2l-2 3c1 2-11 1-12 2l2-1h-1l-1-1-2-2c0 2 3 2 0 3h1c-1 2-6 2-9 3h-11c1 2-3 0-4 0h1v-1h-2l-1-2c0 1 0 2 2 3-1 2-3 0-5 2 0-2 0-2-2-2h-1v1l-2-1 1 2c-2 0-3 1-4-1h2l-1-1h2v-1l-2 1c-3-3-4-1-6 1h-1l1-1v-2c-1 1-2 0-2-1h-2l1 1h1l-1 3c-2 0-1-1-1-2l-2 2c1 1 1 2 3 2l-3 1 1-2h-1v1l-1-1v1c2 2-2 3-2-1l-2 2v-3q-3 0-3 3l-1-1h1c-1-2-4-4 0-4 0-2-3-2-2-5l3 2v-1h-1 1v-1 1l1 2c2-1 0-2 0-3h-6l1 1-1-1 1-2-4 2 1 1v5l1-2 3-2v2l-1 1 1-1v2c-2 0-2 4-4 0-2 1 0 1-1 2 0 1-2 0-1-1-2 0 0 3 1 4h-1v1l-1-2v2c-3-2-2-6-5 0h2l-2 2v-1h-3v-1h-1 1l-2-2c-2 0-3 1-4-1l-2 2-1-1c0 2 1 2 2 3l2-1-2 1h-3l-1 1c-2-1-2-2-2-4v1-2 3l-1 1c-2-1-3-4-5-1l-1-2c-1 1 0 4-2 2h-1l1 1v3l-1-2v1l-1-1v2c-3 1-3 0-4-2h-2v-1l-1 4c-5-2 0-3-8-3-1 3-2-1-3 2v1-1h-1v2l-2-3v2l-3-1v2c-1 0-2 0 0 0 0-2-1-2-2-1l-5-1h-1l1 2-1-1h-1l-1 3-1-1-1 2v-3h-1v2l-1-2-3 2 1-2h-1v1c-1 0-1-1-2 1l-4-2v1h2c1 3-4 4-4 2h2-1v-2h-2l-1 2h-1l1-1c-1-2-2 1-3 1v-1l-3-1 1 1v1l1 1c-2-2-2 1-4-1l-1 1c0 1-2 0-1-1h-1c-2 0 0 2 0 3h-2v-1 1h-4l-3 1v-3 3h-2l1 1s-6 1-7-1h-1v1-1l-1 1v-1 1l-2-1v2l-2-2 1 2h-2v-1c-4 3-1 0-3 0v1h-2l-1 1c-6 1-2-3-5-2v-2c-2 1 0 2 1 4v1h-1v-1h-1l-1 1h-1v-1c-1 0-3 3-3 0-3 0-5 4-6 1h-1v1h1l-5-1v2h-2v-1l-3-1 1 2v1h-2l-1-1v1h-2 1c-3-1-6 1-6-1l-1 2c-2 0-5-1-4 1h-1l1-1h-6v1h-1c-6-1-15 5-14-4l-1-10-1-1c-1-4 0-3 2-5h-4l1-4 1 1 2-2-3-2h2c-1-2-3-1-4-1l3-2v1c1-2 1-3 4-2l-1-1h-2v-2 1l-1 2c-1 0-2 0-1 1l-2-1 1-2c-3 0 2-5-2-4v-2l1 1c-1-2-3-2-2-5l2 2-1-1h1l-1-1-2 1 2-2-1-1v1l-1-1c-1 1-2 2-2 0h-3l1 1c-3 1-11 1-11-1-1 1-3 2-4 0l-6 1h-1l-3-1 1 1h-6l1-1c-5 1-13 2-17 0l-1 1h-13v-1h-1v1l-3-2 1 1h-1l-5 1 2-4c1-1 1-4-1-4V0v1l-1-1zm-194 13v-1zm194-13h61v11s-3 2-3 0c-1 1-3 2-4 0l-6 1h-1l-3-1 1 1h-6l1-1c-5 1-13 2-17 0l-1 1h-13v-1h-1v1l-3-2 1 1h-1l-5 1 2-4c1-1 1-4-1-4V0v1zm-472 15 1-1zm-311 22h1zM622 20l1-1c1-1 3 0 3 1h-1l-1 1 1-1zM366 52v-2zm329-41 1-1zm402 22h1zm-573-2-1-1zm958 11h1zm-23-19v1zm216-11a4 4 0 0 1 0 1zm59-1h1v2l-2-1h-1zm0 0h-1zm-292 18 1 1h1c-3 2 2 1 3 0v2c2-1 1 2 3 1v1l-3-1-5-1-2-1zM54 12l2-1-1 1v1c1 0 1-1 1 1h-2zm4 1v-1h1v1l1 1h1-1c-1 1-2 0-2-1m53-1h1zv1zm28 0v-2h3v1h2l-1 1v2zm5 0 1-1h1l1 1 1 1-3 1 1-1h-2zm-91-1h1l-1 1zm1-2h1zm1 2v1zm11-1h1zm1212 33v3h-3c1-1 1-3 3-3m-14 0c0 1 0 3-2 3l1-1c0-1-1-1 1-2m7 2h-1zm0-1h1v1l-2-1zm-171-8-1 1v-1zm-7-2-1 3-1-1zm360 0c0 1-2 2-2 0zm0-5c2 1 2 2 1 4zm-918 0c0 2 2 2 2 3h-2zm-1 0-1 2c-2 0-1-2 1-2m895-8h-1l4 2-1 1 2 2h-1v1l-1-1c-4 1-2 0-2-2-2 0 0-2 0-2h-2zm-819 0v1l-1-1zm816-2v3l-1-1-1 1 1-2h-1l1-1 1 1zm5-1v1h-1l1 2c-4 0-2-2 0-3m-9 1-1 1v-1zm-79-2 1 3c-3-1-3 1-5-1 1-2 3 0 4-2m74 1v1h-1 1v1c-3 0-3-3 0-2m-63 0c0 2 1 0 1 1h-2zm3-1 1 2-2-1zm52-1c1 2-1 3-3 2 1-1 2 0 3-2m-45 1 1 2zm9 0 1 1h-2zm15 0-2 1zm-5 0v1l-2-1zm-661-2h1l1 2c-2 0-2 0-2-2m-4-1-1 3c0-1 0 0 0 0v-1zm-9 0h2c-1 2 2 2 2 3-2 0-5 1-4-3m680 2h1v1h-1zm-10-1c1 1 2 1 0 2zm-674-1c2 3-2 2-3 2v1h-4l1-2zm-20 0 2 2c0 2-2 0-3 0h1zm-21 2v1zm758 0 1-1v1l-1 1zm-16-1v1h-1zm182-1v2l-1-1zm-157 0v2c-1-1-2-1 0-2m-743 1c1-1 1 0 1 1zM74 14v1zm-12 0v1zm1509 0 2 1zM76 14h1l-1 1zm612-1c0 1 1 1-1 1zm-582 1h1zm-31 0h-1zm-17-1v1h-1zm638 0h1c0 2-3 0-1 0M82 14h1zm31-1c0 1 1 1-1 1zm-8 0v1h-1zm-80 0v1zm175-1 1 2zm-83 1-2 1zm590-1-2 2c0-2 0-2 2-2m-593 1v1zm90 0h-2c0-2 0-1 2 0M26 13h1zm663-1h1c-1 0-1 2-2 1zm-578 1h1zm-48 0s1 0 0 0m182-1v1l-1-1zm1427 0 2-1-1 1v1c1 0 1-1 1 1h-2zm4 1v-1h1v1l1 1h1-1c-1 1-2 0-2-1m53-1h1zv1zm28 0v-2h3v1h2l-1 1v2zm5 0 1-1h1v1l2 1-3 1 1-1h-2zm-89-1v1zm-1-2h1zm-1 2h1l-1 1zm13-1h1zm8 4v1zm-12 0v1zm14 0h1l-1 1zm30 0h1zm-31 0h-1zm-17-1v1h-1zm24 1h1zm31-1c0 1 1 1-1 1zm-8 0v1h-1zm-80 0v1zm175-1 1 2zm-83 1-2 1zm-3 0v1zm90 0h-2c0-2 0-1 2 0m-178 0h1zm85 0h1zm-48 0s1 0 0 0m182-1v1l-1-1z"/>
    </symbol>
    <symbol id="section2-bottom" viewBox="0 0 1920 300" preserveAspectRatio="none">
      <path fill-rule="nonzero" d="m354 132 4 2v1l-5-1 1-2Zm-4-32v1h1v-1h-1Zm-1 8-3 2c-3 2-2 4 0 6l4-5-1-3Zm0 22h1-1Zm-3 11h1-1Zm30-10 1-1h-2l1 1Zm-14 16 1 1v-1h-1Zm12-24-1 1 1 2 1-2-1-1Zm4 6h1v-1l-1 1Zm-19 15h1v-1l-1 1Zm-39-10h1v-1l-1 1Zm1-12v2-2Zm3 31h1l-1-1v1Zm-14-54-2 1c2 2 2 6 6 6l2-2-1-4-5-1Zm6 17 2 2h1l-1-3-2 1Zm-5-23v1l2-1h-2Zm30 9-1 2h2v-2h-1Zm-3 13h1-1Zm0 19c3 0 3-2 2-4l-2 4Zm4-14 1 1c2-1 4-3 3-5-3 0-4 2-4 4Zm-18-25h1-1Zm-3 7v1l1-1h-1Z"/>
    </symbol>
    <symbol id="scratches" viewBox="0 0 1920 300" preserveAspectRatio="none">
      <path fill="currentColor" d="M71.7 8h3.6-3.6Zm229.7-3.6h-10.8l3.6-3.7h14.3-3.6 14.4l3.6 3.7V.7h7.1c14.4 3.7-17.9 3.7-10.7 3.7h-10.8 7.2-3.6L305 .7l-7.1 3.7h3.5Z"/>
    </symbol>
    <symbol id="button" viewBox="0 0 1920 300" preserveAspectRatio="none">
      <path fill="currentColor" fill-rule="nonzero" d="M1354.9 223.2V222h-.6v2.2l-1-2.2c-1.2 0-1.2.6-1.2 1.7v3.8h-2.7l.5-1.7.6 1c0-1 1.6-2.1 0-3.1v.5l-1.1-1h-.6l-1-1.2h-.6v-1l.6 1c0-.5 1-1.6 2-1.6l1.2 1v-7c0-1 0-2 .6-2.8v-.5 1h1v-6c0-1 0-1.6-1-1.6l1-5.4a7.8 7.8 0 0 1 2.3 5.4l.5-2.2c.6-1-1-1.6-1-2.7h-1.7v-3.8l-1.7 1-1-1v-.7h-2.2c-1.1 1.2.5 1.8-1.1 2.9 0-1.7-1.7-2.8 0-4.5v-1l-.6.5v-5.5l-.5-.6c1-1 1.6-2 1-3.8-1 .6-1.6 1.1-1.6 2.2l-.5 2.7h-.6v-1l-1-1.7h.5v-6c1 0 1.6-.5 1-1-1-1.2 0-1.7 0-2.8 1.2.5 1.7 1 1.2 1.6-1.1 1.1.5 2.7 0 4.4v.5h1c0-2.2 0-3.8 1.7-5.4l.5-1h-1v-2.3h1.6c-1.1-.6-1.6-1-1.6-2.7.5-1 .5-3.3-1.1-4.4l1-1.7.6-2.7c1 1.5 1.4 2.6 1 3.3-1 2.7 0 5.5 1 7.6h1.8c0-2-1-3.8 0-6v-10.3c.6-1.7-1-3.9 0-5.5.6 0 0-.6 0-1l-.5-1.7h2.2c-1.7-1-2.8-1.7-2.8-2.8 1.8 0 2.8-.7 2.8-2.2v-1.6l-.6-3.3-1-2.2h1.6c.5-1.6-1.7-3.2 0-5.4v2.7l.5-4.4c0-2.1 1-4.3-1-6.5v-.6l1-5v-1l-.5-7.6V105h1c-.5-1.6 0-3.8-1-5.5-.6 0 0-1.6 0-2.2l.5-1-1-3.3v-1.1l.5-3.3c0-.5 0-1.6 1-1.6v-1.1c-1.6 0-1-.6-2.1-1.1h2.2V83c-.6.6-.6 0-.6 0l-1-7 1-1.7v-.5l1-4.4h-1c1-1.1 1.7-3.3 1.7-3.8-.6.5-1.1 1.6-3.3 1.6l3.3-5-1.1-1h-1.7v-1.7l2.8-.6-.6-2.2-2.2 1.1c-2.2-1.6 1-3.3 0-5-1.1-.6-1.3-1.7-.5-3.2l.5.6c1-.6 1 0 1 0l1.8.5-.6-2.2V46c0-1.6-1-3.3 0-4.4 0-1.6 0-2.7-1.6-3.8h-2.2l-.6 1-1.6-3.2.5-2.7v-5l1.7-.5v2.2l1.6.5.6 2.8h1v-6.6c0-1 0-2.2-1-2.7v5h-.6v-7.7l-1-1.7v-1.6l-.6-1.7h-.6l-.5-1v-1h-.6V13l-3.2-2.7c1.6 0 2.7 1.6 3.8 2.7v-1.6l-2.2-2.2h-.5l-1.1-.6c-2.8-1-3.3-1.6-4-2.7h-1l-1-.5-1.1-1.1c-1-.5-1.8-.9-2.8-1.1h-3.2l-1.7-.6h-4.4 4.4l.6.6h.5l1 .5h-2.6l-1.7-.5h-3.3 1.7l1 .5h1.2c3.5.6 7 1.5 10.4 2.8l-1.7 1h-.5l-3.3-1h2.2l1 .5h-.5c-.5-.4-1-.8-1.6-1h-1.7l-1-.6h-1.1l-.6-.6h-2.2 1l.7.6h-3.3.5-3.8l-1 .5h-2.3 3.3l-2.2-.5h-.5l-.6-1.1h2.2l-1.6-.6h-20.8l-2.7-.5h-1.1 2.7-15.3l-9.3-.6c3.3-1 6.6-1 9.9-1h-9.3v1h-7.1l2.2.6-2.2 1h-1.1 1l-.5 1.2c1.7 0 3.3-.6 4.4 0-2.7 0-5 1-7.6.5h-4 2.3-18.6l3.3.6 5.5.5h-1.7l-2.7 1-.5-.5h-10.5l-2.2-.5h-5l2.3-.5h10.4-1.1V6c-3.3 0-6.6 0-10-1h-2.6 1.6l-5 .5V4.4l-5.3 1h-11l-4.3-.5h6.5c4.4 0 9.3 0 13.7-1h1l-1.6-1.2h-29.4c-3.8 0-7.6 1.1-10.9 0h-1.6l-3.9.6-.5-1.1c-1.7.5-1.7 1.6-3.8 1.6-.7-1-2.4-1.6-5-1.6h-8.2l-5.4.5h.5l.6-.5c-3.3 0-6.6 1-11 0h5-8.2c-3.9 0-8.2-1.1-12 0h-35v-.6l-9.8.6H1067l-3.8-1.1h-1.6l-2.8 1c0-.5 0-1-1-1h-2.2l-13 .5h-4l-7.6-1-1 .5-6.7-.6c1.7 0 3.3 0 3.3 1.7l-2.7-.6-6.6-1-1.6.5v1h-3.3l-1.6-1.6h-3.3l2.2 1.1c-3.9 1.7-6.6 0-9.9 0-1.4.7-3.5 1-6.5.6h1.6c-1.6-.6.6-.6.6-1.1l.5-.6h-17.5c-3.2 0-5.4 0-7 1.1v1.1h2.1c-4 1-8 1.3-12 1.1h-8.2l-.5-1h2.7l1-.6 5-.6v-.4h-13 3.7l3.3.5h-5l-7 .6H932l-1.5-1.2H925c-1.6-1.1-3.3-1.1-6.6 0h-2.2 4.4l-5 .5 2.8.6h7.7v2.2h-2.7l2-.6H919h1.6-2.2l.6 1.1h-2.2l-1.1.6H914h2c-1.5-.6-2.6-.6-2.6-1.7h1H903l-6-.5h-.5 2.2v-.6h-24c2.7-1 6-1 9.8-1l-4-.6-5.3.5-.6 1.1h-7l2 .6-1.5.5h-1.7 1v1.7h4c-2.8 0-5 1-7.7.5h-3.3 1.7-18l3.2.6h5.5v.5h-1.7l-3.2 1v-.5h-11c0-.5-1.6-1-2.2-.5h-5c1.2-.5 2.3-1 2.9-.5h9.8V6h-1.1c-3.3 0-6.6 0-9.3-1h-2.6 1-4.8v-.6c-1.1.5-2.2 1-5 .5l-8.2.6h-3.8l-3.8-.6 5.5-.5 14.2-.6h1l-1.6-1h-29.5c-3.8 0-7.6 1-11 0H778l-.6-.6-3.8 1.6c-.4-1-1.9-1.6-4.4-1.6h-8.8l-5.4.5h1v-.5c-3.2-.6-6.5 1-11 0h5-8.1c-4 0-8.2-1.1-12 0h-34V1.1h-10.3c-.6.5-2.7 0-4.4 0h-1.6l-5.5.5h-8.7l-3.3-.5h-1.6c0 .5-1.7 0-2.8 1l-.5-1h-2.8l-13.2.5h-2.7l-.5-.5h-9.3c-1.7 0-5.5-1.1-7-.6 1.5 0 3.2 0 3.7 1.7l-3.3-.6-6-1H614v1h-3.3L609.2 0l-3.3.5 2.2 1.1c-3.8 1.7-6.5 0-9.8 0-1.5.7-3.5.7-6 0h1.6c-1.6 0 0 0 0-.5l.6-.6H577l-7 .6v1.6h2.1c-4 .8-8 1-12 .6h-7.7l-1-.6h2.6l1.7-1h4.3v-.6h-6.5c-2.2.5-5 0-6 1h6.5-12l-3.3.6h-8.2l4.4-.5c-1.8-.5-3.7-.5-5.5 0l-3.8-.6h-2c-1-1-3.3-1-6 0h-2.8 4.4-4.4c0 1.1 1.6 1.1 2.7 1.1h7.7v1.1H522h2.7c-2.2 0-4.3-1-7 0h1.6-2.2l1 .6-2.7.5h-2.8 2.2c-1 0-2.7 0-2.7-1h1.6l-2.7-.6h-16 2.8v-.6h-24.6c2.7-1 6.5-1 9.8-1l-3.8-.6-5.5.5-.5.6h-7l2.1 1-1.7.6h-1 .5v1.7h3.8c-2.7 0-4.4 1-7 0H459l1.6.5H442l4 .6h5.3v.5h-1.6l-3.3.5h-11c.7-1-1-1-1.5-.5h-5.3l2.7-1c2.6 1 5.4 0 8.1 0h1.6-1 .5c-3.3 0-6.6 0-9.7-1.2H428h1-4.3v-.5l-5.4.5-8.2.6h-3.5l-4.4-.6c3.9-1 4.4-1 6-.5l14.3-.6h.5l-1-1h-46l-1-.6c-1.2 0-1.7 1-4 1 0-1-.5-1-4.3-1H359l-5 .5 1.2-1c-4 0-6.6 1-11 0h4.4-64c-1 .5-3.2 0-4.3 0h-7.6l-2.8.5h-6c-1 0-2.7 0-3.3-1.1H259c.5 1-1.6 1-2.2 1.6l-1-1.6h-1.2l-14.2.5h-13l-7.2-1 3.8 1.6h-2.7l-6.6-1.1h-2.1v1h-2.8c-1 0-1-1-1.6-1.6l-3.3.6 1.7 1c-3.3 1.2-6 0-9.3 0-2.2 1.2-2.8 1.2-6.6 0h1.7c-1.7 0 0 0 0-.5l1-.5H176l-7.1.5v1.1l1.6.6c-3.8.7-7.6.8-11.5.5h-8.2l-1-.5h3.2l1.1-1.1h5V1.1h-6.5c-2.2.5-5.5 0-6.6 1h7.1-15.8v.6h-8.2l4.3-.5c-1.8-.4-3.6-.4-5.4 0-2.2 0-3.3 0-3.8-1.1h-11l5 .5h-5.6c1 1.1 2.2 1.1 3.3 1.1h7.6v1.1l-3.3-.5h2.8c-2.2-.6-4.4-1.1-7 0h1.5-2.2l1.1.5-2.7.6h-2 2.1c-1.7 0-3.3 0-3.3-1.1l1.6-.6H94.7l-1-.5h2.6-24.7l10-1.7h-9.2v1.1h-7.8l2.2 1.1-1.6.6h-1 1l-.6.9 4.4.6c-2.8 0-5.5 1.1-7.7 0h-3.2 1.5l-3.8.6H52c-1.8-.2-3.6-.2-5.4 0h-11 6l7.7 1h-2.2l-3.8.6h-7.6.5-5.5l-2.2 1c0-.5 0-1-1-.5h-2.9l-1 1.1h-2.8l-1 .6.5-.6h.5v-.4c4.4-.6 6.6-2.2 11-2.2H34h-1.6v-.5H29l-9.8 1.6-3.3 1h2.2-.6l-1 .6-1.2 1.1h-1V12l-1.7-.5v.5l-.5.6-1 2.2-1.2 1v.6l-1 1v2.3l.4 1.6V23l-1 1.7V28c-.7-1-1.2-2.2-1.7-3.3v-3.4l.5-1.6v-1l1.1-1.8.6-2.7v-.5h.5L10 12l.5-1h-1l-1.2.5v.5l-1 .6v.5C6 14.1 6 14.7 6 15.7l-.5.6v1H5v2l-.6.5v1L4 22v12c-.6 1.6 1.6 3.8 0 5.4v1.1l.5 2.2h-2c1.5.6 2.5 1.1 3 2.3-1.8 0-2.7.8-2.7 2.2v4.4l1 2.1H2.4c-.5 1.7 2.2 3.3 0 5.5V57l-.6 4.3c0 1.6-1 4.5 1 6v1l-1 4.6v1.5l.5 8.2v2.8h-1c1 2.2 0 3.9 1 5.5v2.7l-.5.6 1 3.2v4.4c-.5 1 0 1.7-1.6 1.7v1c1.7 0 1.1.6 2.2 1.7H1.2v1h.6l1 7.7-1 1v.7l-1.2 4.3 1 .6c-1 .5-1.6 2.7-1.6 3.8.6-1 1.1-2.2 3.3-2.2L0 128l1.1 1h2.2v1.7l-2.7 1 .5 1.7 2.2-1c2.2 2.1-.5 3.2 0 5.4 1.2.7 1.4 1.8.6 3.3l-.6-1c-1 1-.5 0-1 0H1.1v4.2c0 1.1 1.1 2.8 0 4 0 1.5 0 2.6 1.7 3.7H5l.5-1 1.6 3.2-.5 3.2v4l-1.6.4v-1.5H3.4v-3H1.8v3.3c.5 1.1-1 2.8 1 3.3v-2.2l.6-1.6c0 1 1.1 2.2.6 2.7v6h1l-.5 2.2v2.2h-.9l-.6-2.7c-1.7 1-1.7 2.1-1 3.2 1 1.1 0 1.7 0 1.7v1C-.5 177.8-.5 179 .5 180v2.2h1v-2.8l.6 2.7c1.7 0 1.7-.5 1.7-1.6l-.6-3.8h3.3l-1 1.6v-1c-.5 1-1.6 2.1 0 3.2v-.6L6 181l1.1-.5 1.1 1v2.3-2.2c-.5.5-1 1.6-2.2 1.6l-1-1v7c0 1-.4 2-1 2.8v.5-1 2.7l-.7 3.9c0 1 0 1.6 1.1 1.6 0 2.2-1.6 3.3-1.6 5.5l-1.7-5.5-1 2.2c0 1 1.6 1.6 1.6 2.7h1v3.9c1.2 0 1.7-.6 1.7-1.1l1.6 1v.6h3c.5-1-1-2.2 1-2.7 0 1.6 1.7 2.7 0 4.3v1.7l.6-.6v5.5l-1 3.3c1 0 2.1-.6 2.1-1.7l.6-2.7h.5v.5l1.1 1.7h-.5v6c-1 0-1.7.5-1 1 1 1.2 0 1.7 0 2.8-1.2-.5-1.8-1-1.2-1.6 1-1.1-.6-2.7-.6-4.4v-.5H9c0 2.2 0 3.8-1 5.4l-.7 1H9v2.3H7.2c1.1.6 1.7 1 1.1 2.7 0 1 0 3.3 1.1 4.4l-.5 1.6-1 2.2c-.8-1.5-1-2.5-.7-3.2.6-2.2 0-5-1-7.1H3.3c0 2 1.7 3.8.6 5.4v11c-1 1.6 1 3.8-.6 5.4v1l1.1 1.7h-2c1 1.1 2.7 1.1 2.7 2.8-1.8 0-2.8.7-2.8 2.2v4.9l1.7 2.2H1.8v2.1l.5 1.1.6 2.8v2.7l-.6-4.4-.5 5.5v2.2l1 2.2.6 1.6.6 1.1 5.4 3.8h1.2v.6h1l2.2 1.6 2.2 1.1 5.4 2.2h2.2l1.1.5h3l1.5.6h29v.5H68c1-.5 3.3 0 4.4 0H74l6-.5h8.2l3.8.5h1.6c-.6-.5 1 0 2.1-1l1.1 1h2.8l13-.5h2.8l.6.5h9.3c1.6 0 5.4 1.1 6.5.6-1 0-3.3 0-3.3-1h2.8l6.5 1h2.2v-1h2.7c1.1 0 1.1 1 1.7 1.5l3.3-.5-1.7-1c3.3-1.2 6 0 9.3 0 2.2-1.2 2.7-1.2 6.6 0h-1.7c1.7 0 0 0 0 .4l-1 .6h17.4l7.1-.6v-1.6h-1.6c3.8-.7 7.6-.9 11.4-.6h8.2l1.1.6h-3.2l-1.1 1h-5v1.2h6.6c2.2-.6 5.5 0 6.6-1H200h12.6l3.2-.7h8.2l-4.3.6h5.4l3.9.5h1.6c1.6 1.1 3.8 1.1 6.5 0h2.8-5 5.5c-1-1-2.2-1-3.3-1h-7.6V293h3.3-2.8c2.2 0 4.4 1.1 7 0h-1.5 2.2l-1.1-.5 2.7-.6h2.2-2.2c1.7 0 3.3 0 2.8 1.1H241l2.2.6h16.3-2.7v.5h24.7c-3.3 1.1-6.6 1.1-9.8 1.1l3.8.6 5.5-.6v-.5h7.6l-2.7-1 2.2-.7h1-1l.5-1.6c-1.6 0-3.3.5-4.4 0 2.8 0 5.5-1 7.7 0h3.8l-2.7-.5h18.5c-1-.6-2.2-.8-3.3-.6h-5.5v-.5h1.6l2.8-.6h11c0 1.1 1.5 1.1 2 .6h5l-2.2 1c-3.3-1-5.4 0-8.2 0h-2.2 1c3.4 0 6.7 0 10 1.1h2.7-1.6 4.9v.6l5.4-.6 7-1h4l4.3.5c-2.9.7-4.9.9-6 .5l-14.2.6h-1l1.6 1h45.9l.5.6c1.7 0 1.7-1 4.4-1 0 .7 1.4 1 4.4 1h8.7l4.4-.5-.6 1c3.3 0 6.6-1 11 0h-5 65c1-.5 2.7 0 4.3 0h7.1l3.3-.5h5.5c1.6 0 3.2 0 3.2 1.1h1.7c0-1 1.6-1 2.7-1.6 0 .5 0 1 1.1 1.6h1.6c-1-.5 0-.5.6-.5h26.2l6.6 1c-1.7-.5-3.3-.5-3.3-1.6h2.7l6.6 1.1h1.6v-1h3.3c1 0 1 1 1.6 1.6l3.3-.6-2.2-1c3.8-1.2 6.6 0 10 0 1.3-.8 3.5-.8 6.4 0h-1.6c1.6 0-.6 0-.6.5l-.5.5H578l7-.5v-1l-2-.7c4-.7 8-.9 12-.5h8.1l.5.5H601l-1 1.1h-5v1.1h6.6c2.1-.5 5.4 0 6.5-1h-7H617v-.6h7.6l1.6 1h5.5c1.6 1.2 3.3 1.2 6.6 0l1 .6h1.1l-4.3-.5h5c-.7-1-1.7-1-2.8-1h-7.7v-.7l2.7.6h-2c2 .5 4.2 1 6.4 0H636h2.2l-.6-.6 2.2-.5h2.7-2.2c1.7 0 2.8 0 2.8 1l-1 .6H659l.5.6h-2.2 24c-2.7 1-6 1.6-9.8 1.6h9.8v-1h7.1l-2.2-1.2 1.7-.5h1.6-1v-1.2l-3.9-.6c2.7 0 5-1 7.7 0h3.2-1.6l7.6-.5h5.5l6 .5c-1-.8-2.5-1.2-3.8-1h-5.5v-.6h2.2l2.7-.5h11c0 1 1.6 1 2.2 1h4.9-2.8l-8.2.6H714h1v.5l9.4.6 2.7.5-1-.5h4.8v1c1-1 2.2-1 5-1h15.8c-2.5.7-4.4.9-5.5.5-5.4 0-9.8 0-14.2 1.1h-1l1.6.6h45.8l.5 1c1-1 1.7-1.6 3.8-1.6.4.8 1.9 1.1 4.4 1.1h14.3-1 10.9-5l8.2.6H896l2.8-.6.5 1.1h2.7l13.2-1 2.7.5h1.6l7.7.5h7.5c-1.6 0-3.2 0-3.7-1h3.3l6 1.6 2.1-.6v-1h3.3l1.6 1.6h3.3c-.6-1-1.7-1-2.2-1.7 3.8-1 6.5.6 9.8 0h6-1.6c1.6.6 0 .6 0 .6l-.6 1h10c2.1 0 5.3-1 7.5-.5l7.1-.5v-1l-2.2-.7c4-.5 8-.5 12 0h8.8-2.7l-1.7 1.1h-4.3v1.1h6.5c2.2 0 5 .6 6-.5h-6c1.7 0 2.7-1 5-.6h10.3v-.5h8.2l-4.4.5c1.7 1 3.7 1.2 5.5.6h6c1.1 1.6 3.3 1.6 6 .5h2.8-4.4l4.4-.5c0-1-1.7-1-2.8-1h-7.6v-1.2h3.3-2.8c2.2.5 4.4 1 7.1.5h-1.6l2.2-.5-1-.6h2.6l1.1-1v.5h1.6-2c1 0 2.6 0 2.6 1l-1 .6h11l5.3.6h1-2.7 15.3l9.3.5-9.8 1.1h9.3l.5-1h7.1l-2.2-1.2h1.7v-.5h1-.5v-1h-3.8c2.7 0 4.4-1.7 7.1-.7h3.8-1.6 9.8l1.1-.5h1.1l6.6.5a5.4 5.4 0 0 0-3.9-1h-5.4l.5-.6h17.5l5.5.6-2.8.5h-9.8 1.1l-.5.5c3.2 0 6.5 0 9.8 1.1h2.7l-1-.5h4.3v1l5.5-1h15.3l-6 1h-13.7l-1 .6 1 1.1c4 0 7.1-1 11 0h19c3.9 0 7.7-1 11 0h1.6l3.3-.5 1 1c1.2-.5 1.7-1.6 3.9-1.6 0 1.7.5 1.7 4.4 1.7h8.7l5-1v.4l-1.2.6c3.9 0 6.6-1 11 0h-4.4 54v.5l10-.5h20.7l3.3.5h1.6c-.6-1 1.6-.5 2.2-1l1 1h2.8l11-.5h9.8l.5-.6h7.7l10.9-3.3v-1l4.9-1.7 3.3-2.7c-1.7 1-3.8 2.2-5.5 1.6h.6l1-.5 1.7-1 1-1.2h1.2v-1h1V283l1.2-.5v-2.8h-1.7v-1l.6-.6v-1l1-.7h.6l1.7-.5-1.1-3.3-2.2 1.7c-.4-.9-.6-1.8-.6-2.8V269h.6v-1l.5-1.7c-1.5-.7-1.8-1.8-1-3.3l1 1c.6-1 0 0 1 0h1.2v-2.1c-1-1.1 0-1.6 0-2.7-.5-1.1-1-2.8-.5-3.9 0-1.6 0-2.7-1.1-3.8h-2.2l-1.1 1-1.1-3.7v-7.1h1.6v1l1.7 1.2.5 2.2h1.7v-3.3c-1.1-1.1 1-2.8-1.7-3.3v3.3l-1-2.2v-6h-.6v-2.1c.5-.6 0-1.1 0-2.2h1v2.7c1.7-1 1.7-2.1 1.2-3.2-.6-1.1 0-1.7.5-2.2v-.6c2.2-1 2.2-2.2.6-3.8Z"/>
    </symbol>
  </defs>
</svg>
