<svg xmlns="http://www.w3.org/2000/svg" display="none"><symbol preserveAspectRatio="none" viewBox="0 0 1440 150"><path d="m0 60 20-15 25 25 35-40 40 25 40-35 40 30 50-15 50 25 60-35 60 30 60-15 60 25 60-35 60 20 60-15 60 25 60-35 60 25 60-10 60 25 60-35 60 25 60-20 60 25 60-35 60 25 60-10v110H0Z"/></symbol><symbol preserveAspectRatio="none" viewBox="0 0 1440 150"><path d="m0 110 20 15 25-25 35 30 40-25 40 25 40-20 50 15 50-25 60 30 60-25 60 15 60-20 60 30 60-20 60 15 60-25 60 30 60-20 60 10 60-15 60 25 60-20 60 15 60-25 60 30 60-20 60 10V0H0Z"/></symbol><symbol preserveAspectRatio="none" viewBox="0 0 300 60"><path d="m3 8 5-5 284-1 6 5 1 46-5 5L6 59l-4-5Z"/></symbol><symbol preserveAspectRatio="none" viewBox="0 0 170 6"><path d="M0 3q20-3 40 0t40 0 40 0 40 0h10"/></symbol></svg>