<svg xmlns="http://www.w3.org/2000/svg" xml:space="preserve" fill-rule="evenodd" stroke-linejoin="round" stroke-miterlimit="2" clip-rule="evenodd" viewBox="0 0 1921 67"><path d="M1543 65h-1c1 0 0 0 0 0zm0 0 4 1s2 1 0 1zm-181-46h-1zm0 0v-1h2v1zm-88 22 1 2h-1c0 2 0 4-3 4l2-2c-1-1-1-3 1-4m182-9 1 4h1v1l-4-1 1-2h-1l-1 1zm0-1h3zv1zm128-17 2 1h-3zM73 13v1h-1zm0 0h-1zm-16-1a4 4 0 0 1 0 1zm59-1h1v2l-1-1h-2zm0 0h-1zm1574 2h1zm0 0 1 1h-1zM241 0c-1 1-2 3-1 4h1l1 1c-2 1 0 3 0 5h-4l2 1-1 1h-4l1-1h-1c-2 1-1-1-4 1l-1-1h-2 1l-2-2-1 2h-1l-3-2c-2-1-1 1-2 1h-2V9c-1 1-1-1-2 1l-2-2v2l-2-1V8c-1 0-2-1-2 1q-1.5 0 0 0h-3V6l-1 2-1-2c0 2 2 2 1 3s-1-1-2-1l1 1-1 2-1-3h-1v2c-3-1 0-3 0-5l-1-2c-1-1-2 0-2 1V1l-2 2 3 3-1 1c1 0 2 0 1 1h-1V7l-1 3V9v1c1 2 0 2-1 1v-1l1 1c0-1-1-2-3-2l-1-2v3l-2-1h-1V8v2l-1-2-1-1c1 1-2 5-3 3v2l-1-3 1 1 1-1V7l-3 1h-1V7c2 1 1-1 0 0v1l-3-1 1 2c1-2 2 1 4-1l-4 4h-2l2-1h-4l1 2h-2v-1c2 1 1-1 0 0l-2 1v-1c-2 1-1-2-3-2h-2v1c1 0 3-1 2 1h-7l-1-1-7 1v-1c-2 0 0 3-4 0l-1 1-1-3v2h-2l1-2h-2 1v1h-1v1c-1-3-4-1-3-3h-1l-4-2v2c-2 1-2-2-3-2l1 1c0 2-1 3-2 2h-4V8h2-3 1c-1 1 0 2 1 3l-2 1-1-1-4 1q0 1.5 0 0h-1 1-2v1-1h-3 1l-1 1v-1h-1l-1 1v1h-1v-2h1-1c3-3 3-2 1-5v1h-1v2h-2V9h2c-2-1-4 1-4-2-2 0-1 2 0 2l-1 1-1-2-1 1V7c-1 0-2 1-1 3l-1 2c-1-1 0-4-2-4v2c-1-1-2-1-2-3h-1c1 3 3 3 4 5l-2-1h-2v1l-5-1 1 1h-4 1l-1 1v-1h-9v1h-1v-1h-1s-1 0 0 0v1h-2l-2 1c0-1 2 0 1-1l-3-1h-2l-1 1v-1h-1l2-1h-7l1 1v1h-3v-1h1l1-1h-3c0-2 3 1 3-3-2 4-3-1-4 2l2 2h-2l-1 1v-1l1-1-1 1-3-2h-2c-2 0 0 0 0 0l-2-3v1l-1 2c-1-2-2-3-2-1l-3-1-1 1 2 1h1l-1 1 1 1-2 1h-2v-1l1-1 1 1-2-3h-2l-1-2v2h-1V7v1h-3V7l-2 1 1 1V8v1h1l-1 1 1 1V9h3v1l1-1c1 2 2 0 3 1v2h-2v1h-1v1-1h-1l1-1h-3c2 1 1 0 0 2v-1h-3l1 1-1-1h-4c1 1 0 1-1 1l1-1c-1 0-4 1-2-1h-9c-2 0-5 2-5 0-4 2-6 1-9 1 1 2-5 0-5 0-9 5-5-9-6-13zM47 13v-1zM1859 0c-1 1-2 3-1 4h1l1 1c-2 1 0 3 0 5h-4l2 1-1 1h-4l1-1h-1c-2 1-1-1-4 1l-1-1h-2 1l-2-2-1 2h-1l-3-2c-2-1-1 1-2 1h-2V9c-1 1-1-1-2 1l-2-2v2l-2-1V8c-1 0-2-1-2 1q-1.5 0 0 0h-3V6l-1 2-1-2c0 2 2 2 1 3s-1-1-2-1l1 1-1 2-1-3h-1v2c-3-1 0-3 0-5l-1-2c-1-1-2 0-2 1V1l-2 2 3 3-1 1c1 0 2 0 1 1h-1V7l-1 3V9v1c1 2 0 2-1 1v-1l1 1c0-1-1-2-3-2l-1-2v3l-2-1h-1V8v2l-1-2-1-1c1 1-2 5-3 3v2l-1-3 1 1 1-1V7l-3 1h-1V7c2 1 1-1 0 0v1l-3-1 1 2c1-2 2 1 4-1l-4 4h-2l2-1h-4l1 2h-2v-1c2 1 1-1 0 0l-2 1v-1c-2 1-1-2-3-2h-2v1c1 0 3-1 2 1h-8v-1l-7 1v-1c-2 0 0 3-4 0l-1 1-1-3v2h-2l1-2h-2 1v1h-1v1c-1-3-4-1-3-3h-1l-4-2v2c-2 1-2-2-3-2l1 1c0 2-1 3-2 2h-4V8h2-3 1c-1 1 0 2 1 3l-2 1-1-1-4 1h-1 1-2v1-1h-3 1l-1 1v-1h-1l-1 1v1h-1v-2h1-1c3-3 3-2 1-5v1h-1v2h-2V9h2c-2-1-4 1-4-2-2 0-1 2 0 2l-1 1-1-2-1 1V7c-1 0-2 1-1 3l-1 2c-1-1 0-4-2-4v2c-1-1-2-1-2-3h-1c1 3 3 3 4 5l-2-1h-2v1l-5-1 1 1h-4 1l-1 1v-1h-9v1h-1v-1h-1s-1 0 0 0v1h-2l-2 1c0-1 2 0 1-1l-3-1h-3v1l-1-1 2-1h-7l1 1v1h-3v-1h1l1-1h-3c0-2 3 1 3-3-2 4-3-1-4 2l2 2h-2l-1 1v-1l1-1-1 1-3-2h-2c-2 0 0 0 0 0l-2-3v1l-1 2c-1-2-2-3-2-1l-3-1-1 1 2 1h1l-1 1 1 1-2 1h-2v-1l1-1 1 1-2-3h-2l-1-2v2h-1V7v1h-3V7l-2 1 1 1V8v1h1l-1 1 1 1V9h3v1l1-1c1 2 2 0 3 1v2h-2v1h-1v1-1h-1l1-1h-3c2 1 1 0 0 2v-1h-3l1 1-1-1h-4c1 1 0 1-1 1l1-1c-1 0-4 1-2-1h-9c-2 0-5 2-5 0-4 2-6 1-9 1 1 2-5 0-5 0l-4 1-1 2s-3-1-2 1l-1-4 2 1c0-2-2-1-3-1v-1l-3 1h-1l2 2c-1 1-2 1 0 1v1h-1l1 1 1 1-1-1c-1 0-2-3-4-2l-2-2 1-1h-3l-2 1 1 1 1 2h1c0 1 1-1 1 1l-3-1v1-2h-2v-1l-1 2-2 1 1-1c-1-1 1-2 2-2v1h1c-1-2 0-2 1-3h-3c-1-2-2-1-2 1l-2-1-1-1c-1 1 0 5-2 3h1v-1l-1 1-1-1 1 2c-2 0-3 0-3-2l1-2-1 2v-3c-2 0-2 1-2 2l-2-1v1l-1 1-1-1h-1l-1 1c-1 1-2-1-3 1v-1h-4c-1-1 1 0 1-1h-3l1-1 1-1h-1l-1 3h-1v-3l-1 2h-1v-2l-2 1v1l-1-2v2l-2-1 1 2 1-1h1l1 3c-2 1-3 0-1-2l-1 1h-2v-1l-1 1h-1l1-3v-1l-1 1c-6 15-12 35-19 50l-1 3-1-1 1 1c-3 0 0-2-4-1v-1h-3c0-2-2-1-3-3 0 3-5 2-5-1-2 2-9-1-12-2l3-1 1-1h-3l-2-1c0-1 1-1-1-2 0 2-2 2-4 2v-1h-2c-2 2-4-3-7-1l-1-1 1-1h-3l1 1h-1c-1 0-5-1-7-3v1l-4-3 1-2h-1l-1 3-2-1h1-1l1-3c-1 0-2 0-1-2l-1 1h-2l1 1c-3 2-8 1-7-3-2 1-1 2-1 3l-3-2v-2h-2v1c-1 0-3 0-2-2h-3 3v-1h-3l-2-4c1 1 3 0 2 2 2-1 0-1 1-2 2 0 2-1 1-2v1l-1-2h-3v-1h2c-2-2-2 1-4 2l-1-3v2h-1v1c-2-2 0-3-2-4l1-1c2 2 3 1 1-1 5-1 2-3 0-2l1 1-2 1-1-1 1-1c-2 1 1 2-2 2l1 2-1 2h1l-1 1v-2l-2-3-2-1h1v-1h1l-2-1-2 4v-4l-2 2 1 2h2l-1 1v1h1v-1l1 1h-1v3l2-1-2 1 2 1c1 2-1 0-2 2l-1-2-1-1h2l-1-1-1-2-1 2h-1v-2c-3-3-4 3-6-1h3l-1-1h3l-1-1-1-1-1 1v-1c-1 1-1 0-3-1h-2c-2 0-1-1 1-2-2-1-1-2 1-2l-1-1c1-1 3-1 2 1h1v1c-3-1-2 2 0 0l1-3v3l4-1-1-1c-2 0-2-2-3-3 0 2-1 1-2 2v-2l-1 1h-2v-1h-1v2-2l-1 1v1h-2l1-2c-2 2-3 0-1 0v-1c0-2-3-4-4 0h-1l-1-2c1 1 0 3-1 2l1-2h-1v1l-1 2v-3h-3v1h1v1l1 1h1v1l-1-1c0 1 1 2 2 1l1 1h1l-1 1c-1-1-4 0-4-3l-1 1c0-1 0-3-1-2 0 1-2-1-1 1h1l-1 3c0-3-3-1-4-3 2-3-1-1-1-3v-1l-1 2c0 1 0 3 2 1v1h-1l-4-2v2h-2l-2-4v3l-1-3-2 1v5l-2-1-1 1-2-2v1h-2l2-2c0 1 2 2 2 0l-1-1-3-1 2-1h-3v2h1c0 2-3-1-5-1l-1 3v-1c0-2-2-2-3-1 0-2-3-1-4-1l2 1 1 1h-1v1l-1 2-1-1 1-1h-2l-1-4-1 2c-1-3-3-2-3-5l-2 2c3 1 2 6 0 8h-1l1-1c0-3-3-1-4 0v-1h-1l-1-1 1-1-3-1c-2 1-1 2-4 1 3-2 7-4 0-4v2l-1 1h-1l2 1-1 2-1 1 1-1c-3-2 0-4-4-1l-1-1c-2 0-3 2-4-1l-1 2h-1l1 3c-2-1-2-3-3-2h-1l-2-2c-1 2 1 3 1 4l-1-2c-2-1-5 1-7-1v2h-2v2h-2l-1-1v1h-5v-2c1 0 1 2 2 1l-1-4c-1 2-3 7-5 3-1 1 0 4-2 2v1-1h-1c-1-1-1 0-1 1l-2-3-1 1h-2l-1-1-2 2-2-1c0 1 0 2 2 2l-3-1v1h-2v-3h1l-1-1c0 2-2 5-2 2l-4 2v-1l-1 1-2 1 1 1 1-1h1v4l-1-1-2-1 2 2-1 1-1-1v2h-1 3c0 2-3 1-4 1 0 2 3 1 3 4-2 0-2-2-3-2v3l-2-1 1-1c-2 1-1 4 0 2h2l-1 1c1 1 3 1 3-1 2 1 1 3-1 4l2 2-1 1v-1c-2-1-3-2-3 1l3 1v5l-3 2v1l-1-1h1c0-1-1-2-1 0v-1h-2l2 2-2-1h-1l1 1-2-1h-1c-1-2 1-1 2-1l-1-1c-2 0-2 0-3 2-2-2-2-2-4-1v1c1-1 2 0 2 1l-2-1c-2-1-6 1-5-2h-2l3-1-3-1 2-2-2 1v-2l-3 1 1-1-1-1c0-1 0-2 2-1l-1-1c2-2 2 2 3 1-1-3-2-1-2-5h-2l1 3h-1c-3 0-1 3-1 4-2 0-4-1-4 1-2 0-2-1-3-3-2 1-2-2-3-3v-1l2 2v-1l-2-1c4 0 2-4 0-3 1 2 0 3-2 3l2 3v-1c1 2 0 4-2 3l1 1c1 0 2 3 2 1 2 1 0 3-1 2h-1l1 1c-2 0-1-2-1-4l-1 1h-2v1l-1 1h-2v-2l-3 2h-2l1-1c-1-1-2 2-4 0v1c-1-1-2-3-2-1-1 0-2-3-4 0l-1-1c0-2-3-1-4 0v-1l-9-1h-1l-1 1-1 1v-1l-2 1-1-1c1 3-7-1-8 0-2 2-7 0-10 0-2 0-12 1-8-3l1 1c1-2-3-2-3-1h-1v-1l-2 2h2l-2 2-1-3v1h-1c1-1 0-2-1-2l-1 1 2 2-10 1v-2l-1-2v3l-1 1v-1h-1v1c-2 1-5-3-6 0v-1l-1 1c-1-1-3-2-4-1l2 1c-3 1-4-2-5-4 0 3 0 1 1 2 0 2-1 1-1 0v2l-1-1-1 1c-1-2-2 0-3-2l-6 1c0-2-2 0-3-1h-1v-1l-5 2-1-2 1-1h-2v-1c1 1-1 2-2 3 1-3 0-3-1-1l-3-1h-2c1 3 2 1 3 2-1 1-4 1-4-2l-3 3c-1-2-5-1-4-3l-2 1c3 1 0 3-1 0l2-1-1-1-1 1-1-1-1 2v-1l-2-1v1h-1l2 1v1l-3-1c0-2-2-2-3 0 4 3-3 0-1-3-2 1-2 0-2-1l-1 1h-1l-2 2v-1s-2 2-3 1l2-2c1 3 3-3 0-2 1 1 0 2-2 1v2c-1-1 1-2 1-3v-3l-1 1h-2c-1 1 0 2-3 3v-1h-1l1 1-2 2h-1c-1 1-2 1-3-1l2-2h1v-1l-2 2c-1-2-4-1-3-3h-2l-1-1-3 1v1l-3 1-3 1-1-1c1 2-1 2 1 3 0 2-1 1-3 2l-1-1-9 1-1-3-1 2c-1-1-4 2-7-1h1-4 1-4l-6 1v-1c-1 2-3 0-4 0h-3c-4 2-6-1-9 0l1-1c-3 2-5 0-8 1l-1 1c0-3 0 0-2 0l1-1c-2 0-6 2-8 0h-8c-1-3-7 1-10-1l-4-3c-1 0 0 0 0 0l-2 1h-1v2h-1l-2-3v3h1-2s1-1 0 0v-1c-1 2-3 1-4 0 1-1 2 1 3 1 0-2-2-4-4-4l1 2-6 1c-3 4-8 0-11 0l-7-1c-1-1-4-5-2-6l-1-1-1 2h-1v1h2v5l-1-2-2-1 1-1c-2 2-2 0-3-1-2 0 1 2 0 3l-2-1v1l1-1-1 1h2l-2 1v-1l-1 1-2-1 1 1h-8l-2 1v-2h1l-2-1c-1 3-2 1-4 3l-1-1h-4 1-9l1-2h-1c-1 0-1 2-3 2 1-1-1-3-1-3v2c-3 0-7 2-11 1l1-1-11 1v-1l-2 1h-2c0-2 0-1-1 0l-2-1-2-3c-3-1-3 1-4 3-2-1-3 1-5 1l1-1-2-2 1-2c-2 1-6-1-6-2l2 1v-1c-4 0-4-6-8-8v1-1l-4-1v1c-4 0-1-2-4-2 1 2-1 2-2 1l-1 1h-3v-1h-1c-1 1-1-1 0 0v-2c-2 0-3 1-4 3-1 0-2 0-1-1l-1 1-1 1c-1-2-4-1-6-1l-1-2v2l-5-1h-1c-1 1-1-1-2-1l-1 1h-3v-2h-2l-3 2-2-1 1-2c-3 1-2-1-4-1 0 4-5 1-3 0h-1c-2 3-1 1 0 4-1 1-3 0-3-1l-2 2c-2 0-4-4-4-5l1-4-1 1h1c-1 2-3 1-2-1-2 1 1 2-1 2l1 2-1 1c-3 0-3-2-5-2v-1c-2 0-1-1 1-1h-3V9h-2l-1 3h2l-1 3h-3c1-2 2-1 2-4h-3V8c-2 0-1 2-2 3l2 1c0 1-2-1-2 3-3 1-3-2-5-2l1 1-1 2 1-1c4 3-3 3-5 2h-4c-2-1-2-2-5-1 0-2-2-2-2 0l-3-1 1-1-2-1h-2l-3-1c0 1 4 5 1 5h-1v-5h-1v1h-2l-1 2V9l-6 7h1c-1 1-2 2-3 0h1l-1-3h-1l1 2c-1 0-1-5-3-6l-1 1c0 2 1 2 3 3v2l-1 2c-3 0-7 1-6-3v-1l-1-1h-1v-1h1V8c-2 0-2 1-3 2 3 1-2 6-4 4l-2-2-1 1h1c-1 2 0 2-2 3 0-2-1-2-2-2h-2v-1l-1-2c4 0 0 3 7 1v-2c3 2 2 3 6 1-2-2-5 2-4-1l-1-1-2-2q-1.5 3-3 0l1-1-2 1h-2l-1 2V5l-1 2-4-1-2 2 1 2-2-1 1-1c-2 1-2 2-3 1v1-1h1c-3-6-4 3-2 2v1c-1 1-2-2-3 1-2-1-4 0-4-2V9v1l1-1-1-2h-3l2 1c0 3 0 5 2 7-2 4-6 2-3-2 1-1-1-3-2-1v-1h-2l-1 1c1 1-2 2-2 1l2-1-2 1h-2 1l-1 1-2-2c-1 0-2 0-2 2-2 0-2 1-2 2h-1 1l-2-1h-1l-5-1 2 1h-2v1l-1-2-1-1h-1v3c-2 0-4 0-4-2l2 1c-1-1-4-1-1-2l-2-3c0 2-2 3 0 4v1l-1-1h-1l1 1h-2l1 1c-3-2-13 3-12 0l-1 1v-1h1l-1-2-1 1v2l-1 1v-1l-2 1c0-2 0-2-2-2l-2 2h1-1c0-1 0-3-2-4l3-1h-1v2c1-1 0-2 2-1-1-2-2-1-3-2 1 1-1 2-1 2h-2l1 1 2 1-2-1-1 2-1-1-1 1c1 2-3 2-4 3 0-2 1-1 2-2v1h1l-1-3h-2l-1 3-2-1v-3h-2l-1 2-1-1c0 2-3 2-2 4h2l-11 2 1-1-1-1h3l-4-2 1 1-2 1c1 1 0 2-1 2l-9 1v-1h2l-2-2-1 1c0 1 1 2-1 2v1h-1l-1-1 1 1h-8l2-3h-2l-2 3c1 2-11 1-12 2l2-1h-1l-1-1-2-2c0 2 3 2 0 3h1c-1 2-6 2-9 3h-11c1 2-3 0-4 0h1v-1h-2l-1-2c0 1 0 2 2 3-1 2-3 0-5 2 0-2 0-2-2-2h-1v1l-2-1 1 2c-2 0-3 1-4-1h2l-1-1h2v-1l-2 1c-3-3-4-1-6 1h-1l1-1v-2c-1 1-2 0-2-1h-2l1 1h1l-1 3c-2 0-1-1-1-2l-2 2c1 1 1 2 3 2l-3 1 1-2h-1v1l-1-1v1c2 2-2 3-2-1l-2 2v-3q-3 0-3 3l-1-1h1c-1-2-4-4 0-4 0-2-3-2-2-5l3 2v-1h-1 1v-1 1l1 2c2-1 0-2 0-3h-6l1 1-1-1 1-2-4 2 1 1v5l1-2 3-2v2l-1 1 1-1v2c-2 0-2 4-4 0-2 1 0 1-1 2 0 1-2 0-1-1-2 0 0 3 1 4h-1v1l-1-2v2c-3-2-2-6-5 0h2l-2 2v-1h-3v-1h-1 1l-2-2c-2 0-3 1-4-1l-2 2-1-1c0 2 1 2 2 3l2-1-2 1h-3l-1 1c-2-1-2-2-2-4v1-2 3l-1 1c-2-1-3-4-5-1l-1-2c-1 1 0 4-2 2h-1l1 1v3l-1-2v1l-1-1v2c-3 1-3 0-4-2h-2v-1l-1 4c-5-2 0-3-8-3-1 3-2-1-3 2v1-1h-1v2l-2-3v2l-3-1v2c-1 0-2 0 0 0 0-2-1-2-2-1l-5-1h-1l1 2-1-1h-1l-1 3-1-1-1 2v-3h-1v2l-1-2-3 2 1-2h-1v1c-1 0-1-1-2 1l-4-2v1h2c1 3-4 4-4 2h2-1v-2h-2l-1 2h-1l1-1c-1-2-2 1-3 1v-1l-3-1 1 1v1l1 1c-2-2-2 1-4-1l-1 1c0 1-2 0-1-1h-1c-2 0 0 2 0 3h-2v-1 1h-4l-3 1v-3 3h-2l1 1s-6 1-7-1h-1v1-1l-1 1v-1 1l-2-1v2l-2-2 1 2h-2v-1c-4 3-1 0-3 0v1h-2l-1 1c-6 1-2-3-5-2v-2c-2 1 0 2 1 4v1h-1v-1h-1l-1 1h-1v-1c-1 0-3 3-3 0-3 0-5 4-6 1h-1v1h1l-5-1v2h-2v-1l-3-1 1 2v1h-2l-1-1v1h-2 1c-3-1-6 1-6-1l-1 2c-2 0-5-1-4 1h-1l1-1h-6v1h-1c-6-1-15 5-14-4l-1-10-1-1c-1-4 0-3 2-5h-4l1-4 1 1 2-2-3-2h2c-1-2-3-1-4-1l3-2v1c1-2 1-3 4-2l-1-1h-2v-2 1l-1 2c-1 0-2 0-1 1l-2-1 1-2c-3 0 2-5-2-4v-2l1 1c-1-2-3-2-2-5l2 2-1-1h1l-1-1-2 1 2-2-1-1v1l-1-1c-1 1-2 2-2 0h-3l1 1c-3 1-11 1-11-1-1 1-3 2-4 0l-6 1h-1l-3-1 1 1h-6l1-1c-5 1-13 2-17 0l-1 1h-13v-1h-1v1l-3-2 1 1h-1l-5 1 2-4c1-1 1-4-1-4V0v1l-1-1zm-194 13v-1zm194-13h61v11s-3 2-3 0c-1 1-3 2-4 0l-6 1h-1l-3-1 1 1h-6l1-1c-5 1-13 2-17 0l-1 1h-13v-1h-1v1l-3-2 1 1h-1l-5 1 2-4c1-1 1-4-1-4V0v1zm-472 15 1-1zm-311 22h1zM622 20l1-1c1-1 3 0 3 1h-1l-1 1 1-1zM366 52v-2zm329-41 1-1zm402 22h1zm-573-2-1-1zm958 11h1zm-23-19v1zm216-11a4 4 0 0 1 0 1zm59-1h1v2l-2-1h-1zm0 0h-1zm-292 18 1 1h1c-3 2 2 1 3 0v2c2-1 1 2 3 1v1l-3-1-5-1-2-1zM54 12l2-1-1 1v1c1 0 1-1 1 1h-2zm4 1v-1h1v1l1 1h1-1c-1 1-2 0-2-1m53-1h1zv1zm28 0v-2h3v1h2l-1 1v2zm5 0 1-1h1l1 1 1 1-3 1 1-1h-2zm-91-1h1l-1 1zm1-2h1zm1 2v1zm11-1h1zm1212 33v3h-3c1-1 1-3 3-3m-14 0c0 1 0 3-2 3l1-1c0-1-1-1 1-2m7 2h-1zm0-1h1v1l-2-1zm-171-8-1 1v-1zm-7-2-1 3-1-1zm360 0c0 1-2 2-2 0zm0-5c2 1 2 2 1 4zm-918 0c0 2 2 2 2 3h-2zm-1 0-1 2c-2 0-1-2 1-2m895-8h-1l4 2-1 1 2 2h-1v1l-1-1c-4 1-2 0-2-2-2 0 0-2 0-2h-2zm-819 0v1l-1-1zm816-2v3l-1-1-1 1 1-2h-1l1-1 1 1zm5-1v1h-1l1 2c-4 0-2-2 0-3m-9 1-1 1v-1zm-79-2 1 3c-3-1-3 1-5-1 1-2 3 0 4-2m74 1v1h-1 1v1c-3 0-3-3 0-2m-63 0c0 2 1 0 1 1h-2zm3-1 1 2-2-1zm52-1c1 2-1 3-3 2 1-1 2 0 3-2m-45 1 1 2zm9 0 1 1h-2zm15 0-2 1zm-5 0v1l-2-1zm-661-2h1l1 2c-2 0-2 0-2-2m-4-1-1 3c0-1 0 0 0 0v-1zm-9 0h2c-1 2 2 2 2 3-2 0-5 1-4-3m680 2h1v1h-1zm-10-1c1 1 2 1 0 2zm-674-1c2 3-2 2-3 2v1h-4l1-2zm-20 0 2 2c0 2-2 0-3 0h1zm-21 2v1zm758 0 1-1v1l-1 1zm-16-1v1h-1zm182-1v2l-1-1zm-157 0v2c-1-1-2-1 0-2m-743 1c1-1 1 0 1 1zM74 14v1zm-12 0v1zm1509 0 2 1zM76 14h1l-1 1zm612-1c0 1 1 1-1 1zm-582 1h1zm-31 0h-1zm-17-1v1h-1zm638 0h1c0 2-3 0-1 0M82 14h1zm31-1c0 1 1 1-1 1zm-8 0v1h-1zm-80 0v1zm175-1 1 2zm-83 1-2 1zm590-1-2 2c0-2 0-2 2-2m-593 1v1zm90 0h-2c0-2 0-1 2 0M26 13h1zm663-1h1c-1 0-1 2-2 1zm-578 1h1zm-48 0s1 0 0 0m182-1v1l-1-1zm1427 0 2-1-1 1v1c1 0 1-1 1 1h-2zm4 1v-1h1v1l1 1h1-1c-1 1-2 0-2-1m53-1h1zv1zm28 0v-2h3v1h2l-1 1v2zm5 0 1-1h1v1l2 1-3 1 1-1h-2zm-89-1v1zm-1-2h1zm-1 2h1l-1 1zm13-1h1zm8 4v1zm-12 0v1zm14 0h1l-1 1zm30 0h1zm-31 0h-1zm-17-1v1h-1zm24 1h1zm31-1c0 1 1 1-1 1zm-8 0v1h-1zm-80 0v1zm175-1 1 2zm-83 1-2 1zm-3 0v1zm90 0h-2c0-2 0-1 2 0m-178 0h1zm85 0h1zm-48 0s1 0 0 0m182-1v1l-1-1z"/></svg>