<svg xmlns="http://www.w3.org/2000/svg" xml:space="preserve" fill-rule="evenodd" stroke-linejoin="round" stroke-miterlimit="2" clip-rule="evenodd" viewBox="0 0 1921 67"><path d="M377 2h1zm0 0-4-1V0zm181 46h1zm0 0h-1zm88-23v1zm0 0c1-1 1-1-1-1h2c0-2 0-4 2-4-1 1 0 2-2 2 1 1 1 3-1 3M464 35l-1-4-1-1h1-1l5 1-2 2h1l1-1h1c-1 1-2 3-4 3m1 1h-3 2v-1zM336 53l-1-1c0-2 2-1 2 0zm1512 1-1-1h1zm15 1a4 4 0 0 1 0-1h1zm-58 1h-2l1-2h1l1 1zM230 54l-1-1h1zm1449 13c1-1 2-3 1-4h-1l-1-1c2-1 0-3 0-5h4l-2-1 2-1h3v1h1-1c2-1 1 1 5-1v1h2-1l3 2 1-2h-1 2c-1 1 1 1 2 1 2 2 2 0 3 0l1-1v2c1-1 2 1 2-2l2 2s1 0 0 0h1v-1l1 1h1l-1 1 2-1h4v2-1c1 0 0 2 2 1-1-1-2-1-1-2l2 1-1-1 1-2v3h1v-2c3 0 1 3 0 5l2 2c1 1 1 0 1-1v2l2-1c0-1-1-3-3-3l1-1-1-1h1v1l1-3c-1-2 0-2 2-1h-2l3 2 1 2v-3h2c0 2 0 1 1 1l1 1-1-1v-1l1 2 2 1c-2-1 1-5 2-4v-1l1 2h-2v3l3-1h1c-2 0-1 2 1 1l-1-2c2 0 2 2 3 2l-1-2h-3l3-4v1h2c0 1-2-1-2 1l3-1h1v-1h1c-1 0 0 2 1 1-1-1 0-1 1-2l1 2c2-1 1 2 2 1h1l1 1v-2h-2 4l3-1h1v1l7-1v2s1 0 0 0c3 0 0-3 4 0l2-1 1 3-1-2h2v2h1v-1h-1 1l1-1c1 3 3 1 2 3h1l4 1 1-2 2 2-1-1 2-1c1 1 3 0 4-1v1h-1v1h-1 3-1c1-2 1-3-1-3l3-1v1l4-1v-1h1l-1 1 2-1 3 1v-1c-1 0 0 0 0 0v1h2v-1h1l-1-1h1v1l-1 1h1c-2 3-2 2-1 5l1-1h1l-1-1v-1h2v1h-1c1 1 3-1 3 2 2 0 1-2 0-3l1-1 1 3 1-1 1 1h-1c2 1 2 0 1-2l1-2c1 1 0 4 2 4v-2l2 2h1c0-2-3-2-3-4l2 1h1v-1l5 1v-1h3l-1-1h2l-1 1h9v-1h2v1l1-1h-1 2l2-1-1 1h7v1s-2 0-1 1h3l1-1v1h2v-2l-1-1h3v2l-1-1-1 2c1 0 2-2 3 0 0 2-3-1-2 3 1-4 2 1 4-2l-2-2v-1l1 1v-1h1l-1 2h1l1-1 2 2h3-1c1 1 2 1 2 3v-1l2-2c0 1 1 3 2 1l2 1 1-1-1-1-1-1-1-2 2-1h1l1 1v1l-1-1 1 4 1-1 1 1 1 2 1-1-1-1h2l-1 1h4v1l1-1v-1l-1 1v-1h-1l1-1v-1l-1 2h-3v-1l-1 1c-1-2-2 0-3-1l1-3h1l1 1v-1h-1 1v-1l1 1 1-1v1h-2 1c-1 2 1 1 1 0v1h1v-2 1h3l-1-1c1 0 2 0 1 1h4l1-1-1 1h11c2 1 5-2 5 1 5-2 6-1 9-1 0-2 5 0 5 0 10-5 5 8 6 13zM61 67c1-1 2-3 1-4h-1l-1-1c2-1 0-3 0-5h4l-2-1 2-1h3v1h1-1c2-1 1 1 5-1v1h2-1l3 2 1-2h-1 2c-1 1 1 1 2 1 2 2 2 0 3 0l1-1v2c1-1 2 1 2-2l2 2s1 0 0 0h1v-1l1 1h1l-1 1 2-1h4v2-1c1 0 0 2 2 1-1-1-2-1-1-2l2 1-1-1 1-2v3h1v-2c3 0 1 3 0 5l2 2c1 1 1 0 1-1v2l2-1c0-1-1-3-3-3l1-1-1-1h1v1l1-3c-1-2 0-2 2-1h-2l3 2 1 2v-3h2c0 2 0 1 1 1l1 1-1-1v-1l1 2 2 1c-2-1 1-5 2-4v-1l1 2h-2v3l3-1h1c-2 0-1 2 1 1l-1-2c2 0 2 2 3 2l-1-2h-3l3-4v1h2c0 1-2-1-2 1l3-1h1v-1h1c-1 0 0 2 1 1-1-1 0-1 1-2l1 2c2-1 1 2 2 1h1l1 1v-2h-2 4l3-1h1v1l7-1v2s1 0 0 0c3 0 0-3 4 0l2-1 1 3-1-2h2v2h1v-1h-1 1l1-1c1 3 3 1 2 3h1l4 1 1-2 2 2-1-1 2-1c1 1 3 0 4-1v1h-1v1h-1 3-1c1-2 1-3-1-3l3-1v1l4-1v-1h1l-1 1 2-1 3 1v-1c-1 0 0 0 0 0v1h2v-1h1l-1-1h1v1l-1 1h1c-2 3-2 2-1 5l1-1h1l-1-1v-1h2v1h-1c1 1 3-1 3 2 2 0 1-2 0-3l1-1 1 3 1-1 1 1h-1c2 1 2 0 1-2l1-2c1 1 0 4 2 4v-2l2 2h1c0-2-3-2-3-4l2 1h1v-1s1 0 0 0l5 1v-1h3l-1-1h2l-1 1h9v-1h2v1l1-1h-1 2l2-1-1 1h7v1s-2 0-1 1h3l1-1v1h2v-2l-1-1h3v2l-1-1-1 2c1 0 2-2 3 0 0 2-3-1-2 3 1-4 2 1 4-2l-2-2v-1l1 1v-1h1l-1 2h1l1-1 2 2h3-1c1 1 2 1 2 3v-1l2-2c0 1 1 3 2 1l2 1 1-1-1-1-1-1-1-2 2-1h1l1 1v1l-1-1 1 4 1-1 1 1 1 2 1-1-1-1h2l-1 1h4v1l1-1v-1l-1 1v-1h-1l1-1v-1l-1 2h-3v-1l-1 1c-1-2-2 0-3-1l1-3h1l1 1v-1h-1 1v-1l1 1 1-1v1h-2 1c-1 2 1 1 1 0v1h1v-2 1h3l-1-1c1 0 2 0 1 1h4l1-1-1 1h11c2 1 5-2 5 1 5-2 6-1 9-1 0-2 5 0 5 0l5-1v-2s3 0 2-1c2-1 1 3 1 4l-1-1c0 2 1 1 2 1v1l3-1h1c0-1 0-2-2-2 2-1 2-1 0-1v-1h1l-1-1-1-1h1l4 3 2 2v1h2l2-2h-1l-1-2c-1-2-2 0-2-2l3 1h1l-1 2 3-1v1l1-2h1c1 1 0 1-1 1 1 1 0 2-2 2v-1c0 2-1 1-2 2l4 1c0 2 2 1 2-1l2 1v1c1-1 0-5 2-3h-1v1l1-1 2 1-1-2c1-1 2-1 2 2l-1 2 1-2c2 1 0 2 0 3l2-2 2 1 1-1 1-1 1 1 1-1c1-1 2 1 3-1v1c2 0 4 1 3-1h1v2h2-1v2h1l1-3v3l1-2h1l1 2 1-1v-1l1 2 1-1h-1 1v-1l1 1-1-2-1 1-1-1-1-3c2 0 3 1 2 2h1-1l3-1-1 2 2-1h1c0 2-1 2-2 3h1v-1c6-15 12-34 19-49l1-3 1 1V2c2 0 0 2 3 1-1 2 1 6 1 1h3c-1 2 1 1 2 3 1-3 5-2 5 0 3-1 9 2 12 3l-3 1v1h5c-1 1-2 2 0 3 1-2 2-2 4-2v1h2c2-3 4 3 7 1l1 1v1h3l-1-1 8 2 3 3v2h1v-3l2 1h1-1c1 1 1 3-1 3 1 0 2 0 1 1h2l1-1-1-1c3-1 8 0 7 4 2-1 1-2 1-3l3 2 1 2h1l1-2 2 2h2l-3 1 1 1h2l2 4c-1-1-3 0-2-2-2 1 0 1-1 2l-1 1 2 2v-1l2 1-1 1c1 2 1-1 3-2l2 2v-2l2 4-1 1c-1-2-3-1 0 1-6 1-3 2-1 1l-1-1h3v1c1 0-1-1 1-1l-1-3 1-1v-1 2h1l1 3h2l-1 1v1l2 1 1-4v4l2-2-1-2v-1h-2 2l-1-1h-2l1-1v-2l-1 1c-1-1 0-2 1-1v-1h-2c0-2 1-1 3-2v2h1v1h-2l1 1 1 2c2-1 1-1 1-2l1-1v3c3 3 4-4 6 1h-2v1h-3l1 1 1 1 2-1-1 1c2-1 2 0 3 1 1-1 1-2 2 0 3-1 1 1 0 2 1 1 0 1-2 2l2 1c-2 1-4 1-3-1h-1v-1c3 1 3-2 0 0v3l-1-3-3 1v1c2 0 2 2 3 3 0-2 2-1 2-2v1l2-1c0 2 0 1 1 0v2l1-1v-1h1l-1 1h1v-1h2v2c2-2 2 0 0 0 1 3 3 5 4 1h1l1 2c0-1 0-3 1-2l-1 2h1l1-2v-1l1 1v2h3v-1h-1l-1-1v-1h-1 1-2v-1h1-2v-1h-2l1-2c1 2 5 1 4 4l1-1c0 1 0 2 2 2h-1c0-1 2 1 2-1h-2l1-3c0 3 3 1 4 3-2 3 1 1 1 2h1v2-2c0-1 0-3-1-1l-1-2 1 1 4 1v-1h2s0-1 0 0l2 4v-3c1-1 1 2 2 2h1v-5c1 0 2 2 3 1h-1l1-1 2 2v-1h2l-1 2c0-1-3-2-2 0h1l2 2h-2v1h3v-2h-1c0-2 3 1 5 1l1-3 1 1c-1 2 1 2 3 1-1 2 2 1 3 1-1-1-1-2-2-1v-1h1l-1-1 1-2 1 1-1 1h2l1 4 1-2c1 3 4 2 3 5l3-2c-4-1-2-6-1-8h2l-1 1c0 2 2 0 4 0l-1 1h1l1 1c0 2 2 1 2 1 2 0 2-2 4-1-3 3-7 5 0 5v-2l1-2 1 1v-1l-1-1v-1l2-1-2 1c4 2 1 4 5 0v2c3 0 3-2 4 0 2 0 1-1 1-2l1 1c1-1-1-1-1-3 2 1 2 3 4 1v1l2 1c1-1-1-2-1-3 1-1 1 1 2 1l6 1v-1c2 1 1 0 2-1v-1h2l1 1v-1h6v2c-2-1-1-2-3-1l1 4c2-3 4-8 5-3 1-1 0-4 2-3h1v1c1 1 1-1 1-1 1 1 1 3 3 3v-1h3l1 1 1-2h2l-2-1c1-2 2 0 4 0v-1l1 1h1l-1 3-1-1 2 2c-1-2 1-5 2-2l3-2v1l1-1c-2 0 1-2 2-1l-1-2v2h-2v-4l2 1h-1 2l-1-1v-1l1 1v-2h1-3c0-2 3-2 4-1 1-3-3-1-2-4l2 1s1 0 0 0v-2h2v1c2 0 0-4-1-2h-4l1-3-2-2 1-1v1c2 1 3 2 4-1l-4-1v-6c2 0 3 0 3-2h1v1q0 1.5 0 0h1v1h1l-1-2c2 0 1 0 1 1h1v-1s3 0 1 1h2c1 1-2 1-2 1v1c2-1 3 0 3-2 3 2 2 2 5 1l-1-1-2-1h3l-1 1c2 1 6-1 5 2l2-1 1 1-4 1 3 1-1 2 1-1v1h1-1 3v1l1 1c-1 0-1 2-2 1v1c-1 1-2-2-3-1 1 3 2 0 2 5h2l-1-4 2 1c2 0 0-3 1-4 1 0 4 1 3-2 2 1 3 2 3 4 2-1 2 2 4 3l-1 1-1-2v1l1 1c-4 0-2 4 0 3-1-2 1-3 2-3l-1-3-1 1c-1-2 0-4 2-3v-1c-1-1-2-4-3-1-2-1 0-3 1-2h1l-1-1c3-1 2 2 2 3v-1l2 1v-1l2-2h1v3c1-1 3-1 3-3l2 1-1 1c1 1 2-2 4 0v-1l2 1c2 0 2 2 4 0l1 1c0 2 3 1 5 0l8 2h1l1-1 1-1v1h1c-1-1 1-1 2-1 0-2 7 2 8 1 3-2 7 0 10 0s12-2 9 3h-1v-1c-1 2 2 2 2 1h1c-1-1 0-1 0 0v1l2-2h-1c-1-1 0-1 1-2l1 2h1c-1 1 0 2 1 2l2-1-3-3h11l-1 2 1 2v-1h1l-1-2 1-1v1h2l-1-1c3-1 5 3 6 0l1 1 1-1c0 1 2 2 3 1l-2-1c3-1 4 2 5 4 1-3 0-2-1-3h1l1-1v1l1-1c2 2 2-1 3 1l6-1c1 3 2 1 4 2h-1 1v1l5-2 1 2c-1 0-1-1-1 1h2v1h1c-1-1 0-3 1-3 0 2 0 3 1 1h5c0-2-2 0-3-1 1-2 4-1 4 2l4-3c1 1 4 0 4 3l1-1c-3-1 0-3 1 0h-1v2l1-1 2 1v-2 1h3-1l1-1h-2l1-1h2c0 3 3 3 4 1-4-4 2 0 1 3 1-1 2 0 1 1l1-1h1c2 0 1-1 2-2v1s3-3 3-1l-2 2c0-3-3 2 0 2l2-2v-1 5l-1 1 1-1h2c2-1 0-2 3-3v1l1-1 1-3 2 1c0-2 1-1 2 1l-2 2h-1l1 1 1-2c1 2 4 1 3 3h3-1l1 1 3-1v-1l3-1 3-1 1 1c-1-2 1-3-1-4l3-1c1 1 1 2 2 1h-1l9-1 1 2 2-1c0 1 3-2 6 0l-1 1h7l6-1 1 1c0-2 2 0 3 0 2-2 2-1 3 0 4-2 6 0 10 0h-1 7l1-1c1 2 1-1 2 0l-1 1c3 0 6-2 8 0h9c1 2 7-1 9 1l5 3v-1h1l1-1v-1h2l1 3v-2h1c-2 1-1 0-1-1l-1-1 2 1s-1 1 0 0h1c0-2 2 0 3 1l-3-1c0 2 2 4 4 4v-2l5-1c3-4 8 0 11 0l7 1c1 1 4 5 2 6l1 1 1-2h2l-1-2h-1c-1-1-2-2-1-4l1 2 2 1h-1c3-1 2 0 3 2 2-1-1-2 0-3l2 1v-1 1-1l-2-1h2v1l1-1 2 1v-1l4-1c0 1 2 2 2 0l1 1 2-1 1 2h-1l1 1c1-3 2-2 5-3v1l4-1v1h5c-1 0 0 1 0 0h3l-1 2 1-1c2 1 2-2 3-1l1 2v-2c3 1 8-1 11-1v1h11l-1 1 2-1h2c0 2 1 1 1 0l2 1 2 2c3 2 4 0 5-2 1 1 3-1 4-1v1l1 1v3c1-2 5 1 5 1h-1v1c3 0 4 6 7 8v-1l1 1h4l-1-1c4 1 1 3 5 2-1-1 0-2 1-1l1-1 3 1v1h1c1-1 1 0 0 0l1 2c1 0 3-1 3-3h2l2-1c0 2 3 1 5 1l1 2 1-2 5 1h-1 1v-1c2 0 1 1 2 2l1-1h4l-1 1 2 1 3-3v1l2 1v1c2 0 1 2 4 1-1-4 4-1 3 1h1c1-3 0-2-1-4 1-1 4 0 4 1l1-2c3 0 4 4 5 5l-2 3h2l-1-1c0-1 2 0 1 1 2 0-1-2 1-2l-1-2h2l5 1-1 1c2 1 1 1 0 2h1l1-1v2l2-1 1-2-2-1 1-2h3c-1 1-2 1-2 3h3v3c3 1 1-1 2-2l-2-1c1-2 2 0 3-3 2-1 2 2 4 2v-3l-1 1c-4-3 3-3 6-3l3 1c2 0 3 2 5 0 0 2 3 3 2 1h3v1l1 2h5c1 0-4-4-1-4h2v5h1-1v-1h2c-1-1 0-2 1-2v5c2 0 4-5 6-6h-1c2-1 2-2 4-1h-1v3h1l-1-2 3 6h1c1-2-1-3-2-3l-1-2 1-2c3 0 7-1 6 3h1c-1 1 1 1 1 2v-1 2h-1v3c2 0 2-1 3-2-2-2 2-6 4-4l3 2v-2l1-2c0 2 2 2 3 2h1v1l1 1c-3 1 1-2-7 0v2c-2-2-2-3-5-1 1 2 4-2 3 1h1v1l3 2c0-2 1-2 2-1v1l1-1 3 1v-2h1l-1 3 1-2c2 2 2 1 4 1l2-1-1-2 2 1v1c1-1 1-2 2-1l1-1-1 1h-1c3 6 4-3 2-3v-1c2 0 2 3 3 0 2 1 4 0 5 2h-1v1l-1 1c2 0 1 0 1 1l3 1-1-1c-1-3 0-6-3-7 2-4 6-2 4 2-1 1 0 3 1 1v1h2l1-1 2-1-2 1 3-1h1-1l1-1 2 2c1 0 3 0 3-2l1-3 2 1h-1c-1 1 0 1 1 1h1l5 1-1-2h2l-1-1 1 3h2l1-2 3 1h-1c0 1 3 1 1 1l1 3c0-1 2-3 0-3v-1l2 1h1l-2-1 2-1c3 2 12-3 11 0l1-1 1 1h-2l1 2v-1l1-1h1v-2h2c0 2 0 2 3 2h-1c2 0 1-1 2-2h-1 2c-1 1 0 2 1 3l-3 2 1-1v-1l-1 1c0 2 1 1 3 2v-3l2 1v-1h-1l-2-1h2l1-1 1 1 1-1c-1-3 3-2 4-3 0 2 0 1-2 2l1-1h-2l1 3h2l1-3 2 1h1v3l1-1 1-1 1 1c1-2 3-2 2-4h-2l11-2-1 1 2 1h-3l3 2-1-1 3-1v-2l10-1-1 1h-2l2 2 2-1c-1-2-2-2 0-2v-1h9l-1 3h2l1-3c-1-2 11-1 13-2h-3l1 1c1 0 3 0 1 1l3 1c0-1-4-1-1-2v-1l9-2h11c-2-2 2-1 3-1 1 1-1 1-1 1v1h2l1 2-1-3c1-2 2 0 4-2 0 2 0 2 2 2h1l1-2 1 2-1-3c2 0 4 0 4 2l-2-1 1 2h-1v1l2-2c2 3 4 1 6 0l-1 1c0 1 2 1 0 2h3c-1 1 0 1 1 1l-1-2h-1l2-2v2l2-2c-1-1-1-2-3-2v-1l3-1v2l1 1 1-1c-3-2 1-3 1 1l2-2 1 2c2 1 2 0 2-2h2l-1 1c0 2 3 4 0 4-1 2 2 2 2 5l-3-2v1-1 1h-1v-2c-2 0-1 1-1 3h6l-1-1h2c0 1-2 1-1 2l4-2h-2v-5 2l-4 2 1-2v-1h-1l1-1c1 0 1-4 3 0 2-1 0-2 1-2 1-1 2 0 2 1l-1-4v-1l1 2v-2c4 1 3 6 5 0h-1l1-2v1h3v1h1-1l2 2c2 0 4-1 4 1l2-2 1 1c0-2-1-3-2-3l-2 1c1-1 1-2 2-1h4v-1c2 1 2 2 2 3v1l1-2c0-1-1-2 1-1s2 4 5 1l1 2c1-1 0-4 1-2l1-1h-1v-3l1 2v-1h2v-2c2 0 2 1 4 3h2v-3c6 2 0 2 8 3 2-3 2 0 3-3h1l1-1 1 2h1l-1-1h3v-2c1 1 2 1 0 1l2 1 5 1h1v-2h1s-1 1 0 0c2 0 2-1 2-3v1l1-1v3h1v-2c1 0 0 2 2 2l2-2-1 2h2l-1-1c1 0 2 0 2-2 2 1 3 3 4 2v-1h-1c-2-2 4-3 4-1h-3 1v1h2l1-2h1l-1 1c1 3 3 0 4-1l-1 2h3l-1-1v1-1l-1-2c2 3 2 0 4 1l1-1 2 2v-1c2 1 1-1 1-2h1l1 1v-1h1l2-1h3v2-2l2-1s6-1 6 1h1v-1c1-1 1 1 1 1l1-1 1 1v-2l2 1v-1h1v1c5-3 1 0 4 0l-1-1h3v-1a24 24 0 0 1 1 0c6-1 1 3 5 2l-1 1c2-1 1-2 0-3h-1v-1h1v1l2-1v1-1h1v1c2 0 3-3 4-1 2 1 4-3 5 0h1v-1h5v-1h1v1h3l-1-1v-2h2l1 2v-1h2-1c3 1 6-1 7 1l1-2c1 0 4 1 4-1v1l2-1h3s1 0 0 0h1c6 0 15-6 14 4l1 10 1 1c1 4 1 2-2 5h4l-1 3-1-1-1 2 2 3h-2c1 2 3 1 4 0 0 2-1 2-2 3l-1-2c-1 3 0 4-3 3l1 1h1v1h1l1-2 1-1 1 1-1 1c3 1-1 6 3 5v2l-2-1c1 2 3 2 2 4l-2-1 1 1v1l2-1-1 2h1v-1 2c1-1 2-2 2 0l3-1v-1l10 1c1 0 3-1 4 1l6-1v-1l1 1h8l-1 1c5-1 13-2 18-1 0 0 1 0 0 0h14-1l1 1v-1l3 2v-2 1l5-1c0 1-2 3-1 4-2 1-2 3 1 3-2 2-1 3-1 4h1v1zm0 0H0V55h3c1 0 3-1 4 1l6-1v-1l1 1h8l-1 1c5-1 13-2 18-1 0 0 1 0 0 0h14-1l1 1v-1l3 2v-2 1l5-1c0 1-2 3-1 4-2 1-2 3 1 3-2 2-1 3-1 4h1zm472-15-1 1zm765-5h-1c-1 2-2 1-3 0h1v-1 1l2-1-1 1zm489 12 1-1h-1zM169 59l1-1h-1zm1385-44v1zm-329 41c-1-1-1 0-1 1zM823 34h-1zm574 2v1zM438 24v1zm23 19h1zM245 55a4 4 0 0 1 0-1h1zm-58 1h-2l1-2h1l1 1zm292-18-2-1h-1c3-2-1-1-2-1v-2c-3 1-1-2-4-1h1-1c2-1 2 1 3 1 1-1 4 0 5 1l3 1c-2 0-1 1-2 2m1387 16v1l-2 1v-1l1-1zc-2 0-2 1-2-2l3 1zm-4 0-1-1h-1l-1-1h1zm-53 0-1 1zh1zm-28 0 1 2c-2-1-2-1-4 1v-1h-2c1-1 2-1 1-2v-1zm-5 0v2h-2v-2h-2c0-2 2-1 3-1l-1 1zm91 1h-1zm-1 3s0-1 0 0m-1-2v-1h1zm-11 1h-1zM643 24c-2-1-1-2-1-3l3-1zm14 0c-1-1 0-3 1-3l-1 1zm-8-2 1-1zm1 1h-2v-1h3zm170 8 1-2v2zm7 2 1-3 1 1zm-360 0c0-1 2-2 3-1zm0 4c-1 0-2-1-1-3zm918 1c0-2-2-2-2-3h2c1 1 2 2 0 3m2 0 1-2c2 0 0 2-1 2m-895 8c-2 0-2-1-3-3l-2-2h2l-1-2 2 2c4-1 2 0 1 2 2-1 0 1 0 2h2zm818 0v-2l1 1zm-816 2v-3l1 1 1-1-1 1 1 1v-1l-1 2v-2zm-4 1-1-2 1 1v-2c4 0 1 1 0 3m8-1 1-2v1-1l1 2zm80 1-1-2c2 0 3-1 4 1-1 2-2 0-3 1m-74 0v-1s0 1 0 0l-1-1h1c2 0 3 3 0 2m63 0c-1-2-2 0-2-2h2zm-4 1-1-2v-1l2 1zm-51 0c-1-1 0-2 2-2zm44 0-1-2zm-9-1h-1l2-1zm-15 0h3zm5 1v-1h2zm661 2-1-3c2 0 2 1 1 3m4 1c0-2 0-4 2-3h-1l1 1zm9 0h-2c1-2-2-2-2-4 3 1 5 0 4 4m-680-2h-1v-1h1zm10 1c-1-1-2-1 0-2zm674 0v1c-2-3 2-3 4-2v-1h3v1zm20 0-2-1c0-2 2 0 3-1v1zm22-1h-1v-1h1zm-759 0h-1v-1h1zm16 0v-1h1zm-182 1 1-1 1 1zm158 1-1-2c1 0 2 1 1 2m742-1-1-1zm632 0h-1zm-17 1-1-1zM349 53l-2-1zm1495-1h-1zm-612 1 1-1zm582 0v-1zm32 0c-1 0 0 0 0 0m16 0v-1h1zm-638 1h-1c0-2 3-1 1 0m614-1s0-1 0 0m-31 0h1zm8 1v-1h1zm80-1c1 0 0 0 0 0m-175 2-1-2zm84-2h1zm-590 2 1-2zm592-1 1-1zm-90 0h3c-1 2-1 1-3 0m178 0q0-1.5 0 0m-663 1 1-2zm578-1v-1zm49 0h-1zm-15-1 1 1h-1zm-168 2v-1h1zM248 54v1l-2 1v-1l1-1zc-2 0-2 1-2-2l3 1zm-4 0-1-1h-1l-1-1h1zm-52 0-2 1 1-1zm-29 0 1 2c-2-1-2-1-4 1v-1h-2l2-2-1-1zm-5 0v2h-2v-2h-2c0-2 2-1 3-1l-1 1zm89 2v-1h1zm1 2s0-1 0 0m1-3h-1zm-13 2h-1zm10-5h-1zm-17 1-1-1zm-3-1h-1zm-30 1v-1zm32 0c-1 0 0 0 0 0m16 0v-1h1zm-24 0s0-1 0 0m-31 0h1zm8 1v-1h1zm80-1c1 0 0 0 0 0m-175 2-1-2zm84-2h1zm2 1 1-1zm-90 0h3c-1 2-1 1-3 0m178 0q0-1.5 0 0m-85 0v-1zm49 0h-1zm-15-1 1 1h-1zM57 55v-1h1z"/></svg>